<svg id="Layer_1" data-name="Layer 1" xmlns="http://www.w3.org/2000/svg" viewBox="0 0 65 66"><defs><style>.cls-1{fill:#f0f1ec;}.cls-2{fill:#3b0d17;}</style></defs><path class="cls-1" d="M30.35,60.27A5.68,5.68,0,0,1,29,59.72a9,9,0,0,1-.87-.46l-.54-.35-.71-.45c-.19-.12-.38-.24-.57-.34h0c-.24-.12-.48-.21-.72-.32L25,57.5c-.18-.09-.38-.17-.57-.25l-.4-.1c-.47-.09-.93-.17-1.41-.22s-.91-.19-1.37-.28l.08,0a12.64,12.64,0,0,1-1.39-.27,4.8,4.8,0,0,1-.66-.27,3.55,3.55,0,0,1-.53-.32h0l0,0,0,0h0l-.39-.28c-.19-.14-.37-.3-.55-.46a6.37,6.37,0,0,1-.93-1l-.48-.66-.42-.6c-.22-.33-.46-.65-.68-1h0a3.69,3.69,0,0,0-.29-.4c-.15-.17-.31-.35-.48-.51-.35-.3-.7-.6-1.06-.88s-.84-.67-1.29-1l0,0a5.55,5.55,0,0,1-.63-.45l-.3-.25c-.13-.11-.26-.2-.4-.3a4.89,4.89,0,0,1-1.13-1.14,7,7,0,0,1-.85-1.42,12.56,12.56,0,0,1-.47-1.62c-.12-.52-.13-1.05-.22-1.57v0c0-.21-.09-.42-.13-.62s-.09-.51-.15-.76c-.1-.42-.19-.83-.32-1.23A5.26,5.26,0,0,0,7.29,39c-.11-.22-.2-.44-.3-.66s-.3-.59-.43-.89-.3-.69-.46-1h0v0l0,0v0a6,6,0,0,1-.35-.78,8.11,8.11,0,0,1-.21-.85,5.35,5.35,0,0,1-.09-1.66,8.92,8.92,0,0,1,.24-1.71,9.2,9.2,0,0,1,.56-1.6c.13-.27.23-.55.34-.83s.27-.6.39-.92a3.78,3.78,0,0,0,.17-.6l0-.22c0-.23,0-.47,0-.7s0-.67,0-1v-.05h0c0-.28,0-.55,0-.82s0-.63.07-.95a10.89,10.89,0,0,1,.31-1.87,7.32,7.32,0,0,1,.59-1.62,5.45,5.45,0,0,1,.47-.71,6.44,6.44,0,0,1,.52-.65,13.71,13.71,0,0,1,1-1c.31-.27.66-.5,1-.77a9.32,9.32,0,0,0,.77-.77,4.74,4.74,0,0,0,.46-.62l0,.06a20.35,20.35,0,0,0,1.35-2.23l0,.07c.25-.5.52-1,.79-1.49a5.9,5.9,0,0,1,.4-.69c.16-.22.33-.44.5-.64a6.64,6.64,0,0,1,1.25-1.12,4.39,4.39,0,0,1,.73-.41c.2-.09.42-.15.63-.23s.66-.2,1-.29.42-.12.63-.16.25,0,.37-.06c.36-.06.71-.16,1.06-.25L22,8l.61-.23L23,7.49c.31-.21.61-.44.93-.64l.91-.66a9,9,0,0,1,1-.67A9.53,9.53,0,0,1,27,5l.45-.17A1.4,1.4,0,0,1,28,4.73a.63.63,0,0,1,.61.64A.64.64,0,0,1,28,6L27.9,6a11.36,11.36,0,0,0-1.25.52l.07,0a4.71,4.71,0,0,0-.58.32c-.3.2-.59.42-.88.63s-.62.43-.93.65a9.49,9.49,0,0,1-1.08.7,8.57,8.57,0,0,1-1.54.55l-1,.25a6.21,6.21,0,0,1-.62.14l-.36.06c-.21,0-.42.1-.63.16l-.42.12-.54.18c-.14.05-.29.09-.42.15a4.66,4.66,0,0,0-.53.32,2.48,2.48,0,0,0-.26.19,9.78,9.78,0,0,0-.72.72c-.15.18-.29.36-.43.56s-.3.53-.44.79-.34.63-.5.95a14.56,14.56,0,0,1-.8,1.44c-.29.46-.58.91-.89,1.35a7.48,7.48,0,0,1-1.12,1.2c-.32.28-.68.53-1,.8L11,18.8l.06-.06a11.32,11.32,0,0,0-1.11,1.08,5.3,5.3,0,0,0-.46.6h0l0,0,0,0h0a4,4,0,0,0-.27.44l0,0,0,.05v0h0a4.93,4.93,0,0,0-.22.53,11,11,0,0,0-.33,1.25.19.19,0,0,0,0-.07A13,13,0,0,0,8.45,24v0a8.19,8.19,0,0,0,0,1.21h0q0,.38,0,.75c0,.26,0,.52,0,.77s0,.38,0,.56a4.05,4.05,0,0,1-.18.92c-.09.26-.18.51-.29.76s-.2.45-.29.68c-.16.4-.35.79-.5,1.2s-.24.73-.33,1.11v0a9.52,9.52,0,0,0-.15,1.18V33a7.13,7.13,0,0,0,0,.8,4,4,0,0,0,.06.5,8.23,8.23,0,0,0,.19.86,1.78,1.78,0,0,0,.12.29c.26.55.5,1.11.76,1.67.08.19.18.37.27.55s.2.45.3.67v0l0,0v0c.08.19.17.37.24.56s.14.41.21.62c.12.42.21.85.3,1.28.05.24.09.48.15.72s.1.48.14.72.06.71.12,1.06.1.42.15.63.1.41.16.61.15.43.24.64.13.23.2.35a9.14,9.14,0,0,0,.7,1l.32.32c.23.19.48.34.71.54s.39.32.6.47h0c.38.26.74.53,1.11.81s.63.48.94.74.61.5.88.78.27.29.4.45a5.88,5.88,0,0,1,.36.51l0,0c.13.21.28.4.42.6s.25.38.39.57c.33.45.64.92,1,1.35h0l.06.06,0,0a4,4,0,0,0,.4.42s0,0,0,0a6.72,6.72,0,0,0,.78.63h0l0,0,0,0h0l.22.14h0l0,0h0l.39.22h0l0,0,0,0,.29.12.38.11c.36.07.73.1,1.09.18l.82.19-.08,0c.3.06.6.07.89.12s.58.11.88.16a5.63,5.63,0,0,1,1.72.66h0l0,0h0c.28.13.57.24.85.38a7.39,7.39,0,0,1,.81.47c.29.2.59.37.89.56a10.11,10.11,0,0,0,.9.53l.53.25a3.16,3.16,0,0,0,.5.22l.16,0a6.18,6.18,0,0,0,.62.07h-.08l.41,0a.64.64,0,0,1,.62.63.63.63,0,0,1-.63.62l-.45,0A5.23,5.23,0,0,1,30.35,60.27Z"/><path class="cls-1" d="M32.87,60h.07a.62.62,0,0,1-.61-.63.63.63,0,0,1,.63-.62l.11,0h0l.13,0,.55-.2c.28-.1.55-.18.83-.26l-.08,0c.27-.09.55-.18.82-.25l.71-.21h0l.06,0-.05,0a12.06,12.06,0,0,1,1.42-.41,12.48,12.48,0,0,1,1.61-.23c.53,0,1.07,0,1.6-.06a12.85,12.85,0,0,1,1.52,0c.25,0,.51,0,.76,0l.19,0c.13,0,.25-.05.37-.09l.27-.1q.26-.13.51-.3l-.07,0c.24-.16.47-.31.69-.49l.13-.12-.06.07c.14-.16.27-.32.41-.47a4.54,4.54,0,0,1,.38-.38l.32-.33a4.35,4.35,0,0,1,.45-.39,2.77,2.77,0,0,0,.25-.24c.15-.16.29-.34.43-.51s.28-.31.43-.46.32-.41.5-.6a5.67,5.67,0,0,1,.62-.58l.71-.56c.22-.16.45-.31.68-.46l.61-.36c.18-.1.36-.22.55-.31a10,10,0,0,1,1.12-.49l.16-.07a7.29,7.29,0,0,0,.78-.42h0l.22-.16a1.49,1.49,0,0,0,.18-.17l.14-.18c.08-.12.15-.25.22-.37s.12-.27.17-.41l0,.07a1.91,1.91,0,0,0,.1-.34c0-.2,0-.4.07-.6s0-.42.07-.63a6,6,0,0,1,.15-.85c0-.13.07-.26.11-.39a2.58,2.58,0,0,0,.08-.26.63.63,0,0,1,1.25,0A2.38,2.38,0,0,1,56,46c-.06.21-.11.41-.16.62s-.07.6-.1.91a5.74,5.74,0,0,1-.16,1,3.64,3.64,0,0,1-1.27,2,5.68,5.68,0,0,1-.92.54c-.34.18-.7.29-1,.44a17.12,17.12,0,0,0-1.67,1,12.67,12.67,0,0,0-1.29,1l.06-.06c-.13.12-.25.24-.37.37s-.21.26-.32.39-.3.33-.45.49-.36.44-.56.65a6.09,6.09,0,0,1-.6.54h0c-.15.14-.28.28-.42.42l-.46.47a4.85,4.85,0,0,1-.54.57c-.2.16-.42.3-.63.44a4.17,4.17,0,0,1-1.32.65,3.6,3.6,0,0,1-.8.12,5.42,5.42,0,0,1-.57,0c-.49,0-1-.06-1.48,0-.27,0-.54,0-.8,0l-.77,0c-.24,0-.49,0-.73.07s-.5.08-.75.12h0a7.44,7.44,0,0,0-.78.2l-.91.29-.84.24.08,0-.89.28c-.33.11-.65.25-1,.35a1.37,1.37,0,0,1-.57.05Z"/><path class="cls-1" d="M29.76,5.11a.63.63,0,0,1,.63-.62.65.65,0,0,1,.62.64.63.63,0,0,1-.64.61A.62.62,0,0,1,29.76,5.11Z"/><path class="cls-1" d="M55.38,45.74a.65.65,0,0,1-.44-.77l0-.06s0,.06,0,.08a3.69,3.69,0,0,1,.11-.45c.05-.13.11-.25.17-.37v0l0,0h0l.09-.23a1.76,1.76,0,0,0,.09-.2l0-.09a.92.92,0,0,1,.18-.32l.07-.06A2.72,2.72,0,0,1,55.8,43c.09-.15.2-.29.3-.44l0,0,0,0v0h0c.1-.15.19-.31.29-.47a7.68,7.68,0,0,1,.5-.63l0,.06a4.46,4.46,0,0,0,.33-.43l.42-.68c.16-.23.34-.43.5-.66s.19-.33.28-.49l.3-.54v0l0,0,0,0a10.52,10.52,0,0,0,.53-1.19v-.06a.88.88,0,0,0,0-.17,3.85,3.85,0,0,0,0-.48h0s0-.11,0-.17c-.06-.3-.17-.59-.26-.89s-.24-.87-.35-1.31a10.58,10.58,0,0,1-.28-1.59,14.72,14.72,0,0,1-.08-1.49c0-.35,0-.7.07-1.05s.07-.61.11-.91c.09-.58.24-1.15.28-1.73v.08c0-.36.05-.72.06-1.08s0-.61,0-.91v0c0-.33-.06-.66-.11-1v0l0-.06v0h0a1,1,0,0,0-.06-.23,3.41,3.41,0,0,0-.18-.48,5.12,5.12,0,0,0-.3-.57,11.7,11.7,0,0,0-.73-1c-.3-.36-.57-.74-.88-1.1l.06.07c-.35-.41-.68-.83-1-1.27s-.51-.84-.78-1.26l0,.07a8.33,8.33,0,0,1-.51-.8c-.17-.32-.28-.67-.43-1s-.23-.46-.35-.7a7.55,7.55,0,0,1-.35-.94v0c-.09-.28-.17-.56-.26-.84a6.25,6.25,0,0,0-.24-.6v0l0-.05v0l-.09-.15a2.34,2.34,0,0,0-.24-.31h0l0,0,0,0h0l-.19-.23-.26-.28-.13-.1c-.23-.15-.46-.29-.7-.42l-.44-.16h0L50,12.2l-.87-.26a8.06,8.06,0,0,1-1-.31c-.35-.15-.69-.29-1-.46h0l-.68-.35c-.25-.14-.5-.3-.74-.46a5.79,5.79,0,0,1-.61-.5l-.3-.29h0l-.07-.06,0,0-.81-.77L43,7.91a4.37,4.37,0,0,0-.48-.37l.07,0c-.17-.11-.33-.21-.5-.3h0c-.29-.14-.57-.3-.85-.45a3.66,3.66,0,0,0-.46-.18l-.2-.06-.28,0h-.45c-.32,0-.65.09-1,.15h0l-.93.12c-.31,0-.61.06-.92.08h0c-.33,0-.66,0-1,0l-.56,0a4.85,4.85,0,0,1-.66,0,10.87,10.87,0,0,1-1.49-.14,7.45,7.45,0,0,1-1.24-.29,7.22,7.22,0,0,1-.78-.41L30.93,6a3.27,3.27,0,0,0-.33-.14l-.23-.07-.36,0-.12,0,.08,0H30a.63.63,0,0,1,0-1.25l.19,0h-.08l.13,0a4,4,0,0,1,.48.09,3.73,3.73,0,0,1,.56.2l.56.24.46.27.16.06c.24.08.48.13.73.19l-.08,0a9.71,9.71,0,0,0,1.19.16h-.08a9.13,9.13,0,0,0,1,0h-.08c.29,0,.57,0,.86-.06h.56l.57,0h-.08c.24,0,.49,0,.73-.07l.66-.08h0a7,7,0,0,1,1.88-.17,3.56,3.56,0,0,1,1.12.29c.32.13.6.32.91.47.14.07.28.14.41.22s.28.18.42.27a7,7,0,0,1,.78.66c.23.21.46.42.68.64s.39.38.59.57l0,0L46,9s0,0,0,0c.15.13.31.25.47.37a9.23,9.23,0,0,0,1,.56l0,0,0,0,0,0h0l.46.22,0,0c.32.16.66.3,1,.43l.8.22.69.2a11.33,11.33,0,0,1,1.17.36,5.21,5.21,0,0,1,.52.28c.15.08.29.17.43.26a3.61,3.61,0,0,1,.75.71,1.83,1.83,0,0,0,.13.16c.11.13.22.26.32.4a4.21,4.21,0,0,1,.3.55,10.58,10.58,0,0,1,.39,1.12l0-.08c.06.2.13.39.19.58l0-.05a4.35,4.35,0,0,0,.25.63c.12.27.27.53.39.81s.21.51.32.77c.06.11.12.23.19.34v0l0,0,0,0v0c.13.21.27.4.4.61l.41.71,0-.06a14.37,14.37,0,0,0,1,1.39v0h0l0,0,0,0c.29.34.55.69.83,1s.51.61.74.94a5.37,5.37,0,0,1,.89,2A9.13,9.13,0,0,1,60,27a12,12,0,0,1-.15,1.47c-.09.46-.17.93-.23,1.39q-.06.44-.09.87v-.09a8.23,8.23,0,0,0,0,1.11h0a13.91,13.91,0,0,0,.17,1.72c.17.86.42,1.7.67,2.53a2.83,2.83,0,0,1,.14.91,3.45,3.45,0,0,1-.08.85,4.84,4.84,0,0,1-.22.6c-.09.23-.2.45-.31.68s-.36.68-.55,1a5.09,5.09,0,0,1-.3.5c-.13.17-.27.33-.4.51s-.31.52-.49.77a6.51,6.51,0,0,1-.46.58l.06-.07a3.17,3.17,0,0,0-.28.36c-.1.14-.18.29-.27.43l-.25.38h0l-.08.12-.12.31a.66.66,0,0,1-.21.29,5.11,5.11,0,0,1-.29.63.16.16,0,0,0,0-.07.94.94,0,0,0-.06.15.74.74,0,0,0,0,.14s0,0,0-.08,0,.18-.05.27a.64.64,0,0,1-.65.46Z"/><path class="cls-1" d="M23,11.28a.64.64,0,0,1-.11-.88,1.48,1.48,0,0,1,.33-.28,5.09,5.09,0,0,1,.5-.3,10.46,10.46,0,0,0,1.13-.63l-.08.05c.34-.21.67-.43,1-.62s.6-.32.89-.5l-.07,0c.31-.21.61-.45.92-.67L28,7.16A1,1,0,0,1,28.73,7a.63.63,0,0,1,.44.45.68.68,0,0,1-.05.45h0v0h0a.76.76,0,0,1-.39.42.57.57,0,0,1-.26,0c-.41.28-.8.6-1.22.87s-.95.52-1.41.81l.07,0c-.31.21-.62.42-.95.61s-.61.3-.9.47l-.24.16a.61.61,0,0,1-.5.19A.54.54,0,0,1,23,11.28Z"/><path class="cls-1" d="M8.11,33.8A.62.62,0,0,1,7.67,33c.06-.18.1-.35.15-.53s.21-.65.32-1l0,.08c.13-.39.25-.77.4-1.15s.25-.6.36-.9h0c.09-.27.19-.55.29-.82s.2-.5.29-.75v0c0-.49,0-1,0-1.49v0a14.14,14.14,0,0,1,.05-1.84c0-.53.14-1.06.2-1.59A8.15,8.15,0,0,1,10,21.3a1.64,1.64,0,0,1,.47-.71c.19-.17.38-.32.58-.47s.46-.35.68-.54.54-.46.83-.68.5-.36.74-.55l.23-.24,0,.06c.15-.17.3-.35.44-.54v0l0,0,0,0v0c.22-.34.41-.69.63-1s.52-.88.79-1.31.47-.8.71-1.19.57-.87.87-1.31c.17-.25.33-.51.52-.75a2.1,2.1,0,0,1,.71-.54A9.26,9.26,0,0,1,19.71,11c.29-.08.59-.14.88-.21s.52-.15.78-.2.63-.11.95-.15a4.17,4.17,0,0,1,.71-.07h.07a.62.62,0,0,1,0,1.24h-.16l-.58.07-.63.1c-.38.07-.75.2-1.12.28s-.83.2-1.23.33l.08,0a6.37,6.37,0,0,0-.69.25,1,1,0,0,0-.17.1l-.09.06-.07.07-.13.17a.08.08,0,0,0,0,0l0,.07h0l-.79,1.17,0-.07c-.31.47-.6,1-.89,1.47l-.49.8c-.15.25-.29.51-.45.75s-.29.46-.43.7a5.93,5.93,0,0,1-.4.62,5.09,5.09,0,0,1-.57.66,4.46,4.46,0,0,1-.67.55c-.25.18-.5.37-.74.57l.06-.06c-.29.26-.59.51-.89.75s-.48.36-.71.55l-.11.1h0l-.06.15c-.05.17-.09.33-.13.5-.08.44-.13.88-.18,1.32,0,.2-.06.4-.09.61s-.07.55-.09.82v-.08a10.3,10.3,0,0,0,0,1.36v0h0c0,.54.07,1.08,0,1.62,0,.08,0,.17,0,.25a1.85,1.85,0,0,1-.12.4c-.13.36-.28.7-.4,1.06v0c-.11.32-.21.63-.34.93s-.25.64-.37,1l0-.07c-.09.25-.16.5-.25.74l0-.07c-.09.26-.18.53-.26.8s-.08.32-.13.48a.64.64,0,0,1-.65.45Z"/><path class="cls-1" d="M31.13,57.67a5.09,5.09,0,0,1-1-.3,6.21,6.21,0,0,1-.59-.26c-.21-.11-.41-.24-.63-.35-.47-.24-1-.42-1.44-.67s-.86-.51-1.31-.73a11.84,11.84,0,0,0-1.09-.5,12.15,12.15,0,0,0-1.46-.41h0l-.07,0,.08,0c-1.22-.25-2.47-.3-3.66-.66a2,2,0,0,1-1-.65c-.12-.13-.24-.27-.37-.4a5.7,5.7,0,0,1-.48-.62l-.46-.6a4.85,4.85,0,0,1-.39-.61c-.23-.34-.47-.66-.71-1s-.4-.67-.6-1l-.2-.27-.26-.26a13,13,0,0,0-1.11-.85l0,0-1.53-1h0l0,0h0c-.25-.17-.51-.32-.77-.49a6.32,6.32,0,0,1-.68-.47,1,1,0,0,1-.35-.47,2.6,2.6,0,0,1-.12-.46c0-.14,0-.28,0-.41s0-.2,0-.3v-.07c0-.09,0-.19,0-.29,0-.28,0-.56,0-.85s-.07-.73-.1-1.11,0-.7-.11-1.05a10.94,10.94,0,0,0-.29-1.26c-.07-.21-.13-.42-.2-.64h0c-.09-.17-.19-.34-.29-.51s-.39-.62-.56-.94-.44-.76-.64-1.15c-.09-.18-.17-.36-.26-.55l-.15-.31a1.28,1.28,0,0,1-.11-.27.65.65,0,0,1,.07-.47.59.59,0,0,1,.46-.3.63.63,0,0,1,.64.35.88.88,0,0,1,.14.23.47.47,0,0,1,0,.17c.13.27.26.55.41.82s.25.43.38.65.21.39.32.58.35.57.51.86a2.15,2.15,0,0,1,.14.26,3,3,0,0,1,.14.39c.06.18.12.35.17.53a7,7,0,0,1,.19.79A10.15,10.15,0,0,1,12,41.22c0,.49.1,1,.13,1.49,0,.22,0,.45,0,.67s0,.32,0,.48h0v0h0V44h0c0,.18,0,.36,0,.53l0,.13.09.06h0l1,.6,1,.71a22.31,22.31,0,0,1,1.89,1.34,4.76,4.76,0,0,1,.64.63,10.42,10.42,0,0,1,.67,1.1c.18.27.38.52.57.78s.35.54.52.81.31.41.47.62l.38.52.33.36c.1.11.2.23.31.33l.12.09,0,0,0,0c.24.08.5.13.75.19h0c1,.19,1.94.27,2.89.47l-.08,0a9.64,9.64,0,0,1,2.1.65c.37.16.74.34,1.1.53s.8.46,1.2.67l-.07,0c.33.16.67.3,1,.45s.38.18.57.29l.46.26h0l0,0h0a6.07,6.07,0,0,0,.59.24l-.08,0a4.84,4.84,0,0,0,.51.14l.29.05h.1l.25-.07c.4-.13.78-.3,1.18-.44s.83-.23,1.24-.35.66-.28,1-.43a11.64,11.64,0,0,1,1.18-.39,7.57,7.57,0,0,1,1.23-.37,7,7,0,0,1,.8-.07l.93,0c.6,0,1.2,0,1.8.05.44,0,.89.06,1.33.07h.27c.12-.09.24-.19.36-.27s.39-.26.57-.4.3-.29.45-.44a19.85,19.85,0,0,1,1.91-1.87l-.06,0c.35-.3.65-.65,1-1a5.8,5.8,0,0,1,.62-.49c.25-.2.5-.41.77-.59.49-.32,1-.6,1.53-.9s1-.53,1.48-.78l.59-.29a1.65,1.65,0,0,1,.52-.2.64.64,0,0,1,.76.46.62.62,0,0,1-.46.75l-.06,0-.16.06,0,0,0,0,0,0,0,0c-.52.25-1,.52-1.53.77-.34.17-.65.38-1,.57s-.61.32-.9.51l0,0q-.36.24-.69.51c-.2.16-.4.3-.59.46a5.9,5.9,0,0,0-.51.49l-.37.37c-.15.15-.31.28-.47.42l0,0,0,0,0,0,0,0-.66.63c-.24.24-.48.48-.71.73a6.88,6.88,0,0,1-.53.55,5.6,5.6,0,0,1-.77.59l-.33.23a1.18,1.18,0,0,1-.35.23,1.6,1.6,0,0,1-.62.07c-.43,0-.87,0-1.3-.06-.59,0-1.17-.06-1.76-.06-.34,0-.69,0-1,0h0c-.26,0-.52,0-.78.07l-.23.06q-.66.22-1.32.42c-.39.14-.77.31-1.15.48a8.62,8.62,0,0,1-1.42.43c-.42.14-.82.33-1.24.47a4.61,4.61,0,0,1-.73.19.94.94,0,0,1-.29,0Z"/><path class="cls-1" d="M53.11,46.76a.64.64,0,0,1-.54-.63.76.76,0,0,1,.06-.26,7,7,0,0,0,.19-.76c.09-.47.16-.94.26-1.4.05-.28.12-.56.17-.85s.07-.35.12-.52a4.38,4.38,0,0,1,.48-1.14l.45-.73c.16-.25.36-.47.54-.7.06-.07.11-.15.16-.22l0,0c.23-.34.44-.7.67-1l.69-1,.38-.57.18-.28c0-.19-.07-.37-.1-.56s-.12-.49-.19-.74-.1-.46-.14-.69h0c0-.26-.11-.5-.17-.76a6.35,6.35,0,0,1-.13-.76c0-.26,0-.52-.07-.78s-.05-.58-.06-.87a11.87,11.87,0,0,1,.1-1.58c.06-.51.15-1,.19-1.54,0-.29,0-.59,0-.89s.06-.73.09-1.09v0c0-.31,0-.62,0-.93,0,0,0-.06,0-.1s0-.05,0-.08l0-.08a7.73,7.73,0,0,0-.4-.75,3.65,3.65,0,0,0-.24-.31,6.25,6.25,0,0,0-.57-.58A8.67,8.67,0,0,1,54.5,23c-.23-.23-.4-.5-.61-.75s-.46-.49-.66-.76a7.27,7.27,0,0,1-.58-.79,5.29,5.29,0,0,1-.4-.74A6.35,6.35,0,0,1,52,18.8a4.91,4.91,0,0,0-.17-.66c-.1-.29-.2-.57-.28-.85a6.93,6.93,0,0,1-.16-.91l0-.17L51.25,16c-.18-.38-.31-.77-.49-1.15l-.06-.13,0,0a.63.63,0,0,1,.9-.87,2.53,2.53,0,0,1,.42.73c.1.25.19.51.3.75a3.46,3.46,0,0,1,.23.56,5,5,0,0,1,.16.86h0a2.92,2.92,0,0,0,.1.4c.11.34.23.68.34,1s.13.69.19,1a1.66,1.66,0,0,0,.06.21c0,.1.07.19.11.29h0c.08.15.17.3.26.45v0a8.17,8.17,0,0,0,.61.81c.18.2.36.38.53.58s.3.4.46.59a3.31,3.31,0,0,0,.26.27,11,11,0,0,1,1,1,3.79,3.79,0,0,1,.43.56,3.65,3.65,0,0,1,.3.55,3.27,3.27,0,0,1,.24.5,2.13,2.13,0,0,1,.11.5,9.06,9.06,0,0,1,0,1.16v-.08c0,.3,0,.61-.07.92,0,.49,0,1-.09,1.49,0,.29-.08.58-.12.87s-.08.64-.1,1v-.08c0,.35,0,.7,0,1.05s0,.56.07.84a8.58,8.58,0,0,0,.1.87.43.43,0,0,0,0,0v.06c0,.19.09.38.14.58a5.4,5.4,0,0,1,.11.58c.09.43.23.85.31,1.28l.12.71a.94.94,0,0,1,0,.5l-.09.19c-.06.1-.12.2-.19.3l-.34.53-.76,1.1h0l0,0v0h0c-.19.28-.36.57-.55.86s-.26.38-.4.56-.24.28-.34.43-.24.39-.36.59-.2.32-.29.49l-.12.29h0a14.05,14.05,0,0,0-.33,1.46.31.31,0,0,1,0-.08c-.13.63-.21,1.27-.36,1.9a5.46,5.46,0,0,1-.19.66.62.62,0,0,1-.62.39Z"/><path class="cls-1" d="M51.07,14.9l.08,0a6,6,0,0,1-.72-.22c-.12,0-.25-.08-.38-.12l-.36-.14L48.61,14l-1.3-.49-1.06-.43c-.33-.14-.66-.31-1-.47a5.1,5.1,0,0,1-1-.69c-.33-.27-.66-.54-1-.82l-.43-.4c-.14-.13-.26-.27-.4-.41S42.14,10,42,9.91l-.42-.32c-.27-.21-.53-.43-.81-.63l-.11-.06-.06,0-.2,0-.26,0h-.78l-.7,0h0c-.16,0-.32.05-.49.07l-.46,0h0L37.25,9h0c-.26.05-.52.13-.78.17l-.87.1a3,3,0,0,1-.89,0,8.25,8.25,0,0,1-1.17-.35l.05,0c-.23-.08-.48-.13-.72-.21l-.68-.23h0c-.32-.11-.64-.21-1-.29l-.43-.05h.08l-.42,0a1.14,1.14,0,0,1-.41-.07.62.62,0,0,1,.34-1.19h0l.45,0h-.08a6.69,6.69,0,0,1,1,.14c.4.11.79.26,1.19.39l-.08,0,.68.2c.22,0,.43.13.64.2a4.79,4.79,0,0,0,.74.21l.14,0h.11a10.46,10.46,0,0,0,1.24-.14l.69-.16h0l.42-.08c.14,0,.28,0,.42,0s.28,0,.42-.06l.5,0c.23,0,.45,0,.68,0a5.14,5.14,0,0,1,.68,0,2.41,2.41,0,0,1,1.17.37c.31.21.59.45.89.68l.42.32a5.93,5.93,0,0,1,.56.43,4.57,4.57,0,0,1,.44.44l.38.35c.23.21.47.4.71.6s.44.39.68.56l.54.31a22.87,22.87,0,0,0,2.28,1c.44.15.87.34,1.3.5s.57.23.85.33l0,0h0l.59.19-.08,0c.13,0,.25.09.38.12h-.09a.63.63,0,0,1,0,1.25Z"/><path class="cls-1" d="M10.16,27.46a.62.62,0,0,1,.63-.62.63.63,0,0,1,.62.63.63.63,0,0,1-.63.62A.64.64,0,0,1,10.16,27.46Z"/><path class="cls-1" d="M10.18,27.48a.63.63,0,1,1,1.26,0,.63.63,0,0,1-1.26,0Z"/><path class="cls-1" d="M10.43,27.68a.68.68,0,0,1,.55-.63,3.17,3.17,0,0,1,.69-.07c.56,0,1.12,0,1.68,0l1.59-.12,1.78-.07c.79,0,1.58-.14,2.37-.19.41,0,.82-.05,1.23-.05s.79,0,1.19,0h-.05l1.37-.08,1.37-.05.22,0h.32l.31,0h.07c.59,0,1.17-.07,1.76-.09l1.93-.06c1.31-.06,2.61-.09,3.92-.13.67,0,1.33,0,2,0s1.28,0,1.92,0L40.39,26c1.29,0,2.59-.07,3.89-.06l1.93,0c.65,0,1.31,0,2,0,1.3-.05,2.59,0,3.89,0,.62,0,1.23,0,1.84,0a17.4,17.4,0,0,1,1.91,0h.24a4.18,4.18,0,0,0,.51,0,.63.63,0,0,1,0,1.26c-.19,0-.38,0-.56,0s-.58,0-.87,0c-.63,0-1.26,0-1.89,0-1.28,0-2.56,0-3.84,0-.65,0-1.31,0-2,.05s-1.32,0-2,0l-2,0c-.64,0-1.28,0-1.91,0l-3.82.08c-.61,0-1.24,0-1.86,0s-1.3,0-1.95,0-1.32,0-2,0l-2,.06-2,.08-1.8,0h0l-.79.05-.5,0h-.44c-.67,0-1.35.06-2,.09h0c-.51,0-1,.07-1.54.06s-1,0-1.54,0h0c-.7,0-1.39.11-2.08.17s-1.41.07-2.11.1h-.06c-.6,0-1.2.11-1.8.13s-1.21,0-1.81,0h0l-.18,0a.59.59,0,0,1-.27,0h0A.63.63,0,0,1,10.43,27.68Z"/><path class="cls-1" d="M13.31,45.58c0-.44-.12-.87-.17-1.3a13.48,13.48,0,0,1-.05-1.42c0-.46,0-.91,0-1.36s0-1-.05-1.44h0V40h0c0-.68-.11-1.37-.13-2.06s0-1.35-.07-2-.12-1.25-.15-1.88,0-1.25,0-1.88a33,33,0,0,1,0-3.85.8.8,0,0,1,.16-.42.63.63,0,0,1,.65-.22.68.68,0,0,1,.49.66.6.6,0,0,1-.08.29c0,.1,0,.2,0,.3v-.08c-.07.87,0,1.73,0,2.6s0,1.75,0,2.63c0,.72.14,1.43.16,2.16s0,1.36.07,2v.06h0c0,.44.07.89.1,1.33s0,1,.07,1.5,0,.88,0,1.32,0,.83,0,1.25.15,1.14.2,1.72a.64.64,0,0,1-.55.69h-.11A.62.62,0,0,1,13.31,45.58Z"/><path class="cls-1" d="M18.07,51.19a.65.65,0,0,1-.42-.37,1.27,1.27,0,0,1-.06-.18c0-.12-.05-.24-.07-.36a10.32,10.32,0,0,1-.06-1.11c0-.34,0-.69-.05-1h0v-.06c0-.53-.11-1-.16-1.58s-.08-1.22-.1-1.82c0-1.25-.11-2.5-.17-3.74,0-.74-.06-1.47-.1-2.2h0c-.06-1.27-.15-2.54-.15-3.81,0-.6,0-1.2,0-1.8s0-1.25,0-1.87c0-.35,0-.7,0-1.05s0-.73,0-1.1,0-.68,0-1v-.48A.63.63,0,0,1,18,27.43a.57.57,0,0,1,0,.26c0,.26,0,.52,0,.78s0,.61,0,.92c0,.65,0,1.3,0,1.95s0,1.22,0,1.83,0,1.2,0,1.8c0,.84,0,1.68.08,2.51h0v.07h0c.15,2.53.24,5.06.36,7.59v.15c0,.58.08,1.16.15,1.75s.09,1.16.12,1.75v0c0,.37,0,.73,0,1.1a1.33,1.33,0,0,0,0,.28c0,.07,0,.13,0,.2a.6.6,0,0,1,0,.4.65.65,0,0,1-.64.46Z"/><path class="cls-1" d="M21.93,53.58a1.27,1.27,0,0,1-.12-.51l-.06-.38c0-.18-.06-.36-.08-.55s0-.53-.05-.8v.08c0-.57-.1-1.14-.11-1.71s0-1.17,0-1.75c0-1.22,0-2.43-.08-3.64-.05-1.83-.08-3.66-.17-5.48,0-.45-.06-.9-.08-1.36s0-.91-.06-1.37h0v0c0-.61-.11-1.22-.14-1.84s0-1.29,0-1.93-.05-1.29,0-1.93c0-.3,0-.61,0-.91s0-.6,0-.91,0-.78,0-1.18a.63.63,0,0,1,1.25,0c0,.52,0,1,0,1.57s0,1.16-.05,1.74,0,1.2.05,1.8,0,1.2,0,1.81.09,1,.11,1.52,0,1.1.07,1.65.09,1.29.12,1.93.05,1.25.07,1.88l.09,3.8c0,.84.05,1.69.05,2.53s0,1.58,0,2.37c0,.55.08,1.1.11,1.65v0h0v0c0,.3.07.59.12.89s0,.32.07.48a.63.63,0,0,1-.29.75.61.61,0,0,1-.34.08A.64.64,0,0,1,21.93,53.58Z"/><path class="cls-1" d="M27.41,55.73a.65.65,0,0,1-.46-.58,1.07,1.07,0,0,1-.1-.47v.08c0-.24,0-.48,0-.72s0-.78-.06-1.17v0c0-.17,0-.34,0-.52h0v-.09h0c-.06-1.15-.13-2.29-.24-3.43-.06-.6-.14-1.2-.18-1.8s-.06-1.25-.07-1.87c0-1.21,0-2.42-.08-3.63,0-.63,0-1.27-.06-1.9s0-1.2,0-1.81v0q-.09-1.61-.15-3.21c0-.51,0-1-.05-1.54s0-1.08,0-1.62c0-.75-.12-1.5-.14-2.25s0-1.4,0-2.09h0v.07a.15.15,0,0,0,0-.07.57.57,0,0,1,0-.13v0a.62.62,0,0,1,.63-.61.63.63,0,0,1,.62.63h0c0,.9,0,1.79.07,2.68,0,.57.08,1.14.11,1.7s0,1.24.05,1.86c0,1.2.07,2.41.13,3.61,0,.64.08,1.27.09,1.91s0,1.24,0,1.86c0,1.27.09,2.53.1,3.8,0,.67,0,1.34,0,2,.06,1,.18,2,.27,3,0,.51.07,1,.11,1.53s.06.94.08,1.41h0c0,.53.05,1.06.08,1.58h0c0,.2,0,.41,0,.62a.68.68,0,0,1,.11.29,1,1,0,0,1,0,.42.65.65,0,0,1-.64.46Z"/><path class="cls-1" d="M31.69,57.47a.65.65,0,0,1-.54-.71h0c0-.13,0-.26,0-.39s-.06-.43-.08-.65-.06-.56-.08-.85c0-.55-.15-1.09-.24-1.64s-.13-1.08-.19-1.62c0-.29-.09-.57-.12-.85s-.05-.62-.06-.92c0-1-.05-2.08-.06-3.12s0-2.06-.06-3.1c-.05-.8-.11-1.6-.16-2.4S30,39.46,30,38.57v0c0-.65-.11-1.29-.15-1.94s-.08-1.22-.13-1.83c0-.31-.05-.63-.06-1s0-.66,0-1,0-.61,0-.92,0-.53,0-.8a1.27,1.27,0,0,1,0-.2l-.09-1c0-.4,0-.8,0-1.19,0-.61,0-1.22.08-1.82a.64.64,0,0,1,.63-.62.63.63,0,0,1,.62.63c-.06.92-.11,1.85-.08,2.77a.07.07,0,0,0,0-.05v.07h0c0,.33,0,.65.08,1s0,.68,0,1,0,.73,0,1.1,0,.75,0,1.12v0c0,.48.07,1,.11,1.45s.06,1.14.11,1.71.1,1.21.13,1.82,0,1.1.07,1.65v-.08c.07,1.22.18,2.43.23,3.65,0,.58,0,1.16,0,1.74l0,1.82c0,.84,0,1.69.06,2.53v0c0,.56.14,1.11.2,1.67s.13,1.06.22,1.59c0,.27.09.56.13.84s.05.55.07.83c0,.5.14,1,.15,1.48a1.56,1.56,0,0,1,0,.31.63.63,0,0,1-.66.54Z"/><path class="cls-1" d="M34.93,55a2.16,2.16,0,0,1-.1-.61c0-.27,0-.55-.07-.82-.06-.64-.07-1.27-.1-1.91v.08c0-.34,0-.68-.08-1s0-.73-.07-1.1c-.06-.75-.07-1.5-.11-2.25v0c-.06-1.21-.1-2.41-.14-3.61,0-.64,0-1.27,0-1.91s-.05-1.18-.08-1.77v0c0-.49-.05-1-.08-1.46s0-1-.06-1.55-.13-1.23-.19-1.85-.07-1.32-.1-2c-.06-1.3-.07-2.6-.07-3.9,0-.41,0-.82,0-1.24,0-.19,0-.38,0-.57a5.65,5.65,0,0,1,0-.58.66.66,0,0,1,.71-.54h0a.62.62,0,0,1,.54.54c0,.13,0,.26,0,.39a.67.67,0,0,1-.06.28c0,.45,0,.91,0,1.37,0,.63,0,1.27,0,1.9,0,1.21,0,2.41.11,3.61,0,.32,0,.63.08.94s.08.65.11,1c.06.65.06,1.3.1,1.94h0c.07,1.23.15,2.45.19,3.68,0,.65,0,1.31.05,2s0,1.25.06,1.88c0,.23,0,.45,0,.68h0c0,.74.07,1.47.1,2.21h0c0,.31,0,.62.07.94s0,.69.07,1,.06.67.08,1,0,.62,0,.92v0c0,.39.07.77.1,1.16,0,.23,0,.47.06.7h0a.63.63,0,0,1-.37.77.46.46,0,0,1-.26,0A.59.59,0,0,1,34.93,55Z"/><path class="cls-1" d="M39.56,55.08c0-.1,0-.2,0-.29l0-.3a.59.59,0,0,1,0-.19l-.06-.74c0-.34,0-.69-.05-1,0-.67,0-1.33-.08-2h0c0-.62-.07-1.24-.09-1.86s0-1.23-.07-1.85h0c0-.62-.06-1.23-.06-1.85s0-1.25,0-1.87c0-1.21-.08-2.43-.14-3.64,0-.37,0-.73,0-1.1-.07-1.22-.16-2.44-.25-3.66,0-.61-.12-1.23-.16-1.84s-.06-1.3-.1-2h0v0c0-.53-.08-1.06-.13-1.59s-.09-1.09-.12-1.64h0c0-.18,0-.36,0-.54a.6.6,0,0,1-.06-.27.64.64,0,0,1,.64-.62.69.69,0,0,1,.63.52,2,2,0,0,1,0,.43l0,.5h0v.08h0c0,.73.12,1.45.18,2.18s.1,1.51.13,2.26v0c0,.63.09,1.25.14,1.88s.09,1.21.14,1.81c.11,1.25.17,2.49.23,3.74s.08,2.21.12,3.31,0,2.26.07,3.39h0c.06,1,.08,2.09.13,3.13v0c0,.61.08,1.22.1,1.83s0,1.21.07,1.81c0,.34,0,.67.08,1l0,.69a1.08,1.08,0,0,1,0,.31.63.63,0,0,1-.62.54h0A.65.65,0,0,1,39.56,55.08Z"/><path class="cls-1" d="M42.08,53.83c0-.37,0-.73,0-1.1s0-.92,0-1.38,0-.92,0-1.38,0-.88,0-1.32a.09.09,0,0,0,0,.05c-.06-1-.16-2-.21-3s0-1.93-.08-2.89v0c-.08-1.24-.08-2.49-.11-3.73s-.07-2.47-.11-3.7,0-2.58,0-3.86c0-.66,0-1.32,0-2s0-1.27,0-1.9l.06-.71a1.63,1.63,0,0,1,.09-.48.64.64,0,0,1,.82-.33.63.63,0,0,1,.35.75,5.51,5.51,0,0,0-.06.7v0c0,.65,0,1.3,0,2s0,1.26,0,1.9c0,1.29,0,2.6,0,3.9s.07,2.36.1,3.54,0,2.34.09,3.51v0q0,.86.06,1.71c0,.54,0,1.08.05,1.62.08,1.25.2,2.5.23,3.75s.1,2.44.09,3.66c0,.23,0,.47,0,.71a.64.64,0,0,1-.64.62h0A.64.64,0,0,1,42.08,53.83Z"/><path class="cls-1" d="M42.75,54.53a.53.53,0,0,0,0-.13c0-.69-.12-1.38-.16-2.08s0-1.5-.07-2.24v0c0-.8-.1-1.59-.17-2.38,0-.41-.09-.83-.12-1.24s-.05-.81-.07-1.22v-.06h0c0-.38-.06-.77-.09-1.16s0-.82-.07-1.23h0c-.11-2-.13-4-.21-6v0c-.07-1.25-.14-2.5-.18-3.75s0-2.41-.07-3.62c0-.67,0-1.33,0-2,0,0,0-.07,0-.11a.36.36,0,0,0,0-.1.62.62,0,0,1,.45-.76.64.64,0,0,1,.76.45,2.47,2.47,0,0,1,.08.6v.86c0,.57,0,1.15,0,1.73,0,1.24,0,2.49.08,3.73,0,.56,0,1.11.07,1.67h0v0c0,.54.07,1.08.09,1.62s0,1.24.07,1.86,0,1.1,0,1.64,0,1.1,0,1.65v0c0,.24,0,.48,0,.72v0c0,.45,0,.89.09,1.33s.06.91.08,1.36h0v0h0c0,1,.17,2.09.25,3.13,0,.56.08,1.12.1,1.68s0,1.08,0,1.63v0h0q0,.57.09,1.14c0,.22,0,.43,0,.65a3.13,3.13,0,0,1,0,.53.63.63,0,0,1-.63.62h0A.65.65,0,0,1,42.75,54.53Z"/><path class="cls-1" d="M46.68,51.23a2,2,0,0,1-.11-.87h0c0-.39,0-.78-.06-1.17s0-.9,0-1.35a.43.43,0,0,0,0,0c0-.83-.06-1.66-.09-2.49v0h0c0-.39,0-.77-.07-1.16s0-.86,0-1.3c0-.82-.07-1.64-.11-2.46,0-.46-.06-.91-.1-1.36,0-.24,0-.48-.05-.71s0-.25,0-.37,0-.19,0-.28a3.62,3.62,0,0,1,0-.47l0-.65v0c-.07-1.27-.11-2.55-.13-3.83,0-.64,0-1.29,0-1.93s0-1.22,0-1.82c0-.39,0-.77,0-1.16v0h0c0-.18,0-.36,0-.54a2.1,2.1,0,0,1,0-.36.64.64,0,0,1,.63-.62.63.63,0,0,1,.62.63h0l.06.61c0,.32,0,.63,0,.95,0,.62,0,1.23,0,1.85v.91c0,.32,0,.65,0,1,0,.64,0,1.28,0,1.92s0,1.16.06,1.75h0l.09,1.75v0c0,.07,0,.14,0,.21h0c.07,1.07.17,2.13.21,3.2,0,.55.06,1.11.08,1.66s0,1.17,0,1.75v0c0,.5.06,1,.07,1.48s0,1,.05,1.48v-.08c0,.88,0,1.76.09,2.64v0c0,.26,0,.52,0,.78v0a.62.62,0,0,1-.65.76A.63.63,0,0,1,46.68,51.23Z"/><path class="cls-1" d="M50.12,48.59a6.41,6.41,0,0,1,0-1.24c0-.49,0-1,0-1.47v-.06h0c0-.55-.07-1.11-.07-1.66s0-1.1,0-1.65c0-1.16,0-2.33-.09-3.49h0c-.07-1.24-.16-2.49-.16-3.73s0-2.51,0-3.76c0-.77.09-1.54.1-2.31,0-.39,0-.78,0-1.17a5.64,5.64,0,0,1,.06-1.16.63.63,0,0,1,.92-.37.71.71,0,0,1,.27.35h0a.61.61,0,0,1,0,.44c0,.59,0,1.18,0,1.78S51.05,30.39,51,31C51,32.27,51,33.51,51,34.74c0,.87,0,1.73.06,2.6v0c0,.63.08,1.26.11,1.89s0,1.31,0,2,0,1.25,0,1.88,0,1.21,0,1.81c0,.11,0,.22,0,.33h0c0,.54.06,1.08.06,1.63,0,.26,0,.53,0,.8s0,.37,0,.56,0,.12,0,.17h0a.63.63,0,0,1-.46.7.62.62,0,0,1-.19,0A.63.63,0,0,1,50.12,48.59Z"/><path class="cls-1" d="M54.44,40c0-.36-.06-.72-.07-1.07s0-.84,0-1.26c0-.9,0-1.8-.09-2.7,0-.36-.06-.72-.09-1.08s0-.8-.06-1.2c0-.78,0-1.55,0-2.33v.05c0-.43,0-.86-.07-1.29s0-.87,0-1.3v0c0-.13,0-.26,0-.4a.58.58,0,0,1-.08-.39l0-.18s0,.05,0,.08a.83.83,0,0,1,.13-.34.66.66,0,0,1,.51-.24.64.64,0,0,1,.49.25,1.35,1.35,0,0,1,.17.74c0,.21,0,.43,0,.64,0,.42,0,.84,0,1.26v0c0,.68.08,1.37.09,2s0,1.4,0,2.09c0,.52.1,1,.13,1.56s0,1,0,1.44c0,.93.06,1.87.11,2.8h0v.08h0c0,.2,0,.4,0,.59a.63.63,0,0,1-.54.7H55A.64.64,0,0,1,54.44,40Z"/><path class="cls-1" d="M10,37.36l0-.23v-.05A.7.7,0,0,1,9.8,37a1,1,0,0,1-.21-.41l0-.18a.32.32,0,0,1-.09,0,1,1,0,0,1-.33-.25,3.58,3.58,0,0,1-.44-.51c-.09-.13-.15-.28-.23-.41s-.19-.25-.27-.39A3.08,3.08,0,0,1,8,34.25a1.37,1.37,0,0,1-.15-1.16.62.62,0,0,1,.54-.31l.14-.25v0h0c.07-.16.14-.32.2-.49v0c.07-.19.13-.37.19-.55v-.21A1.3,1.3,0,0,1,9,30.7a.65.65,0,0,1,.46-.38l.06-.15a.19.19,0,0,1,0,.07c0-.13.08-.26.11-.39s0-.28,0-.42l0-.64A4.1,4.1,0,0,1,9.7,28a.63.63,0,0,1,.45-.44h0a.63.63,0,0,1,.76.46,10.7,10.7,0,0,1,.1,1.5v-.08c0,.45.05.9.08,1.35h0c0,.62,0,1.25.07,1.87h0v.06c0,.65.11,1.3.13,1.95,0,.34,0,.67,0,1,0,.19,0,.38,0,.57a1.62,1.62,0,0,1-.07.44v0c0,.09,0,.17.05.26a2.13,2.13,0,0,1,0,.25.63.63,0,0,1-.55.69.41.41,0,0,1-.11,0A.64.64,0,0,1,10,37.36Z"/><path class="cls-1" d="M55.77,39a.64.64,0,0,1-.53-.71c0-.2.06-.4.09-.6s.07-.36.12-.53,0-.17,0-.25v0c0-.38-.1-.75-.13-1.13s-.05-1-.06-1.43c0-.93,0-1.86-.07-2.79,0-.18,0-.37,0-.56v0a1.55,1.55,0,0,1,0-.22c0-.42-.07-.84-.11-1.25s0-.6-.07-.9,0-.41,0-.61a2.09,2.09,0,0,1,0-.61.65.65,0,0,1,.47-.45l.06-.05a.65.65,0,0,1,.9.14.89.89,0,0,1,.13.62l0,.49,0,.59a6.94,6.94,0,0,1,0,.79c0,.12,0,.23,0,.34s0,.21,0,.31a3.09,3.09,0,0,1,0,.43c0,.11,0,.22,0,.33s0,.45,0,.67c0,.61,0,1.22.06,1.82s0,1.19,0,1.77v0a.49.49,0,0,0,0,.12.75.75,0,0,1,.52.12.8.8,0,0,1,.42.61,1.58,1.58,0,0,1-.08.57.61.61,0,0,1-.39.57.75.75,0,0,1-.26,0,.83.83,0,0,1,0,.15v.19a.86.86,0,0,1,0,.16,1.08,1.08,0,0,1-.15.47.43.43,0,0,0,0-.07l-.06.14a1.21,1.21,0,0,0,0,.18l0,.16a.63.63,0,0,1-.64.45Z"/><path class="cls-1" d="M47.86,50a.7.7,0,0,1-.09-.4.78.78,0,0,1,0-.14c0-.23-.12-.45-.15-.67a4.5,4.5,0,0,1,0-.82c0-.25,0-.5.05-.74,0-.09,0-.18,0-.27s0-.15,0-.22c-.06-.65-.1-1.3-.13-1.95l0-.5v-.11l0-.19c-.09-.7-.15-1.41-.19-2.13-.1-1.39-.11-2.79-.13-4.18,0-.19,0-.39,0-.58v-.19c0-.77,0-1.53,0-2.3h0V33.8h-.06a.63.63,0,0,1-.57-.4,1.35,1.35,0,0,1-.06-.66l0-.53c0-.34.05-.69.06-1,0-.54,0-1.09,0-1.63a.64.64,0,0,1-.33-.73,1.14,1.14,0,0,1,.17-.35.69.69,0,0,1,.11-.13v-.17c0-.14,0-.28,0-.41a1.13,1.13,0,0,1,.1-.61.62.62,0,0,1,.87-.22h0a1.13,1.13,0,0,1,.18,0,.61.61,0,0,1,.33-.21.64.64,0,0,1,.7.3h0a.58.58,0,0,1,.26,0,.57.57,0,0,1,.29-.11h0a.58.58,0,0,1,.23,0l.15,0a.63.63,0,0,1,.62.63,1.48,1.48,0,0,1,0,.21c0,.62,0,1.25,0,1.87s0,1.3,0,1.94q0,2.07-.09,4.14c0,.71-.07,1.42-.11,2.13,0,.88,0,1.75,0,2.62l0,1,0,.14c0,.21.06.41.1.62s.13.68.15,1v0a.62.62,0,0,1,.1.22s0,.07,0,.1a.68.68,0,0,1,.31.47,2.46,2.46,0,0,1,0,.47c0,.13,0,.25,0,.38,0,.29,0,.58,0,.88s0,.58,0,.88a5.15,5.15,0,0,1-.09,1.11.61.61,0,0,1-.31.39v.06a1.58,1.58,0,0,1-.07.53.63.63,0,0,1-.26.36.62.62,0,0,1-.89-.15,4.9,4.9,0,0,0,0,.54,1.22,1.22,0,0,1,0,.33.62.62,0,0,1-.53.46h-.11A.61.61,0,0,1,47.86,50Z"/><path class="cls-1" d="M41.3,54.68a.36.36,0,0,1,0-.09h-.21a.63.63,0,0,1-.52-.47,2.62,2.62,0,0,1-.07-.79c0-.2,0-.4,0-.6l-.06-1.41v-.06h0c-.08-1.38-.2-2.75-.32-4.12s-.26-2.6-.38-3.9c-.06-.66-.12-1.32-.16-2,0-.35,0-.7,0-1.05,0-.15,0-.3,0-.44a2.28,2.28,0,0,1,0-.26.8.8,0,0,1,.18-.47l0,0c0-.14,0-.29-.07-.44-.12-.74-.22-1.47-.32-2.21-.16-1.31-.29-2.62-.36-3.94,0-.43,0-.86,0-1.3,0-.23,0-.47,0-.7a4.46,4.46,0,0,1,0-.73.73.73,0,0,1,.18-.35c0-.11,0-.23,0-.34v0c0-.11,0-.22,0-.32a2.5,2.5,0,0,1-.24-1.44.76.76,0,0,1,.29-.5.74.74,0,0,1,.48-.12.71.71,0,0,1,.6.11,1.12,1.12,0,0,1,.18.2.7.7,0,0,1,.38,0h0a.67.67,0,0,1,.71,0,1.21,1.21,0,0,1,.39.42,1.82,1.82,0,0,1,.2.92c0,.19,0,.37,0,.56s0,.65,0,1c0,.6,0,1.19,0,1.79v.29a11,11,0,0,1,0,1.62.58.58,0,0,1-.08.22L42,35c0,.25,0,.5,0,.73s0,.65.06,1c0,.58,0,1.15.07,1.73.06,1.32.12,2.64.19,4,0,.74.08,1.49.13,2.24.1.92.21,1.85.3,2.78a2.2,2.2,0,0,1-.05.92.65.65,0,0,1-.53.45h-.08c0,.19,0,.38.05.57a.64.64,0,0,1,.37.58l0,.74c0,.47.07.94.11,1.41,0,.23,0,.46.07.7a3.7,3.7,0,0,1,0,.94.69.69,0,0,1-.26.42c0,.1,0,.2,0,.3a.65.65,0,0,1-.47.6.62.62,0,0,1-.19,0A.63.63,0,0,1,41.3,54.68Z"/><path class="cls-1" d="M39,54.34c0-.22,0-.45-.06-.67l-.06-1c0-.35-.06-.7-.09-1.06l-.06-1.14c0-.75-.09-1.5-.13-2.24h0v-.08h0c-.07-1.15-.19-2.29-.19-3.44s0-2.49,0-3.73c0-.3,0-.6,0-.9h0c0-.81,0-1.62,0-2.43s0-1.72,0-2.58h0c0-.61,0-1.21-.06-1.82v.08c0-.42-.07-.84-.1-1.26s0-.87,0-1.3S38,30,38,29.57s0-.87,0-1.31v.08c0-.26,0-.51,0-.77s0-.28,0-.42a.91.91,0,0,1,0-.33.64.64,0,0,1,.82-.34.66.66,0,0,1,.38.68v.17h0c0,.42.06.84.08,1.27s0,.85,0,1.27.05.71.07,1.07,0,.7,0,1.05v0c0,.45.08.9.1,1.35s0,1,0,1.44h0c0,.42,0,.84,0,1.27s0,.87,0,1.31,0,.86,0,1.29,0,.82,0,1.23v0c.05,1,.1,1.93.09,2.9v1.43c0,.46,0,.92,0,1.38.06,1,.15,1.92.2,2.88h0v.08h0c0,.89.11,1.78.16,2.67h0c0,.58.09,1.15.12,1.72l.06.79a2.73,2.73,0,0,0,0,.5.64.64,0,0,1-.55.7h-.12A.65.65,0,0,1,39,54.34Z"/><path class="cls-1" d="M32.08,57.05a.86.86,0,0,1-.26-.36.46.46,0,0,1-.2,0,.72.72,0,0,1-.47-.49,1.12,1.12,0,0,1,0-.32,1,1,0,0,1,.1-.55v-.66a9.36,9.36,0,0,1,.07-1.3.75.75,0,0,1,0-.16c0-.51.05-1,.07-1.53.07-1.31.06-2.63,0-3.94,0-.66,0-1.32,0-2,0-.11,0-.22-.06-.33l-.09-.5c-.05-.38-.09-.75-.12-1.12s0-.69-.05-1,0-.55,0-.82c0-.43,0-.87,0-1.3v-.22A.61.61,0,0,1,30.6,40a4.57,4.57,0,0,1-.07-.83c0-.22,0-.45,0-.67s0-.63,0-1c0-.69,0-1.38-.05-2.08,0-1.37-.05-2.73-.06-4.1V30c0-.15,0-.3,0-.46s0-.49,0-.74.05-.48.08-.73c.05-.42.15-1,.65-1.16a.73.73,0,0,1,.54.07.78.78,0,0,1,.29.36l.11-.08.38-.28.17-.13a.89.89,0,0,1,.41-.18.62.62,0,0,1,.46.12.93.93,0,0,1,.26.36,1.7,1.7,0,0,1,.08.51l0,.35c0,.69,0,1.38,0,2.07s0,1.38-.06,2.06l-.06,1.05c0,.47,0,.94,0,1.4,0,.13,0,.26,0,.39s0,.54.08.8a.64.64,0,0,1,.41.31.73.73,0,0,1,.1.28,2.41,2.41,0,0,1,0,.38c0,1.21-.09,2.42-.13,3.63,0,.43,0,.86,0,1.29v.22c.07,1.11.13,2.22.2,3.33,0,.49.06,1,.1,1.48s.07.9.12,1.35a3.82,3.82,0,0,1,.09.59.74.74,0,0,1-.08.39c0,.2,0,.4,0,.6,0,.91,0,1.82,0,2.72a4.21,4.21,0,0,1,.09.69c0,.27,0,.54,0,.81a1.93,1.93,0,0,0,0,.24s0,.1,0,.14a1.42,1.42,0,0,1,0,.2l0,0a.63.63,0,0,1,.85.25.72.72,0,0,1-.05.82,1.93,1.93,0,0,1-.45.36l-.55.38-.1.11a1.09,1.09,0,0,1-.6.31,1.74,1.74,0,0,1-.29.25.62.62,0,0,1-.68,0h0l-.08,0a.67.67,0,0,1-.57.29A.68.68,0,0,1,32.08,57.05Z"/><path class="cls-1" d="M25.57,54.58l0-.08h0a.64.64,0,0,1-.7-.31l0-.1a.59.59,0,0,1-.62-.23,1,1,0,0,1-.17-.48.64.64,0,0,1-.73.2c-.38-.14-.45-.6-.52-.94s-.1-.56-.14-.85a3.66,3.66,0,0,1,0-1.58A1.09,1.09,0,0,1,22.7,50c-.05-.8-.08-1.61-.11-2.42h0v0c-.08-1.31-.18-2.62-.3-3.92-.06-.64-.13-1.28-.18-1.92S22,40.35,22,39.66c0-.29,0-.59,0-.89-.07-1.28-.17-2.56-.29-3.84-.06-.63-.12-1.26-.17-1.89s-.08-1.3-.11-1.94c0-.22,0-.44,0-.66v0c0-.3,0-.59,0-.88s0-.54,0-.81,0-.46,0-.69a.72.72,0,0,1,.38-.57,2.1,2.1,0,0,1,.65-.18,1.11,1.11,0,0,1,.48,0l.18.07a.77.77,0,0,1,.55-.22.63.63,0,0,1,.27.06.64.64,0,0,1,.47-.06.66.66,0,0,1,.36.27.87.87,0,0,1,.24-.44.62.62,0,0,1,1,.21,1.22,1.22,0,0,1,0,.57c0,.15,0,.31,0,.47,0,.33,0,.66,0,1v.23a.84.84,0,0,1,.08.31c0,.36,0,.71,0,1.06v2.89c0,.48,0,1,0,1.44l.18,4.26c.09.92.2,1.83.33,2.74.06.43.12.85.19,1.27s.17,1.11.24,1.66a1.09,1.09,0,0,1,0,.31c.09.78.17,1.55.26,2.33.06.46.11.92.17,1.39,0,.21,0,.43.08.64l0,.32a1.7,1.7,0,0,1,0,.45A.64.64,0,0,1,27,51a.58.58,0,0,1-.26,0c.08.57.17,1.14.25,1.71a.58.58,0,0,1,.27.52c0,.13,0,.26,0,.39s0,.21,0,.32a1.19,1.19,0,0,1-.06.46.64.64,0,0,1-.59.38.57.57,0,0,1-.38.2h-.1A.62.62,0,0,1,25.57,54.58Z"/><path class="cls-1" d="M16.85,49c-.12-.12-.23-.25-.34-.38s-.42-.53-.62-.8l-.13-.17-.24,0a1.08,1.08,0,0,1-.53-.46l-.13-.2a.69.69,0,0,1-.48-.23.83.83,0,0,1-.21-.39,1.87,1.87,0,0,1,0-.25A5.81,5.81,0,0,1,14.05,45c0-.07,0-.13,0-.2-.05-.25-.1-.5-.13-.75a9.89,9.89,0,0,1-.11-1.21,5,5,0,0,1,.08-1.49.77.77,0,0,1,.07-.16c0-.55-.05-1.1-.07-1.65s0-.93,0-1.39h0c0-.65-.07-1.31-.07-2v-.12l-.06-1.32c0-1.09-.06-2.18-.11-3.27v0c0-.41,0-.82-.07-1.23s-.07-1-.09-1.45a1.37,1.37,0,0,1,.13-.69.78.78,0,0,1,.48-.39,2.09,2.09,0,0,1,.49-.05l.31,0a1.33,1.33,0,0,1,.44.09l.16.09v0a1.47,1.47,0,0,1,.81-.48.82.82,0,0,1,.88.37.69.69,0,0,1,0,.49.61.61,0,0,1-.11.23l0,0c-.05.11-.09.22-.13.32s0,.39,0,.58,0,.56,0,.83v.1a.6.6,0,0,1,.25.43,7.36,7.36,0,0,1,0,1l0,.9c0,1,.11,2,.15,3,.06,1.39.11,2.78.16,4.18,0,.22,0,.44,0,.66s0,.45,0,.67a.62.62,0,0,1-.23.48l.09.8c.08.56.16,1.11.25,1.67,0,.24.08.48.11.72a3.46,3.46,0,0,1,.1,1.24.65.65,0,0,1-.26.43l.06.23c.08.22.15.44.22.66s.26.67.34,1a.63.63,0,0,1-.19.61.65.65,0,0,1-.53.29h0A.92.92,0,0,1,16.85,49Z"/><path class="cls-1" d="M28,7.58A.67.67,0,0,1,28.39,7a2.18,2.18,0,0,1,.27-.11A1.18,1.18,0,0,1,29,6.8a3.65,3.65,0,0,1,1.14.1h0a.64.64,0,0,1,.53.71.62.62,0,0,1-.71.53l-.24-.05-.22,0h0c-.13,0-.26,0-.39,0L29,8.09a.58.58,0,0,1-.38.12A.63.63,0,0,1,28,7.58Z"/><path class="cls-1" d="M29.3,11.93a.63.63,0,0,1-.22-.21.58.58,0,0,1-.19-.45.72.72,0,0,1,.13-.38.69.69,0,0,1,.89-.37.78.78,0,0,1,.38,1,.72.72,0,0,1-.71.49A.76.76,0,0,1,29.3,11.93Z"/><path class="cls-1" d="M33.3,12a.77.77,0,0,1-.42-1,.65.65,0,0,1,.55-.54.8.8,0,0,1,.88.74.77.77,0,0,1-.3.69.74.74,0,0,1-.48.13A.59.59,0,0,1,33.3,12Z"/><path class="cls-1" d="M31.62,14.93a.75.75,0,0,1-.43-.83.58.58,0,0,1,.08-.36.63.63,0,0,1,.85-.23.91.91,0,0,1,.41.85.7.7,0,0,1-.71.62A.65.65,0,0,1,31.62,14.93Z"/><path class="cls-1" d="M28.44,17.83a.73.73,0,0,1-.45-.6.66.66,0,0,1,0-.14.64.64,0,0,1,.22-.71.76.76,0,0,1,.67-.14.81.81,0,0,1,.54.59.9.9,0,0,1-.19.82.74.74,0,0,1-.58.23A.46.46,0,0,1,28.44,17.83Z"/><path class="cls-1" d="M26.65,13.89a.62.62,0,0,1,.1-.69.82.82,0,0,1,.76-.44.64.64,0,0,1,.62.63.67.67,0,0,1-.31.53.2.2,0,0,1,0,.08.59.59,0,0,1-.58.31A.6.6,0,0,1,26.65,13.89Z"/><path class="cls-1" d="M22.24,14.08a.73.73,0,0,1,0-.69.72.72,0,0,1,.27-.25h0a.6.6,0,0,1,.68.06.38.38,0,0,1,.15.09.61.61,0,0,1,.11.87.74.74,0,0,1-.59.31h0A.74.74,0,0,1,22.24,14.08Z"/><path class="cls-1" d="M23.87,18.34a.38.38,0,0,1-.13-.09.6.6,0,0,1-.38-.35.64.64,0,0,1,.28-.78l.05-.1a.64.64,0,0,1,.86-.23,1,1,0,0,1,.48.7A.9.9,0,0,1,25,18a.79.79,0,0,1-.29.36.75.75,0,0,1-.83,0Z"/><path class="cls-1" d="M19.17,16.72A1.08,1.08,0,0,1,19,16a.74.74,0,0,1,.37-.58.68.68,0,0,1,.56,0,.64.64,0,0,1,.61.63.66.66,0,0,1-.3.53.67.67,0,0,1-.23.34.64.64,0,0,1-.88-.13Z"/><path class="cls-1" d="M21.13,22.07a.65.65,0,0,1,0-.73l.11-.15a.65.65,0,0,1,.68-.13.62.62,0,0,1,.17.11.6.6,0,0,1,.3.53.63.63,0,0,1-.63.62H21.6A.65.65,0,0,1,21.13,22.07Z"/><path class="cls-1" d="M16.22,21.78a.63.63,0,0,1,.64-.61.62.62,0,0,1,.61.63.63.63,0,0,1-.63.62A.65.65,0,0,1,16.22,21.78Z"/><path class="cls-1" d="M17.28,19.36a.63.63,0,0,1,.63-.62.63.63,0,1,1,0,1.25A.62.62,0,0,1,17.28,19.36Z"/><path class="cls-1" d="M19.51,24.62a.64.64,0,0,1,.63-.62.63.63,0,0,1,0,1.25A.64.64,0,0,1,19.51,24.62Z"/><path class="cls-1" d="M13.66,24.46a.63.63,0,0,1,.63-.62.64.64,0,0,1,.62.63.63.63,0,0,1-.63.62A.63.63,0,0,1,13.66,24.46Z"/><path class="cls-1" d="M27.64,23.9a.63.63,0,1,1,.62.63A.64.64,0,0,1,27.64,23.9Z"/><path class="cls-1" d="M26,20.75a.63.63,0,0,1,.63-.62.63.63,0,0,1,.62.63.63.63,0,0,1-.63.62A.64.64,0,0,1,26,20.75Z"/><path class="cls-1" d="M24.62,24.67a.63.63,0,0,1,.64-.62.62.62,0,0,1,.61.63.63.63,0,0,1-.63.62A.65.65,0,0,1,24.62,24.67Z"/><path class="cls-1" d="M35.12,23.6a.63.63,0,1,1,1.25,0,.63.63,0,0,1-.63.62A.65.65,0,0,1,35.12,23.6Z"/><path class="cls-1" d="M31.06,20.3a.63.63,0,0,1,.63-.62.65.65,0,0,1,.62.64.63.63,0,0,1-1.25,0Z"/><path class="cls-1" d="M33.94,17.57a.62.62,0,0,1,.63-.61.63.63,0,0,1,.62.63.63.63,0,1,1-1.25,0Z"/><path class="cls-1" d="M31.64,24.31a.64.64,0,0,1,.06-.81,1,1,0,0,1,.21-.14.46.46,0,0,1,.16-.07l.17-.07a.62.62,0,0,1,.81.35.63.63,0,0,1-.35.81c-.11.05-.22.09-.33.15a.57.57,0,0,1-.26,0A.64.64,0,0,1,31.64,24.31Z"/><path class="cls-1" d="M40.23,22.77a.63.63,0,0,1,.63-.62.63.63,0,1,1,0,1.25A.63.63,0,0,1,40.23,22.77Z"/><path class="cls-1" d="M36.6,19.52a.63.63,0,0,1,.63-.62.64.64,0,0,1,.62.63.62.62,0,0,1-.63.62A.63.63,0,0,1,36.6,19.52Z"/><path class="cls-1" d="M38.81,14.52a.63.63,0,0,1,.63-.62.63.63,0,0,1,0,1.25A.63.63,0,0,1,38.81,14.52Z"/><path class="cls-1" d="M42,17.87a.65.65,0,0,1,.64-.62.63.63,0,0,1,.61.64.62.62,0,0,1-.63.61A.63.63,0,0,1,42,17.87Z"/><path class="cls-1" d="M44.79,21.09a.63.63,0,0,1,.64-.62.62.62,0,0,1,.61.63.63.63,0,0,1-.63.62A.64.64,0,0,1,44.79,21.09Z"/><path class="cls-1" d="M44.25,24a.63.63,0,1,1,.62.63A.63.63,0,0,1,44.25,24Z"/><path class="cls-1" d="M49.58,22.28a.64.64,0,0,1,.64-.62.63.63,0,0,1,0,1.25A.64.64,0,0,1,49.58,22.28Z"/><path class="cls-1" d="M48.5,17.66a.62.62,0,0,1,.63-.62.63.63,0,0,1,.62.63.63.63,0,0,1-1.25,0Z"/><path class="cls-1" d="M41.05,20.51a.67.67,0,0,1-.21-.74.65.65,0,0,1,.77-.44.66.66,0,0,1,.43.43.61.61,0,0,1,.07.28.63.63,0,0,1-.64.61A.73.73,0,0,1,41.05,20.51Z"/><path class="cls-1" d="M42.33,13.05a.63.63,0,0,1,.55-.69l.31,0a.62.62,0,0,1,.69.54.64.64,0,0,1-.54.7l-.32,0h-.11A.64.64,0,0,1,42.33,13.05Z"/><path class="cls-1" d="M46.56,15.25a.63.63,0,0,1,.63-.62.63.63,0,0,1,0,1.25A.63.63,0,0,1,46.56,15.25Z"/><path class="cls-1" d="M38.29,17.76a.64.64,0,0,1,.63-.62.63.63,0,1,1,0,1.25A.64.64,0,0,1,38.29,17.76Z"/><path class="cls-1" d="M38.58,10.81a.62.62,0,0,1,.63-.61.63.63,0,0,1,.62.63.63.63,0,0,1-.63.62A.65.65,0,0,1,38.58,10.81Z"/><path class="cls-1" d="M35.06,14.22a.63.63,0,0,1,1.25,0,.63.63,0,0,1-.63.62A.64.64,0,0,1,35.06,14.22Z"/><path class="cls-1" d="M47.53,23.87a.62.62,0,0,1,.63-.61.63.63,0,0,1,.62.63.65.65,0,0,1-.63.62A.63.63,0,0,1,47.53,23.87Z"/><path class="cls-1" d="M52.39,23.88a.63.63,0,0,1,.63-.62.64.64,0,0,1,.62.63.63.63,0,0,1-.63.62A.64.64,0,0,1,52.39,23.88Z"/><path class="cls-1" d="M31.4,16.67a.62.62,0,0,1,.63-.62.63.63,0,0,1,.62.63.64.64,0,0,1-.63.62A.63.63,0,0,1,31.4,16.67Z"/><path class="cls-1" d="M3.16,59.52a.66.66,0,0,1,0-.48.93.93,0,0,1,.18-.26c.11-.13.21-.26.31-.4a8.74,8.74,0,0,1,.73-.88,6.49,6.49,0,0,1,.83-.66l-.1,0c-.41.14-.81.33-1.22.47a1.57,1.57,0,0,1-.29.08.66.66,0,0,1-.69-.4c-.16-.4.14-.72.39-1a4,4,0,0,1,.6-.56A4.72,4.72,0,0,1,4.68,55a9.14,9.14,0,0,1,1.51-.73A5.55,5.55,0,0,1,7.75,54a3.62,3.62,0,0,1,2.61,1l.39.36c.1.11.2.23.31.33l0,0h0l.28.28a1.49,1.49,0,0,1,.28.38h0c.09.12.16.25.24.38l0,0,0,0,0,0v0l.27.4.19.34c.14.2.28.4.43.59a1.36,1.36,0,0,1,.3.63h.05l.27-.11a8.89,8.89,0,0,0,.79-.45l-.07,0a13.21,13.21,0,0,0,1.22-.9l-.07.06a5.67,5.67,0,0,0,.5-.48l0,0a.64.64,0,0,1,.44-.36h.11a.61.61,0,0,1,.41.13.65.65,0,0,1,.2.75.63.63,0,0,1-.16.24,4.12,4.12,0,0,1-.28.31,9.86,9.86,0,0,1-1.38,1.11c-.25.17-.51.33-.76.48a4.47,4.47,0,0,1-.83.39,5.91,5.91,0,0,1-1.77.29,2,2,0,0,1-1.18-.36A3.13,3.13,0,0,1,9.86,59l0-.06,0,0,0,0-.07,0-.12-.06-.21-.05h0c-.21,0-.42-.07-.64-.09h.08a5.56,5.56,0,0,0-.71,0c-.25,0-.51.06-.76.1A12.54,12.54,0,0,0,6,59l-.84.29c-.24.09-.49.17-.73.28l-.13.07c-.09.06-.16.13-.25.18a.57.57,0,0,1-.33.07A.68.68,0,0,1,3.16,59.52Z"/><path class="cls-1" d="M59,50.61a.65.65,0,0,0-.16-.51,1.71,1.71,0,0,0-.27-.2l.05,0c-.3-.2-.59-.42-.87-.64s-2.62-2.34-3-2.59-1-.59-1.48-.86a13.08,13.08,0,0,0-1.2-.56,4.46,4.46,0,0,1-1.8-.66c-.77-.26-1.54-.51-2.32-.72-.6-.17-1.21-.33-1.81-.48s-1.28-.3-1.93-.42c-1.22-.24-2.46-.4-3.69-.54s-2.55-.24-3.83-.32S34.1,42,32.83,42s-2.57,0-3.85.06-2.52.19-3.77.32a18.17,18.17,0,0,0-3.64.71c-1.16.36-2.25.88-3.41,1.26l-1,.26a18,18,0,0,0-1.77.52l-1.75.64c-.57.21-1.12.45-1.67.69l-1.64.76h0c-.49.22-1,.42-1.47.69a2.11,2.11,0,0,0-.5.36H8.3a.64.64,0,0,0-.4.59,1,1,0,0,0,.19.56c.3.46,1.92,3.39,2.22,3.84l0,0,.05.07.14.22.11.18.24.34.5.75v0l.27.43,0-.05c.17.26.32.53.51.78s.33.41.48.64l.42.65,0-.07a3,3,0,0,0,.19.3.8.8,0,0,0,.57.34h.12a2.19,2.19,0,0,0,.83-.46l-.07,0c.35-.22.69-.46,1-.71s.59-.42.89-.62a16.34,16.34,0,0,1,1.74-1,22.71,22.71,0,0,1,2.67-1l1.2-.37c1.24-.37,2-.64,3.29-1,.6-.17,1.21-.31,1.83-.46s1.2-.29,1.81-.4a34.81,34.81,0,0,1,3.82-.39h0c1-.05,1.91-.06,2.87,0s1.87.08,2.8.14h-.08a47.16,47.16,0,0,1,5.44.77h0A27.5,27.5,0,0,1,47,53h0a16.1,16.1,0,0,1,1.67.66h0l.06,0-.06,0c.35.19.69.39,1,.61.55.38,1,.83,1.59,1.21.26.18.5.38.75.57s.36.27.53.41a.86.86,0,0,0,.14.13h0a.3.3,0,0,1,.12-.13l.15-.09.09-.05h0l.07,0h0a2.62,2.62,0,0,0,.32-.23h0l.14-.11h0l.15-.12.07-.06.06-.05.65-.49c.4-.3.79-.63,1.17-1s.85-.7,1.26-1.06,1.27-1.41,1.65-1.74h0a.67.67,0,0,0,.35-.55A.69.69,0,0,0,59,50.61Z"/><path class="cls-1" d="M13.32,55.38s0,.09,0,.14l-.12-.17S13.29,55.38,13.32,55.38Z"/><path class="cls-1" d="M57.9,63.15a.65.65,0,0,1-.15-.65l0-.14a2.51,2.51,0,0,0,0-.27v.08a13.87,13.87,0,0,0,.06-1.44l0-.24c-.05-.23-.11-.46-.18-.68s-.1-.27-.16-.4l-.16-.29-.32-.4a2.53,2.53,0,0,0-.36-.37h0a5,5,0,0,0-.5-.42l-.12-.07-.12,0-.31-.08-.46,0h-.4l-.11.05a4.94,4.94,0,0,1-1.22.6,3,3,0,0,1-.73.06,3.23,3.23,0,0,1-.93-.15,2.63,2.63,0,0,1-.73-.41,2.48,2.48,0,0,1-.63-.7c-.14-.22-.26-.45-.39-.68a.91.91,0,0,1-.13-.56.63.63,0,0,1,1.26,0c.11.21.22.41.34.6l.12.16,0,0a1.92,1.92,0,0,0,.22.18l.19.11.14.06.11,0,.25,0H53l.16,0h0l.08,0,.47-.26a.64.64,0,0,1,0-.43l.12-.08a3.88,3.88,0,0,0,.31-.26,1.42,1.42,0,0,0,.13-.12.63.63,0,0,0,.12-.11l0,0c.29-.22.57-.47.85-.71,0,0,0,0,0,0,.27-.24.55-.48.84-.69a6.26,6.26,0,0,1,.55-.34,1.51,1.51,0,0,1,.9-.24,2.1,2.1,0,0,1,.78.25,3.24,3.24,0,0,1,.53.45l.39.35a3.72,3.72,0,0,1,.46.51,5.13,5.13,0,0,1,.45.91l0-.07c.06.13.13.27.19.41a3.29,3.29,0,0,1,.16.44,7.3,7.3,0,0,1,.34,1.19c0,.17,0,.35.05.52s0,.33.08.5A8.17,8.17,0,0,1,61,60.4c0,.28.07.56.09.85a4.17,4.17,0,0,1,0,.5.77.77,0,0,1-.29.56.61.61,0,0,1-.61.08.72.72,0,0,1-.41-.64c0-.1,0-.2,0-.3s0-.31-.09-.46-.08-.4-.13-.6a.5.5,0,0,0-.05-.13c0,.29,0,.59-.07.88A4.19,4.19,0,0,1,59,62.88a1,1,0,0,1-.34.38.8.8,0,0,1-.36.07A.62.62,0,0,1,57.9,63.15Z"/><path class="cls-1" d="M53.31,58a.64.64,0,0,1-.53-.71.71.71,0,0,1,.31-.48l.1-.05c.14-.07.27-.15.4-.23l.54-.24.22-.12-.07,0A1.7,1.7,0,0,0,54.5,56a2.73,2.73,0,0,1,.25-.23.6.6,0,0,1,.44-.17.67.67,0,0,1,.44.18.63.63,0,0,1,0,.89l-.35.31c-.12.09-.24.18-.37.26s-.52.24-.78.36h0l-.26.13a.67.67,0,0,1-.52.22Z"/><path class="cls-2" d="M23.8,50.65a2.18,2.18,0,0,1-1.13-1.71L21.92,45l1.49-.29.78,4.08a1.25,1.25,0,0,0,.54.9,1.85,1.85,0,0,0,2.09-.4,1.28,1.28,0,0,0,.18-1l-.78-4.08,1.49-.28.74,3.9a2.14,2.14,0,0,1-.43,2,3.59,3.59,0,0,1-2,1A3.59,3.59,0,0,1,23.8,50.65Z"/><path class="cls-2" d="M34.9,48.88a.68.68,0,0,0,.35-.61.64.64,0,0,0-.14-.42,1.41,1.41,0,0,0-.52-.33,7,7,0,0,0-1.06-.32,5.17,5.17,0,0,1-1.77-.71,1.41,1.41,0,0,1-.23-2.09,2.25,2.25,0,0,1,1-.62,3.83,3.83,0,0,1,1.33-.22,3.46,3.46,0,0,1,2,.49,1.8,1.8,0,0,1,.8,1.46H35.19a.92.92,0,0,0-.44-.75,1.62,1.62,0,0,0-1-.24,1.46,1.46,0,0,0-.84.22.64.64,0,0,0-.34.54.59.59,0,0,0,.23.46,1.87,1.87,0,0,0,.6.3c.25.09.65.2,1.2.34a4.59,4.59,0,0,1,1.59.7,1.33,1.33,0,0,1,.53,1.09,1.5,1.5,0,0,1-.34,1,2.32,2.32,0,0,1-1,.68,4.45,4.45,0,0,1-1.48.25,3.67,3.67,0,0,1-2.08-.54A1.88,1.88,0,0,1,31,48h1.51a1.1,1.1,0,0,0,.45.83,1.7,1.7,0,0,0,1,.27A1.75,1.75,0,0,0,34.9,48.88Z"/><path class="cls-2" d="M42.23,44.3l1.61.3,1.59,6.75-1.64-.3-.28-1.58L40.78,49,40,50.33,38.31,50Zm1.12,4.15-.52-2.9L41.3,48.07Z"/></svg>