<svg id="Layer_1" data-name="Layer 1" xmlns="http://www.w3.org/2000/svg" viewBox="0 0 65 66"><defs><style>.cls-1{fill:#f0f1ec;}.cls-2{font-size:6px;fill:#3b0d17;font-family:TranscriptPro-Medium, Transcript Pro;font-weight:500;letter-spacing:0.13em;}.cls-3{letter-spacing:0.11em;}.cls-4{letter-spacing:0.13em;}.cls-5{letter-spacing:0.12em;}.cls-6{letter-spacing:0.13em;}.cls-7{letter-spacing:0.1em;}</style></defs><path class="cls-1" d="M56.71,34.6a1.36,1.36,0,0,1-.27-1.06c0-.28,0-.56,0-.83l0-1c0-.35,0-.7,0-1.06,0-.7,0-1.39-.11-2.09,0-.32-.11-.63-.17-1s-.12-.64-.2-1c0,0,0,0,0,.06l0-.08h0c-.07-.26-.15-.52-.22-.77s-.18-.61-.28-.91-.2-.57-.29-.87-.17-.53-.26-.79a14.48,14.48,0,0,0-.71-1.49c-.27-.51-.52-1-.79-1.54l0,.08L53,19.65,52.67,19a.59.59,0,0,1,0,.08,8.15,8.15,0,0,0-.49-.8c-.33-.42-.69-.83-1-1.24s-.73-.81-1.1-1.2a.1.1,0,0,0,0,.05,4.36,4.36,0,0,0-.46-.41h0A7.26,7.26,0,0,1,49,15c-.23-.2-.44-.43-.67-.64-.42-.41-.84-.82-1.3-1.19s-.87-.67-1.31-1a11,11,0,0,0-1.17-.74h0l-.06,0,0,0A17.27,17.27,0,0,0,43,10.66c-.47-.19-1-.34-1.44-.51-.25-.08-.49-.18-.74-.28l-.93-.37.05,0a8.45,8.45,0,0,0-.85-.28c-.33-.08-.66-.13-1-.19s-.79-.2-1.2-.26H37l-1.23-.15h.09l-.8-.1c-.25,0-.51,0-.76-.05-.51,0-1-.1-1.51-.11a8.57,8.57,0,0,0-1,.07l-.86.11c-.31,0-.62,0-.94.07s-.69.09-1,.12l-1.11.1h0l-.4.08-1.17.29-1,.23h0c-.42.11-.82.27-1.23.41a10.93,10.93,0,0,1-1.12.31,13.87,13.87,0,0,0-1.41.5l.08,0a9.9,9.9,0,0,0-.93.44h0c-.21.11-.4.23-.6.35a6.41,6.41,0,0,0-.62.38l.07-.05c-.41.3-.8.62-1.21.91s-.71.44-1.05.69l.08-.05a5,5,0,0,0-.5.42l-.81.77-.82.74a11.76,11.76,0,0,0-1,1.13h0l-.86,1.07.06-.07a27.57,27.57,0,0,0-2.06,3h0l-.57.95v0l0,.06v0h0c-.24.42-.5.84-.75,1.27h0l0,.06,0,0a14.13,14.13,0,0,0-.86,1.69c-.25.59-.47,1.19-.7,1.78a7.71,7.71,0,0,0-.3.8c-.08.26-.16.53-.23.79l0-.06c-.09.32-.17.63-.23.95s-.11.59-.18.89-.23.89-.3,1.34a1.8,1.8,0,0,0,0,.22c0,.57,0,1.13,0,1.7,0,.27,0,.53,0,.8a1.29,1.29,0,0,1-.1.48.67.67,0,0,1-1.28-.4.56.56,0,0,1,0-.12c0-.1,0-.2,0-.3V31.27a3.62,3.62,0,0,1,0-.57c0-.21.07-.41.11-.61.09-.39.2-.78.28-1.18s.19-1,.33-1.49A12.32,12.32,0,0,1,7,26l.63-1.59a12.43,12.43,0,0,1,.77-1.7c.32-.59.67-1.16,1-1.74l0,.08.69-1.17a.56.56,0,0,1-.05.08c.41-.7.85-1.37,1.31-2s1-1.29,1.49-1.93h0l.05-.07,0,0a15.23,15.23,0,0,1,1.32-1.57c.46-.46,1-.86,1.42-1.31l-.06.07c.21-.21.41-.41.63-.6a4.37,4.37,0,0,1,.59-.45l.54-.35c.21-.13.41-.28.61-.43h0l.57-.44a6.07,6.07,0,0,1,.68-.44c.46-.27.92-.55,1.4-.78s.77-.3,1.16-.45c.17-.07.35-.14.54-.2s.4-.1.6-.15l.72-.21.89-.32c.61-.19,1.25-.3,1.87-.45a12.08,12.08,0,0,1,1.42-.32c.49,0,1-.07,1.47-.13.33,0,.66-.1,1-.12s.53,0,.79-.06h-.08l1-.13a9.26,9.26,0,0,1,1.29,0l.76.06c.26,0,.53,0,.8.06s.53,0,.8.08l.85.11h0c.37.05.74.08,1.11.16l1,.23c.33.06.66.12,1,.21a6.82,6.82,0,0,1,.9.31h0c.59.24,1.19.47,1.8.68s1.11.38,1.64.63a13.94,13.94,0,0,1,1.53.81c.26.16.53.31.79.48l.71.53,1,.77q.41.33.78.69l.67.64c.22.22.44.44.68.64s.41.3.6.47a7.8,7.8,0,0,1,.58.57c.34.35.67.72,1,1.09s.68.77,1,1.18a11.78,11.78,0,0,1,1,1.64c.17.3.34.59.5.89l.39.77c.27.54.57,1.06.8,1.62.12.29.23.57.33.87s.16.54.25.81c.22.59.38,1.19.56,1.79s.29,1.27.42,1.9a10.59,10.59,0,0,1,.2,1.87c0,.39,0,.79,0,1.19s0,.72,0,1.08,0,.76,0,1.15,0,.54,0,.81a.06.06,0,0,1,0,0,.68.68,0,0,1-.14.64.7.7,0,0,1-.51.22A.65.65,0,0,1,56.71,34.6Z"/><path class="cls-1" d="M15.09,35.67c-.46,0-.91-.05-1.37-.05h.09c-.4,0-.79,0-1.19,0s-.85-.06-1.28-.1-.86,0-1.3-.06-.83-.06-1.25-.06h0c-.65,0-1.29,0-1.93.08-.3,0-.6,0-.9,0H5.36a.69.69,0,0,1-.71-.64v0a.67.67,0,0,1,.63-.67h0c.45,0,.9,0,1.35,0,.3,0,.61-.05.91-.07s.6,0,.89,0c.63,0,1.25,0,1.88.08l.91,0,1,.09,1,0h-.09c.39,0,.78,0,1.17,0l1.17,0h-.09c.61,0,1.22,0,1.83,0l1.87,0,3.78,0c.66,0,1.33-.06,2-.09l2-.06c.6,0,1.2,0,1.8,0s1.3,0,2,0c1.26,0,2.52,0,3.78,0,.66,0,1.32,0,2,.06s1.31,0,2,0h.2c1.25,0,2.49,0,3.74,0,.64,0,1.29,0,1.93,0s1.29,0,1.93,0h2.55l.86-.06c.59-.05,1.17-.05,1.75-.05s1.06.05,1.59.06H54.3c.57,0,1.14,0,1.72-.07s1,0,1.57,0l1,0a.67.67,0,0,1,.62.72.69.69,0,0,1-.72.62l-.5,0H56.48c-.64,0-1.28.08-1.93.09h-1.7c-.6,0-1.2,0-1.8,0h.07c-.6,0-1.2,0-1.8.06s-1.26.06-1.89.06-1.28,0-1.92,0l-1.86-.05h.08c-1.26,0-2.53,0-3.79,0s-2.65,0-4-.07c-.4,0-.8,0-1.21,0h.09c-1.26,0-2.52,0-3.78,0-.65,0-1.3,0-1.94,0H27.29c-1.31,0-2.61.08-3.91.15-.43,0-.87,0-1.31,0h-.58l-2,0c-1,0-2,.07-3,.07H15.09Z"/><path class="cls-1" d="M4.26,44.54c0-.16,0-.32,0-.49s0-.37,0-.56c0-.43.08-.87.1-1.31s0-1,0-1.53,0-1,.06-1.58v0c0-.68,0-1.35,0-2a19.09,19.09,0,0,0-.06-2v0a.53.53,0,0,1,0-.22.68.68,0,0,1,1-.55.65.65,0,0,1,.25.21.72.72,0,0,1,.15.47c0,.1,0,.2,0,.3,0,.28,0,.57,0,.86,0,.59,0,1.18,0,1.77s0,1.28,0,1.92-.06,1.32-.06,2c0,.32,0,.65,0,1s-.06.6-.07.89,0,.47,0,.69a.68.68,0,0,1-.54.77H4.93A.67.67,0,0,1,4.26,44.54Z"/><path class="cls-1" d="M58.17,45.52c-.51,0-1-.06-1.53-.09-.83-.06-1.66-.09-2.49-.1h.09c-1.33,0-2.65,0-4,0s-2.7,0-4,0c-.8,0-1.59-.07-2.39-.12s-1.6-.07-2.41-.08h-2c-.64,0-1.29,0-1.93,0h.08c-.62,0-1.25,0-1.87-.06S34.55,45,34,45h0c-1.29,0-2.57,0-3.86,0h-2c-.65,0-1.3-.06-2-.08h-.07L24,44.9c-.65,0-1.3,0-1.95,0L20.16,45c-.65,0-1.3,0-1.95,0l-2,.08c-.64,0-1.28.09-1.93.12s-1.3.06-2,.07-1.33,0-2,0H9.06c-.43,0-.86,0-1.29,0a17.58,17.58,0,0,0-2,.09h.07l-.32,0h0a.59.59,0,0,1-.23.05.67.67,0,0,1-.16-1.32A3.13,3.13,0,0,1,5.74,44c.41,0,.82-.06,1.22-.07H8.24c.4,0,.8,0,1.2,0H9.36c1.31,0,2.62,0,3.94,0l1.85-.09,2-.11c1.26-.05,2.53-.05,3.79-.1s2.7,0,4.05-.06c.58,0,1.17,0,1.76,0s1.07.05,1.61.06h-.08c1.28,0,2.56,0,3.84,0h2c.63,0,1.26.06,1.88.1l1.31,0h0l2.22,0h1.8l1.85.05c.59,0,1.18.07,1.77.11s1.19,0,1.78,0h0c1.17,0,2.34,0,3.51,0,1.47,0,2.94,0,4.4,0,.77,0,1.53,0,2.29.1.45,0,.91.08,1.36.08a.67.67,0,0,1,.62.72.68.68,0,0,1-.71.62Z"/><path class="cls-1" d="M57.77,44.45c0-.62-.06-1.25-.06-1.87,0-.47,0-.93,0-1.39s0-.8,0-1.2h0c0-.59,0-1.18,0-1.77s.07-1.09.08-1.63v.08c0-.34,0-.68,0-1v-.48c0-.07,0-.14,0-.2a.18.18,0,0,1,0-.06.68.68,0,0,1,.63-.71.69.69,0,0,1,.71.64h0s0-.06,0-.09h0s0-.06,0-.08h0a.45.45,0,0,1,0,.28v.71c0,.39,0,.78,0,1.17,0,.75-.09,1.49-.1,2.23V39c0,.4,0,.8,0,1.21s0,.72,0,1.08V41.2c0,1.06,0,2.12.06,3.18a.68.68,0,0,1-.63.7h0A.68.68,0,0,1,57.77,44.45Z"/><path class="cls-1" d="M54.72,47.87a10,10,0,0,1,0-1.34V45.3a1.3,1.3,0,0,1,0-.34A.67.67,0,0,1,56,45V45a.58.58,0,0,1,0,.32s0,0,0,.06v1.11a10,10,0,0,0,0,1.1h0a.68.68,0,0,1-.53.78h-.12A.68.68,0,0,1,54.72,47.87Z"/><path class="cls-1" d="M55.33,48.56a.67.67,0,0,1-.3-.89,7,7,0,0,1,1-1.17c.23-.25.45-.51.68-.75s.54-.52.8-.77.27-.29.39-.43a.66.66,0,0,1,.61-.53h.18a.68.68,0,0,1,.41.23.72.72,0,0,1,.16.6,1.64,1.64,0,0,1-.39.61,9.07,9.07,0,0,1-1,1c-.31.31-.59.64-.88,1s-.5.49-.72.77l-.09.14v0a.7.7,0,0,1-.59.34A.65.65,0,0,1,55.33,48.56Z"/><path class="cls-1" d="M61.63,39c-.1,0-.2-.05-.3-.06l-.38,0c-.13,0-.25-.05-.38-.07h-.09l-.44,0-.38,0h0a.53.53,0,0,1-.3.09A.67.67,0,0,1,59,37.6a1.74,1.74,0,0,1,.71-.15l.71,0a3.45,3.45,0,0,1,.71.09l.42,0,.33.06a.68.68,0,0,1,.52.8.67.67,0,0,1-.67.53Z"/><path class="cls-1" d="M61.51,48.27l-.12-.21h0l0,0h0l0,0h0l-.27-.48,0,.07c-.14-.25-.26-.51-.38-.78s-.27-.59-.4-.89-.13-.33-.21-.5a4.81,4.81,0,0,0-.25-.51c-.09-.2-.17-.39-.25-.6a3.38,3.38,0,0,0-.13-.42l0,.08a1.33,1.33,0,0,1-.13-.51c0-.14,0-.28,0-.41A4.27,4.27,0,0,1,59.6,42a4.78,4.78,0,0,1,.26-.62c.14-.28.26-.55.38-.83s.24-.56.37-.83.28-.5.42-.75l.37-.62h0v0a.68.68,0,0,1,.69-.46.66.66,0,0,1,.62.71,1.5,1.5,0,0,1-.29.66v0l-.34.59,0,0A11.57,11.57,0,0,0,61.51,41c-.1.23-.19.45-.3.68S61,42,61,42.18a1.55,1.55,0,0,0-.08.23c0,.12,0,.24-.07.36,0,0,0-.05,0-.08a5.36,5.36,0,0,0-.05.7h0c.08.22.14.44.22.66s.25.5.37.76.22.55.35.82.19.43.28.64.17.39.27.58c0,0,0,0,0-.05l.21.39,0-.08.24.42v0l0,0a.67.67,0,0,1-.2.92.7.7,0,0,1-.37.11A.65.65,0,0,1,61.51,48.27Z"/><path class="cls-1" d="M55.74,48.76a.67.67,0,0,1-.33-.83l0,0a.68.68,0,0,1,.78-.49l.07,0,1,0c.42,0,.84,0,1.26,0a9.7,9.7,0,0,1,1.32,0c.37,0,.74,0,1.12,0h.57c.18,0,.36,0,.55,0a.68.68,0,0,1,.62.72.69.69,0,0,1-.72.62c-.15,0-.29,0-.43,0h-.84c-.42,0-.83,0-1.25,0h0c-.36,0-.72,0-1.09,0s-.76,0-1.14,0l-.92,0h-.07A.85.85,0,0,1,55.74,48.76Z"/><path class="cls-1" d="M7.58,48.45a2.65,2.65,0,0,1-.42-.4l.06.07c-.24-.25-.46-.51-.7-.76s-.58-.63-.88-.94-.56-.61-.83-.94A1.94,1.94,0,0,1,4.48,45a.77.77,0,0,1,0-.56h0a.67.67,0,0,1,1.3.17c.34.43.72.83,1.1,1.23l.54.58c0-.15,0-.31,0-.46a3.91,3.91,0,0,1,0-.48.76.76,0,0,0,0-.15v0a.67.67,0,0,1,1.34-.07,3.17,3.17,0,0,1,0,.53,2.83,2.83,0,0,0,0,.29v.84c0,.31,0,.63,0,.94a.82.82,0,0,1-.42.66.65.65,0,0,1-.29.07A.82.82,0,0,1,7.58,48.45Z"/><path class="cls-1" d="M2.08,49a.84.84,0,0,1-.52-.58,1.8,1.8,0,0,1,.21-1.22c.11-.21.21-.43.3-.64.17-.42.3-.85.43-1.29.06-.19.14-.38.21-.57s.13-.23.18-.35l0,0a.5.5,0,0,1,0-.12.61.61,0,0,0,0-.14h0s0-.09,0-.14c-.18-.44-.41-.86-.61-1.3s-.36-1-.54-1.42-.45-1-.69-1.55A1,1,0,0,1,1,39a2.85,2.85,0,0,1,.11-.39.76.76,0,0,1,.65-.42h.39c.4,0,.8-.06,1.2-.07h.82a1.75,1.75,0,0,1,.4,0,.67.67,0,0,1-.27,1.31H3.91c-.33,0-.66,0-1,0l-.44,0c.11.23.2.46.3.69.24.52.42,1.06.63,1.59.14.36.32.71.48,1.06a3.33,3.33,0,0,1,.38,1,2.17,2.17,0,0,1,0,.72,4.8,4.8,0,0,1-.33.78.2.2,0,0,1,0-.08c-.18.42-.28.86-.43,1.29A12.07,12.07,0,0,1,3,47.67l.8,0,.88-.06c.31,0,.62,0,.94,0h0a6.89,6.89,0,0,1,1-.09h1a4.1,4.1,0,0,1,.7,0,.7.7,0,0,1,.56.86.67.67,0,0,1-.79.52.49.49,0,0,1-.17-.06H7.19c-.34,0-.68,0-1,0s-.51.07-.77.09l-.84,0c-.24,0-.49,0-.73,0l-.73,0c-.19,0-.39,0-.58,0H2.4A1.12,1.12,0,0,1,2.08,49Z"/><path class="cls-1" d="M32,59.36c-.64,0-1.28,0-1.93-.07s-1.28-.14-1.92-.21a18.26,18.26,0,0,1-2-.23q-1-.21-2-.48c-.65-.18-1.31-.38-1.95-.59s-1.35-.55-2-.84c-.34-.14-.68-.26-1-.43A6.85,6.85,0,0,1,18.3,56c-.59-.41-1.16-.86-1.72-1.31,0,0,0,0,0,0-.55-.43-1.09-.88-1.63-1.32s-1-.89-1.47-1.32-1-.83-1.42-1.29c-.23-.24-.45-.49-.67-.74l-.63-.66a7.87,7.87,0,0,1-.94-1.52l0,.05c-.32-.56-.67-1.1-1-1.68a3.81,3.81,0,0,1-.28-.62,1.13,1.13,0,0,1-.05-.41.67.67,0,0,1,1.34-.07s0,.06,0,.1a7.46,7.46,0,0,0,.35.69c.18.33.39.65.58,1s.37.69.56,1a3,3,0,0,0,.24.38l-.05-.07a7.07,7.07,0,0,0,.68.77c.25.27.49.55.75.81.59.6,1.25,1.13,1.87,1.7s1.31,1.17,2,1.71h0l.05,0h0c.4.31.79.61,1.17.92l-.07,0a17.79,17.79,0,0,0,1.54,1.08,6.63,6.63,0,0,0,.6.29l.91.38.84.37a26.12,26.12,0,0,0,2.88.93l-.07,0c.37.1.75.18,1.12.27a11.5,11.5,0,0,0,1.14.23h-.09c.78.09,1.57.14,2.34.24l1.15.12c.41,0,.81,0,1.21.05h1.55A14.87,14.87,0,0,0,34.77,58a16.41,16.41,0,0,0,1.7-.32c.6-.12,1.2-.21,1.79-.35h0c.4-.11.81-.23,1.22-.33l0,0c.42-.11.83-.25,1.24-.39s.82-.26,1.23-.42.75-.35,1.14-.51a12.17,12.17,0,0,0,1.17-.51l-.08,0c.36-.2.71-.43,1.06-.65s.69-.42,1-.66c.16-.12.3-.26.46-.39s.39-.3.59-.45h0l.5-.37-.07,0c.19-.14.37-.28.55-.44s.45-.54.69-.8.54-.5.81-.75a8.8,8.8,0,0,0,.65-.72l0,0,0,0,0,0,0,0c.19-.26.38-.51.58-.76l.54-.65c.13-.16.25-.33.38-.5s.3-.49.46-.73.32-.45.48-.67A6.79,6.79,0,0,0,53.3,46a5.59,5.59,0,0,0,.3-.6,4.17,4.17,0,0,1,.43-.69.69.69,0,0,1,.94-.17.67.67,0,0,1,.17.93c-.09.12-.18.24-.26.37s-.16.35-.25.53-.21.39-.33.58c-.23.38-.51.73-.76,1.1-.14.21-.27.42-.4.63s-.23.33-.34.48c-.29.38-.61.74-.91,1.11l.06-.08c-.15.19-.28.39-.43.58s-.32.39-.49.58c-.31.34-.66.64-1,1l-.33.37c-.11.13-.21.27-.33.4a6.27,6.27,0,0,1-.88.74h0l-.07.05h0l-.53.4h0l-.05,0,0,0c-.24.19-.46.4-.7.58s-.59.43-.9.62l-.93.57a7.37,7.37,0,0,1-.87.48c-.3.14-.61.25-.91.38s-.62.28-.92.42-.62.23-.93.33l-.92.31c-.37.13-.74.23-1.12.33h0c-.57.15-1.12.32-1.7.42s-1.33.26-2,.39a10.5,10.5,0,0,1-1.93.24H32Z"/><path class="cls-1" d="M3,43.2a3.62,3.62,0,0,1-.09-1A.89.89,0,0,1,2.8,42a1.65,1.65,0,0,1-.07-.32c0-.22-.07-.43-.12-.65v0c-.09-.33-.19-.66-.31-1a2.28,2.28,0,0,1-.15-.44.73.73,0,0,1,.11-.56.68.68,0,0,1,.86-.23l.14.1a.35.35,0,0,1,.14-.06.67.67,0,0,1,.77.27,1.35,1.35,0,0,1,.11.72c0,.22,0,.45,0,.68,0,.38,0,.75,0,1.13v0a8.68,8.68,0,0,0,0,1.14v0a.68.68,0,0,1-.44.81.69.69,0,0,1-.2,0A.68.68,0,0,1,3,43.2Z"/><path class="cls-1" d="M2.79,48.32a1.1,1.1,0,0,1,0-.74c0-.14,0-.28.07-.42s0-.13,0-.2v.09c0-.29-.1-.57-.12-.86a1.13,1.13,0,0,1,.1-.57A.72.72,0,0,1,3,45.4a.67.67,0,0,1,.37-.48h0a.68.68,0,0,1,.73.11l.33.29c.17.14.34.27.49.42a7,7,0,0,1,.64.9c.16.21.32.42.47.64l.12.18a.81.81,0,0,1,.11.71.72.72,0,0,1-.23.31.7.7,0,0,1-.36.19A.77.77,0,0,1,5,48.44,5.22,5.22,0,0,1,4.53,48c-.12-.13-.23-.27-.35-.41,0,.5-.16,1.13-.75,1.16h0A.67.67,0,0,1,2.79,48.32Z"/><path class="cls-1" d="M5.47,35.76a.67.67,0,0,1,.63-.7.68.68,0,0,1,.71.63.67.67,0,0,1-.63.7A.68.68,0,0,1,5.47,35.76Z"/><path class="cls-1" d="M5.07,35.88a.68.68,0,0,1,.63-.71.69.69,0,0,1,.71.64.67.67,0,0,1-1.34.07Z"/><path class="cls-1" d="M12.66,31.85,13,31.7a3.73,3.73,0,0,0,.39-.25,9,9,0,0,0,.84-.69h0l.27-.29,0,0h0v0h0v0h-.33l-.09,0-.1,0-.11.05-.12.08-.21.18c-.16.16-.31.33-.45.5l-.25.36-.09.18A.78.78,0,0,1,12.66,31.85Zm-.48,1.2a.64.64,0,0,1-.27.07.6.6,0,0,1-.34.11.79.79,0,0,1-.45-.13,2.39,2.39,0,0,1-.36-.35,8.35,8.35,0,0,1-.65-.82,4.12,4.12,0,0,1-.84-1.84A1.77,1.77,0,0,1,9.39,29a.91.91,0,0,1,.63-.48,1.08,1.08,0,0,1,1,.36,3.29,3.29,0,0,1,.64,1,5.17,5.17,0,0,1,.28.64l.2-.25a4.9,4.9,0,0,1,.75-.76,2.52,2.52,0,0,1,.72-.39A2,2,0,0,1,14.68,29a1.31,1.31,0,0,1,.89.59,1.41,1.41,0,0,1,.19,1.18,2.84,2.84,0,0,1-.94,1.2c-.28.24-.56.46-.86.67a5.71,5.71,0,0,1-.88.47l-.13.06a.67.67,0,0,1-.28.06A.7.7,0,0,1,12.18,33.05Z"/><path class="cls-1" d="M13.57,26.85l.87-.44h0l.06,0-.05,0,.29-.18.13-.12A.3.3,0,0,0,15,26l.08-.12h0l0,0s0-.05,0-.08a.19.19,0,0,0,0-.07.09.09,0,0,0,0-.05.22.22,0,0,0,0-.08v-.09a.64.64,0,0,1,0-.07l-.12,0-.21.11a2.9,2.9,0,0,0-.29.19,3.11,3.11,0,0,0-.28.23c-.12.12-.23.25-.34.38l-.21.31Zm-1.69,2.33a.85.85,0,0,1-.33-.32,3.24,3.24,0,0,1-.28-.47,9.55,9.55,0,0,1-.41-1,3.9,3.9,0,0,1-.16-2.52c.18-.51.49-1,1.08-1.06a1.11,1.11,0,0,1,.9.45,2.12,2.12,0,0,1,.39.85l0,.13a5,5,0,0,1,.91-.72,2,2,0,0,1,1.37-.35,1.27,1.27,0,0,1,.87.71,2.12,2.12,0,0,1,.18.89,1.87,1.87,0,0,1-.39,1,2.62,2.62,0,0,1-.9.75c-.34.19-.7.35-1.05.53a8.55,8.55,0,0,0-.91.56l0,0a.79.79,0,0,1-.34.15l0,.07a.64.64,0,0,1-.6.36A.8.8,0,0,1,11.88,29.18Z"/><path class="cls-1" d="M14.56,20.28c0,.74,0,.66.06.58s0-.2,0-.3a2.7,2.7,0,0,0,0-.28v0a.76.76,0,0,0,0,.15c0,.16,0,.32,0,.48a.77.77,0,0,0,0,.15ZM16.09,22c.29-.08.58-.15.87-.26l.22-.1.16-.1a.52.52,0,0,0,.11-.1l.05-.05.06-.08a.3.3,0,0,1,0-.08l0-.09a.36.36,0,0,1,0-.1s0-.08,0-.12a1.09,1.09,0,0,0,0-.18l0-.15,0-.11h0l-.15.07-.2.12-.29.25c-.18.19-.35.39-.52.6l.06-.07C16.35,21.62,16.22,21.81,16.09,22ZM15,23.57l-.21.05a.64.64,0,0,1-.6-.32h-.05a.87.87,0,0,1-.62-.77c-.07-.32-.13-.65-.19-1a7.09,7.09,0,0,1-.11-1.13,2.09,2.09,0,0,1,.23-.92,1.6,1.6,0,0,1,.85-.75,1,1,0,0,1,.54,0,1.21,1.21,0,0,1,.47.23,1.77,1.77,0,0,1,.55.93c0,.07,0,.13.05.2v0a5.82,5.82,0,0,1,.53-.46,2.43,2.43,0,0,1,1.1-.49,1.18,1.18,0,0,1,1,.36,1.89,1.89,0,0,1,.43.9,2.21,2.21,0,0,1-.45,1.9,3.28,3.28,0,0,1-1.65.9c-.34.09-.68.19-1,.31l-.36.13a.78.78,0,0,1-.21,0A.64.64,0,0,1,15,23.57Z"/><path class="cls-1" d="M19,15.07c-.65,1-.5.78-.35.6s.17-.25.25-.39l.1-.21a1.59,1.59,0,0,0,.07-.2l0-.15v-.1l-.05,0a1.54,1.54,0,0,0-.19.17,2.57,2.57,0,0,0-.21.24,2.14,2.14,0,0,0-.13.19l-.12.24c-.06.14-.1.28-.15.42l-.06.29Zm3.11.95c-1.82.55-1.55.5-1.29.44h-.05l.07,0h0c.3-.07.59-.16.89-.26l.42-.18-.05,0,.05,0h0l.15-.09.07-.06h-.13c-.23,0-.46.08-.69.13s-.54.17-.8.27a6.11,6.11,0,0,0-.58.27l-.15.1ZM17.58,18.1l-.11,0a.65.65,0,0,1-.69-.3.81.81,0,0,1-.09-.55c0-.35.1-.7.16-1.05a8.6,8.6,0,0,1,.25-1,3.49,3.49,0,0,1,1-1.49,1.49,1.49,0,0,1,1.64-.41,1.42,1.42,0,0,1,.68.84,1.67,1.67,0,0,1,0,.77c.18-.07.37-.13.55-.18a7.43,7.43,0,0,1,1-.23,2.16,2.16,0,0,1,.84,0,1.27,1.27,0,0,1,.54.28,1.42,1.42,0,0,1,.36.57,1.1,1.1,0,0,1,0,.51,1.36,1.36,0,0,1-.16.48,2.17,2.17,0,0,1-.95.85,6.32,6.32,0,0,1-1.13.4,11.11,11.11,0,0,1-1.52.33,5.4,5.4,0,0,1-1.79.12h0a.67.67,0,0,1-.34.09A.61.61,0,0,1,17.58,18.1Z"/><path class="cls-1" d="M52.21,31.45c.16-.09.31-.19.46-.29l.17-.14.24-.27,0-.05.07-.15s0-.07,0-.11a.24.24,0,0,1,0-.08v0c0-.05,0-.09,0-.14l0-.14a.19.19,0,0,0,0-.07l0,0,0,0,0,0-.06-.06h0l-.05,0h.05l-.17,0h0l-.06,0-.08,0-.05,0,0,0,0,0-.06.07-.09.13-.09.19c0,.05,0,.12-.06.18l-.06.25h0c0,.11,0,.21,0,.32S52.2,31.32,52.21,31.45ZM50.77,33.7a1.74,1.74,0,0,1-.52-.32c-.15-.1-.3-.22-.44-.33s-.52-.45-.77-.7a7.47,7.47,0,0,1-.7-.78,3.23,3.23,0,0,1-.56-1,1,1,0,0,1,.15-.93,1,1,0,0,1,.42-.3,1.27,1.27,0,0,1,.58-.06,2.31,2.31,0,0,1,1,.34,5.69,5.69,0,0,1,.52.33,4.62,4.62,0,0,1,.52.46,3.11,3.11,0,0,1,.48-1.16,1.86,1.86,0,0,1,1.76-.77,1.58,1.58,0,0,1,.91.47,1.62,1.62,0,0,1,.43.78,2,2,0,0,1,0,1,2.09,2.09,0,0,1-.45.95,3.47,3.47,0,0,1-.58.57c-.14.11-.28.2-.43.3s-.51.31-.78.45l-.06,0a.56.56,0,0,1-.35.25h0l-.21,0a.72.72,0,0,1-.09.2.69.69,0,0,1-.57.29A.75.75,0,0,1,50.77,33.7Z"/><path class="cls-1" d="M49.47,28.23a6.32,6.32,0,0,1-.64-.52l-.39-.37-.75-.7c-.13-.12-.25-.23-.37-.36a.78.78,0,0,1-.15-.88.89.89,0,0,1,.78-.46,2.63,2.63,0,0,1,1.23.27,4.13,4.13,0,0,1,1,.71l.07-.15a2.87,2.87,0,0,1,.66-.85A1.74,1.74,0,0,1,52,24.46a1.08,1.08,0,0,1,1.3,1.35,2,2,0,0,1-.4.75c-.27.37-.58.7-.87,1.06v0l0,0,0,0,0,0c-.1.14-.2.27-.29.42a.69.69,0,0,1-.86.22h-.17a.62.62,0,0,1-.28.18.67.67,0,0,1-.24,0A1.42,1.42,0,0,1,49.47,28.23Z"/><path class="cls-1" d="M48.39,22.43c.51.44.45.37.39.31l-.18-.17-.21-.14-.2-.1L48,22.27l-.11,0h-.09a7.66,7.66,0,0,0,.7.46l.42.22Zm1.18,2.17a6,6,0,0,1-1-.38,8.68,8.68,0,0,1-.95-.51c-.14-.08-.27-.18-.4-.27a2.92,2.92,0,0,1-.51-.42A1.23,1.23,0,0,1,46.34,22a1.32,1.32,0,0,1,.55-.8,1.72,1.72,0,0,1,1-.27,2.51,2.51,0,0,1,1.19.36,3.77,3.77,0,0,1,.39.26,1.87,1.87,0,0,1,.07-.22,1.08,1.08,0,0,1,.83-.6,1.14,1.14,0,0,1,1,.35,1.7,1.7,0,0,1,.44,1,3,3,0,0,1-.29,1.66.66.66,0,0,1-.77.34.91.91,0,0,1-.11.3.83.83,0,0,1-.3.26.78.78,0,0,1-.33.07A2.35,2.35,0,0,1,49.57,24.6Z"/><path class="cls-1" d="M46.11,18.64l.53,0h0l.14,0s0-.05,0-.08l0,.06a.61.61,0,0,0-.07-.14.86.86,0,0,0-.1-.16L46.37,18l-.17-.14L46,17.73l-.07,0c0,.23,0,.46,0,.68a2.56,2.56,0,0,0,.05.27Zm-.39,1.3a1.26,1.26,0,0,1-.85-.62,2.88,2.88,0,0,1-.26-1.26A3.07,3.07,0,0,1,44.68,17a1,1,0,0,1,.67-.63,1.76,1.76,0,0,1,.39-.06,2.47,2.47,0,0,1,.53.1,1.79,1.79,0,0,1,.32.13.72.72,0,0,1,.33-.29,1.22,1.22,0,0,1,.6-.09,1.46,1.46,0,0,1,.64.2,2.23,2.23,0,0,1,.5.37,2.49,2.49,0,0,1,.36.43,2.58,2.58,0,0,1,.21.48,2.76,2.76,0,0,1,0,1.56.68.68,0,0,1-.85.42.67.67,0,0,1-.44-.73.36.36,0,0,1-.09.08v0h0a.64.64,0,0,1,0,.47.72.72,0,0,1-.59.46,4.81,4.81,0,0,1-.84.1h-.28A2,2,0,0,1,45.72,19.94Z"/><path class="cls-1" d="M33.88,16c-.1-.21-.21-.42-.32-.63v0l0,0,0,0c-.14-.23-.36-.47-.35-.74a.72.72,0,0,1,.43-.69,1.89,1.89,0,0,1,.34-.09h0l.11-.05.31-.21.19-.15c-.36,0-.71-.05-1.07-.12a2.6,2.6,0,0,1-.46-.12.94.94,0,0,1-.51-.49l-.21-.41c-.1.19-.21.37-.32.55v0a1.14,1.14,0,0,1-.46.51,2.11,2.11,0,0,1-.66.15,6.35,6.35,0,0,1-.76,0l.18.21c.09.11.17.22.26.32l.05.05a.63.63,0,0,1,.11.12h0a.68.68,0,0,1,.7.63,3.06,3.06,0,0,1-.26,1l0,.14.26-.19a2.4,2.4,0,0,1,.88-.49,1.09,1.09,0,0,1,.89.28,5.29,5.29,0,0,0,.5.32l0,0Zm.66,1.87c-.23-.13-.47-.24-.7-.36s-.51-.28-.76-.43l-.43-.25-.19-.14h0a14.12,14.12,0,0,1-1.3.88,3.21,3.21,0,0,1-.88.41.72.72,0,0,1-.85-.81,9.94,9.94,0,0,1,.6-2,.72.72,0,0,1-.27-.15,2.21,2.21,0,0,1-.35-.39c-.11-.15-.24-.29-.37-.44s-.53-.45-.78-.69a.8.8,0,0,1-.27-.84.83.83,0,0,1,.61-.51l.3,0,.4,0c.34,0,.68,0,1,0h0l.53,0h.06l.15-.24h0l0,0v0a3.36,3.36,0,0,0,.16-.33,7.19,7.19,0,0,1,.44-1.17.72.72,0,0,1,1-.23.93.93,0,0,1,.34.44c.1.21.19.43.29.65s.26.52.39.77L34,12h0l.88.07a5.34,5.34,0,0,1,1.13.28,1.11,1.11,0,0,1,.6.39.71.71,0,0,1-.08.86A3.14,3.14,0,0,1,36,14c-.3.23-.58.5-.89.73l-.28.18c.12.23.23.47.34.71s.25.57.36.86a1.66,1.66,0,0,1,.17,1.07.71.71,0,0,1-.64.48H35A1,1,0,0,1,34.54,17.87Z"/><path class="cls-1" d="M30.41,15.14a.78.78,0,0,1-.37-.59.69.69,0,0,1,.63-.71.7.7,0,0,1,.54.23.67.67,0,0,1,.13.89.66.66,0,0,1-.56.29A.62.62,0,0,1,30.41,15.14Z"/><path class="cls-1" d="M16.73,47.35c-.28-.06-.56-.14-.83-.22a12.57,12.57,0,0,1-1.59-.58,13.07,13.07,0,0,1-1.26-.71h0a.65.65,0,0,1-.41-.35A.67.67,0,0,1,13,44.6a.63.63,0,0,1,.38-.06l.14,0h0a2.15,2.15,0,0,1,.34.17l.56.33a7.14,7.14,0,0,0,.73.37c.47.19,1,.34,1.45.49l.26.06v-.06a2.17,2.17,0,0,0,0-.36c0-.25-.09-.5-.14-.76A.67.67,0,0,1,17.2,44a.69.69,0,0,1,.78.54,6.64,6.64,0,0,1,.16.87A2.23,2.23,0,0,1,18,46.68a1.16,1.16,0,0,1-.64.63,1,1,0,0,1-.38.06Z"/><path class="cls-1" d="M15.72,45.54a3.28,3.28,0,0,0-.2-.31.68.68,0,0,1-.23-.47v-.09a.7.7,0,0,1,.46-.59.71.71,0,0,1,.74.21,3.71,3.71,0,0,1,.36.52.68.68,0,0,1-.2.93.65.65,0,0,1-.36.1A.67.67,0,0,1,15.72,45.54Z"/><path class="cls-1" d="M18,50.49a4.9,4.9,0,0,1-1.06-.23.85.85,0,0,1-.55-.71,1.05,1.05,0,0,1,.52-.91,2.25,2.25,0,0,1,1-.33,4,4,0,0,1,.6-.05,3.92,3.92,0,0,1,.9.08c-.17-.58-.28-1.32.22-1.74a1.13,1.13,0,0,1,1.43,0A2.42,2.42,0,0,1,21.82,48a6.76,6.76,0,0,1,.11,1.68v.09a.33.33,0,0,1,0,.14.74.74,0,0,1-.24.49,1,1,0,0,1-.61.22c-.34,0-.69,0-1,0H20A13.94,13.94,0,0,1,18,50.49Z"/><path class="cls-1" d="M21.15,53.87a1.23,1.23,0,0,1-.64-.72,1.3,1.3,0,0,1-.08-.51,1.38,1.38,0,0,1,.2-.6,2.35,2.35,0,0,1,1.62-.79,7,7,0,0,1,1-.09l-.06-.11a1.7,1.7,0,0,1-.23-1,1.31,1.31,0,0,1,.31-.65,1.07,1.07,0,0,1,.65-.35,1,1,0,0,1,.8.17,1.87,1.87,0,0,1,.53.52,3.08,3.08,0,0,1,.44,1.08,5,5,0,0,1,.13.76.8.8,0,0,1-.11.51.7.7,0,0,1-.49.85c-.56.24-1.14.47-1.73.67a8.21,8.21,0,0,1-1,.27,3.35,3.35,0,0,1-.79.11A1.37,1.37,0,0,1,21.15,53.87Z"/><path class="cls-1" d="M39.94,55a2.65,2.65,0,0,1-.87-.22.68.68,0,0,1-.33-.83.69.69,0,0,1-.42-.59.44.44,0,0,1,0-.2c0-.32.08-.63.13-.94a.28.28,0,0,0,0,.09c0-.35.07-.69.09-1s0-.66.07-1a4.6,4.6,0,0,1,.23-1,1.24,1.24,0,0,1,.55-.72.93.93,0,0,1,1.05.16,2.28,2.28,0,0,1,.69,1.38,3.62,3.62,0,0,1,0,.73,3.39,3.39,0,0,1-.13.72,7,7,0,0,1-.35,1,4.92,4.92,0,0,1,.77-.11,4,4,0,0,1,.85,0,1.6,1.6,0,0,1,.57.19,1,1,0,0,1,.47.8,1.57,1.57,0,0,1-1.07,1.39,3.72,3.72,0,0,1-1.47.3h-.08A5.29,5.29,0,0,1,39.94,55Z"/><path class="cls-1" d="M43.42,50.1l.12-.08.11-.09,0,0,0-.06a.93.93,0,0,0,.05-.1.42.42,0,0,0,0-.1s0-.08,0-.12a1,1,0,0,0,0-.17,2.44,2.44,0,0,0,0-.27c0-.09,0-.17-.05-.26a2.25,2.25,0,0,0-.08-.24,1.11,1.11,0,0,0-.07-.16.61.61,0,0,0-.07-.1c0,.13,0,.27-.08.41,0,.41-.06.81-.08,1.22C43.41,50,43.42,50,43.42,50.1Zm2.26.89c-.61.16-.55.16-.5.15h0l.29,0h-.08l.17-.05.12-.06.08,0,0,0,.05,0,0,0,0,0h0v0h-.46l-.36.06-.19.06a4.13,4.13,0,0,0-.42.22l.28,0H45Zm-1.39,1.43a2.28,2.28,0,0,1-.81-.27.62.62,0,0,1-.29-.48.73.73,0,0,1-.35-.18h0a.77.77,0,0,1-.48-.18,1.08,1.08,0,0,1-.26-.81c0-.32,0-.66,0-1a6.64,6.64,0,0,1,.29-1.93,1.18,1.18,0,0,1,.66-.74,1.15,1.15,0,0,1,.94.08,2,2,0,0,1,.77.73,3.5,3.5,0,0,1,.44,1.78,5,5,0,0,1,.67,0,2.09,2.09,0,0,1,.64.17A1.34,1.34,0,0,1,47,51.5a2,2,0,0,1-1.23.88,2.69,2.69,0,0,1-.79.11A4.28,4.28,0,0,1,44.29,52.42Z"/><path class="cls-1" d="M46.75,48.12a1.32,1.32,0,0,1-.8-.68c-.08-.17-.14-.34-.21-.51a8.1,8.1,0,0,1-.3-1c-.08-.39-.19-.94.17-1.22h0a.67.67,0,0,1,.65-.13.75.75,0,0,1,.43.44.67.67,0,0,1,0,.37v0c0,.14,0,.28.08.42a6.81,6.81,0,0,0,.26.76,2.44,2.44,0,0,0,.1.24h.17l.14,0,.35-.11.43-.21a16.23,16.23,0,0,0,1.43-.89l.15-.12a.7.7,0,0,1,.21-.72.68.68,0,0,1,.94.08,1.22,1.22,0,0,1,.29.55.87.87,0,0,1-.23.8,4.55,4.55,0,0,1-.8.65c-.28.19-.57.36-.85.53a9.66,9.66,0,0,1-.94.52,3.06,3.06,0,0,1-1.19.29A1.77,1.77,0,0,1,46.75,48.12Z"/><path class="cls-1" d="M47.63,46.18a.93.93,0,0,1-.26-.62,4,4,0,0,1,0-.78.83.83,0,0,1,.35-.63.71.71,0,0,1,.6-.07.64.64,0,0,1,.43.48l.15-.07a.67.67,0,0,1,.57,1.21l-.43.22h0l0,0,0,0h0l-.26.15a2,2,0,0,1-.52.26l-.15,0A.68.68,0,0,1,47.63,46.18Z"/><path class="cls-1" d="M31.3,54.91a9.3,9.3,0,0,1-1.29-.3,3,3,0,0,0-.43-.09,8.82,8.82,0,0,1-1.24-.18c-.41-.1-.8-.25-1.21-.38s-.8-.24-1.18-.4a9.88,9.88,0,0,1-1.08-.64l-.13-.08a.67.67,0,0,1-.68-.63.75.75,0,0,1,.2-.55.71.71,0,0,1,.9-.11l.62.35q.25.18.51.33a1.51,1.51,0,0,0,.22.11c.3.12.62.2.94.31l1,.35.61.12c.3,0,.61.06.92.12s.58.15.87.23h0a5.78,5.78,0,0,0,.7.14.67.67,0,0,1-.15,1.32Z"/><path class="cls-1" d="M32.09,55.66h0l0,0a.83.83,0,0,0,.08-.12l0,.07,0,0,0-.08v-.13s0-.06,0-.09a.49.49,0,0,0,0-.11,2.72,2.72,0,0,0-.11-.25c-.06-.1-.12-.2-.19-.3l-.08-.1,0,0h0l-.1,0h0l.05,0-.07,0-.08.06-.08.07-.09.1-.08.12,0,.08,0,.08v.08h0v0l0,0,0,0,0,0,.06.09.13.11a.57.57,0,0,0,.13.08.61.61,0,0,0,.14.07l.18.06.15,0Zm-1,1.11a2.3,2.3,0,0,1-1.09-1,1.7,1.7,0,0,1,.12-1.66,2.59,2.59,0,0,1,.42-.51.49.49,0,0,1,.2-.18L31,53.3a2.76,2.76,0,0,1,.74-.28,2.85,2.85,0,0,1,.77,0c.24,0,.48,0,.72,0,.43,0,.86.1,1.29.11h-.08a12.56,12.56,0,0,0,1.5-.08l1.12-.16c.32-.06.64-.09,1-.16s.37-.11.56-.18l.08,0a.67.67,0,0,1,.54-.21.69.69,0,0,1,.62.72.91.91,0,0,1-.54.68,4.13,4.13,0,0,1-.79.29c-.45.12-.92.17-1.38.25a13.68,13.68,0,0,1-2.93.22l-.83-.07a3.2,3.2,0,0,1,.17.43,1.74,1.74,0,0,1-.75,2,1.27,1.27,0,0,1-.66.17A2.46,2.46,0,0,1,31.13,56.77Z"/><path class="cls-1" d="M59.54,41.87a.86.86,0,0,1-.12-.42v-.18a3.83,3.83,0,0,0,0-.47c0-.41-.06-.83-.1-1.25h0v0a.64.64,0,0,1-.24-.48.7.7,0,0,1,.25-.56.83.83,0,0,1,.48-.2.7.7,0,0,1,.63.33l0,0a1.33,1.33,0,0,1,.51-.49.71.71,0,0,1,.74.11.68.68,0,0,1,.21.66,1.09,1.09,0,0,1-.15.35,4,4,0,0,0-.21.41v0l0,.05v0c-.15.38-.3.75-.44,1.13-.08.22-.15.43-.21.65s-.25.66-.62.71h-.11A.64.64,0,0,1,59.54,41.87Z"/><path class="cls-1" d="M58.07,48.3a.67.67,0,0,1-.18-.72,2.38,2.38,0,0,1,.35-.54c.15-.21.32-.4.47-.6a10.12,10.12,0,0,0,.65-.92c.06-.11.13-.21.2-.32s.19-.47.42-.61A.67.67,0,0,1,61,45c.07.33-.16.63-.32.9l0,0a.48.48,0,0,1,.08.16.67.67,0,0,1,0,.28.81.81,0,0,1,.3.31h0a1,1,0,0,1,.29.28.67.67,0,0,1-.2.93.66.66,0,0,1-.77,0l-.08,0a1.38,1.38,0,0,1-.59.2.86.86,0,0,1-.44-.12l-.07.09a1.22,1.22,0,0,1-.39.36,1,1,0,0,1-.3.05A.68.68,0,0,1,58.07,48.3Z"/><path class="cls-1" d="M10.57,37.61c-.36,0-.72-.08-1.08-.14L9,37.34a1.17,1.17,0,0,1-.47-.24l-.74,0a.65.65,0,0,1-.38-.16H7.15a1.88,1.88,0,0,1-.94-.21.79.79,0,0,1-.27-.33.73.73,0,0,1,0-.46.87.87,0,0,1,.35-.51,1.42,1.42,0,0,1,.55-.27l0,0A.68.68,0,0,1,7.59,35l.33.06h0c.55.06,1.09.09,1.64.1h.78a.71.71,0,0,1,.63.36l1.19,0c1.5-.06,3-.11,4.49-.11.43,0,.87,0,1.3.05.25,0,.5,0,.75.08l.39.06a.9.9,0,0,1,.55.33.68.68,0,0,1-.15,1,2.11,2.11,0,0,1-1,.28,3.59,3.59,0,0,1-.47,0,.57.57,0,0,1-.13.08,3.22,3.22,0,0,1-.37.12,6.5,6.5,0,0,1-.77.12l-.52.07L15,37.7c-.57,0-1.13,0-1.7,0A26.76,26.76,0,0,1,10.57,37.61Z"/><path class="cls-1" d="M5.21,43a2.75,2.75,0,0,1,0-.5v-.35c0-.26,0-.52,0-.78,0-.53,0-1.07-.06-1.6S5.06,38.71,5,38.17c0-.25,0-.5,0-.75s0-.25,0-.37a1.28,1.28,0,0,1,.14-.72A.69.69,0,0,1,6,36.12l0,0a.68.68,0,0,1,.77-.26.8.8,0,0,1,.52.63c0,.16.1.32.14.48a8,8,0,0,1,.21,1.19c.11.84.21,1.67.34,2.51a.68.68,0,0,1-.54.78.7.7,0,0,1-.6-.19v.15c0,.25-.07.5-.1.75a1,1,0,0,1,.08.42v0a.66.66,0,0,1-.2.71.7.7,0,0,1-.4.15.65.65,0,0,1-.34.11A.71.71,0,0,1,5.21,43Z"/><path class="cls-1" d="M6,44.54a1.19,1.19,0,0,1-.8-.36.74.74,0,0,1-.09-.78,1,1,0,0,1,.79-.49,8,8,0,0,1,1,0,.7.7,0,0,1,.62.35c1.15,0,2.29-.17,3.43-.25,1.43-.09,2.86-.16,4.29-.2s3-.05,4.47-.12,2.83-.17,4.25-.25q1.56-.09,3.12-.09c1.08,0,2.17,0,3.26,0h-.09c.69,0,1.38,0,2.07,0l2.08-.05c1.44,0,2.88,0,4.32.05l1,0h-.08c1.38,0,2.76,0,4.14.06H49.9c.7,0,1.39,0,2.08.05l.89,0h-.08c.4,0,.8,0,1.2,0l1-.08a5.75,5.75,0,0,1,.83,0c.32,0,.65.09,1,.14a1.71,1.71,0,0,1,.54.13.67.67,0,0,1-.55,1.22l-.85-.13H56a5,5,0,0,0-.67-.05,8.28,8.28,0,0,0-.86.06c-.43,0-.85,0-1.27,0-.91,0-1.81,0-2.72-.07h.09c-1.39,0-2.78,0-4.17,0s-2.81,0-4.21,0l-1.51,0h.09c-.73,0-1.45,0-2.17,0l-2.12,0h.06c-.7,0-1.41,0-2.12,0l-2.08,0c-1.42,0-2.83,0-4.24,0H28c-1.42,0-2.84,0-4.27.11s-2.87.18-4.31.25-2.82.06-4.24.1-2.86.11-4.29.21l-1.93.14c-.64,0-1.28.11-1.91.11H6.8A7.32,7.32,0,0,1,6,44.54Z"/><path class="cls-1" d="M39.5,44.44c-.69,0-1.38,0-2.08-.07-1.4,0-2.8-.15-4.19-.19H32.11A.67.67,0,0,1,31.46,43a2.09,2.09,0,0,1,1.11-.18l1.07,0,2.11.11c.66,0,1.33.06,2,.08s1.42.06,2.13.07h-.09c1.4,0,2.81,0,4.21-.07s2.77-.18,4.16-.2c1.08,0,2.16,0,3.24,0s2.11.11,3.16.13H54.5c.91,0,1.81,0,2.72,0h.07a1.56,1.56,0,0,1,.31,0,.72.72,0,0,1,.58.4.67.67,0,0,1-.49.94,1,1,0,0,1-.24,0,1.32,1.32,0,0,1-.32.07.78.78,0,0,1-.35-.08H56.7c-1.14,0-2.27,0-3.41-.05l-1.6-.08c-.57,0-1.14,0-1.71,0h.09c-1.4,0-2.8,0-4.19.1-.7,0-1.39.09-2.09.11s-1.41,0-2.11,0H39.5Z"/><path class="cls-1" d="M56.45,43.34a.88.88,0,0,1-.1-.62c0-.13,0-.27,0-.41l.09-.88c.06-.62.09-1.25.1-1.88s0-1.2,0-1.81-.06-1.33,0-2a.67.67,0,0,1,.51-.6.48.48,0,0,1,0-.17.66.66,0,0,1,.68-.45.68.68,0,0,1,.62.63c0,.2,0,.4,0,.6v.38c0,.95,0,1.91,0,2.87,0,.18,0,.37.08.55a.72.72,0,0,1-.2.6l-.06.43-.09.6v.07c0,.33-.08.65-.14,1,0,.15-.06.29-.1.44a2.51,2.51,0,0,1-.17.61.67.67,0,0,1-.57.37h0A.69.69,0,0,1,56.45,43.34Z"/><path class="cls-1" d="M34.75,38.7a.56.56,0,0,1,0-.13l-1.87,0-1.69,0H20.1a2.77,2.77,0,0,1-1-.1.68.68,0,0,1-.45-.6.67.67,0,0,1,.47-.67,2.39,2.39,0,0,1,.66-.09l.52,0,1.09-.1,2-.18c1.32-.1,2.65-.18,4-.24H22.59c-1.45,0-2.89,0-4.34.06l-2.11.1c-.47,0-.94,0-1.41,0h-.65c-.75,0-1.49,0-2.24.06a13.25,13.25,0,0,1-2.18-.08h0a.63.63,0,0,1-.61.19c-.48-.13-1.12-.41-1-1a.77.77,0,0,1,.43-.52,1.3,1.3,0,0,1,.73-.06l.79.13h0c.35,0,.7.05,1.06.06.71,0,1.41,0,2.12-.06h2.11c1.41,0,2.81-.14,4.22-.15,2.85,0,5.7,0,8.55,0,1.39,0,2.77,0,4.16,0S35,35,36.43,35s2.88-.07,4.31-.1l2-.07c.7,0,1.39,0,2.09,0l.8,0h-.09c1.47,0,3,.06,4.42.07h-.08c.79,0,1.58,0,2.38.08l1.07.12a7.18,7.18,0,0,0,1,.1h1.84a2.7,2.7,0,0,1,.89.13c.41.13.9.42,1,.87a.92.92,0,0,1-.33.9,2.16,2.16,0,0,1-1.18.39,11.85,11.85,0,0,1-1.33.07q-1.16,0-2.31,0c-1.77,0-3.54-.11-5.31-.14h.09c-1.42,0-2.84,0-4.26,0L41,37.53l.43,0a3.5,3.5,0,0,1,.65.08.68.68,0,0,1,.52.79,1,1,0,0,1-.11.3,1,1,0,0,1-.34.27,1.23,1.23,0,0,1-.33.08l-.55,0-.69,0-1.57,0c-1.19,0-2.39.07-3.59.12h0A.68.68,0,0,1,34.75,38.7Z"/><path class="cls-1" d="M26.4,41.59a.81.81,0,0,1,.22-1.08.92.92,0,0,1,1.14.08.68.68,0,0,1,0,.81.08.08,0,0,1,0,0,.52.52,0,0,1-.17.19.68.68,0,0,1-.3.28A.71.71,0,0,1,27,42,.68.68,0,0,1,26.4,41.59Z"/><path class="cls-1" d="M7.42,43.67a1.9,1.9,0,0,1-.75-.15.91.91,0,0,1-.48-.64.87.87,0,0,1,0-.36.71.71,0,0,1-.39-.32A.69.69,0,0,1,6,41.33a1.62,1.62,0,0,1,.45-.28A6.45,6.45,0,0,1,7,40.84l.17-.05a.67.67,0,0,1,.24-.85,1,1,0,0,1,.17-.1.77.77,0,0,1-.37-.5.93.93,0,0,1,.1-.57l0-.11-.12-.37-.27-.61A2,2,0,0,1,6.73,37a1,1,0,0,1,.35-.8,1.66,1.66,0,0,1,1.2-.2,3.73,3.73,0,0,1,.94.12.69.69,0,0,1,.44.51.65.65,0,0,1,0,.31l.27.07.18,0c.31,0,.63-.07.95-.09.66,0,1.31-.08,2-.09s1.24,0,1.86,0l.66,0v-.06a.69.69,0,0,1,.38-.65,2.38,2.38,0,0,1,.88-.18l.68,0c.33,0,.67,0,1-.05l1.37,0a.7.7,0,0,1,.51-.29c.42,0,.85,0,1.28,0l1.15,0c.7,0,1.41.06,2.11.12,1.46.12,2.93.23,4.38.49h.18l.2,0a5.39,5.39,0,0,1,1,.28.68.68,0,0,1,.42.85.66.66,0,0,1-.29.35.64.64,0,0,1-.13.37h0c1.26-.05,2.53-.09,3.8-.1l4.17,0a.61.61,0,0,1,.34-.17c.39-.05.79-.07,1.18-.09l1.07-.08.43,0v0a.68.68,0,0,1,.63-.71c1.55,0,3.1,0,4.64,0s2.92.12,4.38.19l.29,0a.72.72,0,0,1,.17-.22.86.86,0,0,1,.43-.2,3.77,3.77,0,0,1,.58,0c.24,0,.47,0,.7,0a7.21,7.21,0,0,1,1,.13.69.69,0,0,1,.6-.17.87.87,0,0,1,.48.29.57.57,0,0,1,.16.15,2.26,2.26,0,0,1,.64.26l.14.11h0a.68.68,0,0,1,.56.38.7.7,0,0,1,.06.35.68.68,0,0,1,.1.62,1,1,0,0,1-.07.15l-.06.18a11,11,0,0,0-.25,1.27v.08h.38a.65.65,0,0,1,.61.63.67.67,0,0,1-.54.69l-.16,0a2.11,2.11,0,0,1,0,.25,1,1,0,0,1-.15.35,1.45,1.45,0,0,1,0,.36.68.68,0,0,1-.62.53.69.69,0,0,1-.68-.46v-.05a.83.83,0,0,1-.34.2,1.55,1.55,0,0,1-.71,0l-.8-.09a.69.69,0,0,1-.6.29h-.36l-2,0a.53.53,0,0,1-.19.13.86.86,0,0,1-.47.08l-.33,0-.48,0-1.16-.1L47,43l-2.39-.07c-1.31,0-2.62-.08-3.93-.1a.77.77,0,0,1-.46.32,3.69,3.69,0,0,1-.88,0h-.58l-.79,0-.19.1a1.92,1.92,0,0,1-.54.11c-.41,0-.82.07-1.24.08H34.8c-.73,0-1.47,0-2.2,0l-4.5-.21c-2.17-.11-4.34-.21-6.51-.24h-.51c-.43,0-.86,0-1.28,0a.59.59,0,0,1-.45-.22.57.57,0,0,1-.18.12,3,3,0,0,1-.93.21l-.71.07c-.34,0-.69.06-1,.09-.76.06-1.52.09-2.28.12-1.44.07-2.89.12-4.33.17l-.9,0-.69.07c-.25,0-.5,0-.76,0Z"/><path class="cls-1" d="M43.91,37.72c-.06-.84,0-1.69,0-2.54a22.38,22.38,0,0,0-.09-2.45v.09c0-.4-.12-.81-.18-1.21s-.1-.78-.14-1.17v0c-.07-.48-.16-.94-.27-1.41s-.21-.75-.34-1.11c-.07-.16-.14-.31-.22-.46h0c-.21-.36-.44-.7-.65-1.06s-.42-.71-.65-1.05-.36-.44-.56-.64l0,0,0,0,0,0s0,0,0,0l-.6-.6-.47-.52q-.16-.16-.33-.3a7.31,7.31,0,0,0-.65-.43l.06,0c-.21-.12-.43-.22-.65-.32a18,18,0,0,0-1.78-.66L36,21.84c-.37-.05-.74-.08-1.11-.14a10.22,10.22,0,0,1-1.21-.31l.09,0-.41-.09h-.18c-.32,0-.62.05-.93.06s-.63,0-.94,0c-.47,0-.93,0-1.4,0s-.89,0-1.34.07a5.12,5.12,0,0,0-.54.1h0c-.45.12-.9.25-1.34.41l-.37.17-1.08.65c-.32.21-.66.42-1,.64-.14.11-.27.23-.4.35a21.79,21.79,0,0,0-1.63,1.85l.06-.07c-.39.53-.74,1.08-1.1,1.63s-.77,1.06-1.11,1.62l0,0c-.12.21-.23.43-.33.65s-.27.74-.39,1.11-.28.81-.4,1.22A9.67,9.67,0,0,0,18.72,33a12.62,12.62,0,0,0-.1,1.37v-.09a8.42,8.42,0,0,0,0,.87.69.69,0,0,1,.17.34.68.68,0,0,1-.54.78.73.73,0,0,1-.48-.06.85.85,0,0,1-.44-.6,4.57,4.57,0,0,1-.07-1,13.37,13.37,0,0,1,.12-1.9,11.91,11.91,0,0,1,.5-2c.22-.65.42-1.31.7-1.94A10.15,10.15,0,0,1,19.69,27c.38-.53.73-1.09,1.1-1.64a14,14,0,0,1,1.28-1.6,9.66,9.66,0,0,1,1.48-1.45c.26-.19.53-.35.8-.52s.58-.36.87-.54a7.69,7.69,0,0,1,.9-.47c.34-.14.69-.23,1-.34a9.09,9.09,0,0,1,1-.25,6.32,6.32,0,0,1,1.06-.09c.7,0,1.4-.09,2.1-.07l.72,0c.4,0,.79-.07,1.19-.05a4.87,4.87,0,0,1,1.25.25,6.6,6.6,0,0,0,.77.17,8.5,8.5,0,0,1,1.65.28c.53.18,1.06.38,1.58.59a6.83,6.83,0,0,1,1.55.84,4.78,4.78,0,0,1,.71.64l.5.54h0c.25.26.51.51.75.77a5.91,5.91,0,0,1,.64.85c.19.28.36.57.52.86s.36.57.53.86a5.4,5.4,0,0,1,.48,1,7.76,7.76,0,0,1,.29,1,13.83,13.83,0,0,1,.37,2.12c0,.09,0,.19,0,.29v.06h0c.07.5.16,1,.22,1.48a13.86,13.86,0,0,1,.11,1.7v1.64c0,.58,0,1.17,0,1.75a.67.67,0,0,1-.63.71h0A.68.68,0,0,1,43.91,37.72Z"/><path class="cls-1" d="M29.57,50c-.34,0-.69,0-1-.09s-.68-.13-1-.21a7.46,7.46,0,0,1-2-.82,10,10,0,0,1-1.61-1.21,9.31,9.31,0,0,1-.68-.72c-.22-.25-.45-.5-.66-.76s-.51-.63-.76-1a3.34,3.34,0,0,1-.49-.75h0a.74.74,0,0,1-.07-.46.68.68,0,0,1,.79-.52.72.72,0,0,1,.53.48l0,0,0,.07a2.13,2.13,0,0,0,.16.25l0,0,0,0,0,0,0,0c.3.39.6.78.92,1.15s.66.77,1,1.14a4.78,4.78,0,0,0,.54.47,12.68,12.68,0,0,0,1.22.85l.48.23a8.36,8.36,0,0,0,.8.27,7.43,7.43,0,0,0,1,.23,16.32,16.32,0,0,0,1.71.09,7.69,7.69,0,0,0,.83,0c.39-.06.77-.13,1.16-.22l1.18-.26c.47-.13.93-.31,1.39-.48s.93-.33,1.39-.51l.74-.28.8-.29a8.56,8.56,0,0,0,1-.43l-.08,0,.47-.32-.07,0c.28-.21.56-.42.85-.62l0,0,.16-.12c.15-.16.29-.33.43-.5s.31-.35.46-.54a2.2,2.2,0,0,0,.21-.32,2.1,2.1,0,0,0,.13-.26,1,1,0,0,0,0-.1.67.67,0,0,1,1.27.44,4.68,4.68,0,0,1-.46.89,6.45,6.45,0,0,1-.52.63c-.18.21-.35.42-.54.63a4.48,4.48,0,0,1-.68.54l0,0a8.2,8.2,0,0,1-1.55,1c-.57.24-1.15.43-1.73.65l.08,0c-.61.24-1.22.46-1.84.69a18.26,18.26,0,0,1-1.9.61c-.35.08-.71.15-1.06.24s-.64.14-1,.18a8.33,8.33,0,0,1-1.22.08Z"/><path class="cls-1" d="M31.16,49.17a1.25,1.25,0,0,1,0-.51l0-.46c0-.33,0-.66.06-1,0-.63.12-1.26.19-1.89s.17-1.33.22-2,.09-1.36.09-2.05v.09c0-.73,0-1.45,0-2.18v-2c0-1.44,0-2.88.05-4.31,0-.76.07-1.52.08-2.28v.09c0-.7,0-1.41,0-2.11s-.05-1.31-.07-2,0-1.31,0-2,0-1.24,0-1.86l-.09-1v.06c0-.15,0-.31-.05-.46a.68.68,0,0,1,.63-.71.69.69,0,0,1,.71.64l0,.2h0q.11.87.15,1.74c0,.32,0,.64,0,1l0,1c0,.64,0,1.28,0,1.92s.06,1.34.05,2c0,.84,0,1.69,0,2.54s-.09,1.69-.1,2.53v-.09c0,1.41,0,2.82,0,4.23s.06,2.84,0,4.27c-.06,1.11-.21,2.21-.33,3.32q-.09.75-.15,1.5c0,.44-.07.89-.08,1.34a.63.63,0,0,1,0,.5.76.76,0,0,1-.35.36.67.67,0,0,1-.28.06A.69.69,0,0,1,31.16,49.17Z"/><path class="cls-1" d="M31.12,47.7a.62.62,0,0,1,.2-.15l.44-.24a7.74,7.74,0,0,0,.83-.52c.32-.25.62-.53.93-.79s.58-.49.85-.74c.53-.52,1-1.07,1.57-1.58s1.07-.94,1.58-1.43h0l.27-.3c.08-.11.17-.23.24-.35.22-.36.4-.75.59-1.12s.44-.83.63-1.25c.09-.23.17-.45.24-.68s.09-.4.12-.6c.07-.54.13-1.08.21-1.62h0a5.06,5.06,0,0,0,0-.68,14.66,14.66,0,0,0-.07-1.48c-.06-.45-.15-.9-.21-1.35s-.13-.91-.23-1.36a9.26,9.26,0,0,0-.32-1c-.25-.61-.56-1.2-.85-1.79s-.63-1.22-1-1.83a.2.2,0,0,0,0,.08,17.29,17.29,0,0,0-1.07-1.61l0,.07-.61-.83c-.18-.24-.37-.47-.57-.7a5.22,5.22,0,0,0-.43-.39l-1-.72c-.3-.23-.61-.44-.93-.64a4.3,4.3,0,0,0-.48-.24l-.1,0h0l-.16.05-.23.11h0l0,0,0,0a7.15,7.15,0,0,0-.71.45,4.82,4.82,0,0,0-.43.36,15.27,15.27,0,0,0-1.09,1.32l.06-.08a21.75,21.75,0,0,0-1.38,2.06c-.33.58-.63,1.18-.94,1.77s-.61,1.14-.87,1.73A11.28,11.28,0,0,0,26,30.77a10.62,10.62,0,0,0-.24,1.12h0a13.57,13.57,0,0,0-.11,1.42v0a19.51,19.51,0,0,0,.09,2.16c.1.73.25,1.47.37,2.2s.28,1.47.46,2.2a21.9,21.9,0,0,0,.84,2.52l0,0a22.52,22.52,0,0,0,1,2.18v0c.2.34.42.67.65,1v0l0,0,0,0h0l.77,1c.13.17.27.33.41.49s.32.31.49.45l.14.1ZM31,49.08a3.41,3.41,0,0,1-1.2-.61,7.82,7.82,0,0,1-.72-.69,12.89,12.89,0,0,1-.85-1.1l.06.07a14.08,14.08,0,0,1-1.14-1.67,18.83,18.83,0,0,1-.83-1.76,23.11,23.11,0,0,1-1.22-3.69c-.15-.62-.27-1.24-.38-1.87s-.22-1.25-.31-1.87a14.1,14.1,0,0,1-.14-2,14.34,14.34,0,0,1,.09-2.07,10.73,10.73,0,0,1,.45-2,14,14,0,0,1,.75-1.78c.29-.58.6-1.14.9-1.72s.65-1.18,1-1.76.73-1.07,1.13-1.58a11.85,11.85,0,0,1,1.28-1.45,6,6,0,0,1,.83-.59,4.92,4.92,0,0,1,.82-.43,1.58,1.58,0,0,1,.68-.12,2.28,2.28,0,0,1,1,.36,9.55,9.55,0,0,1,1.13.74l1.07.79a6.42,6.42,0,0,1,1,1c.26.32.5.66.74,1v0l0,.05,0,0h0A16.14,16.14,0,0,1,38.29,26c.34.61.67,1.22,1,1.84l.45.92c.15.3.3.6.43.9a8.8,8.8,0,0,1,.61,2c.07.44.12.88.19,1.31s.16.92.2,1.38a13.1,13.1,0,0,1,.05,1.4,12.66,12.66,0,0,1-.15,1.38.28.28,0,0,1,0-.09c0,.34-.08.69-.12,1a6.5,6.5,0,0,1-.24,1.06,11.13,11.13,0,0,1-.89,2,8.63,8.63,0,0,1-1,1.76,15.89,15.89,0,0,1-1.52,1.44l-.73.67-1,1c-.35.35-.73.67-1.1,1a13.07,13.07,0,0,1-1.22,1c-.25.17-.51.32-.78.47a.67.67,0,0,1-.57.67l-.24,0A2.34,2.34,0,0,1,31,49.08Z"/><path class="cls-1" d="M30,25.24a7.29,7.29,0,0,1-1-.42c-.31-.14-.61-.3-.91-.46a3.61,3.61,0,0,1-1.44-1.24,3.07,3.07,0,0,1-.4-1.48A.85.85,0,0,1,26.5,21a.7.7,0,0,1,.44-.18.68.68,0,0,1,.7.64.64.64,0,0,1-.06.31h0a3.12,3.12,0,0,0,.09.44.19.19,0,0,1,0-.08.84.84,0,0,0,.05.17,1,1,0,0,1,.07.15.86.86,0,0,0,.07.1l.1.12a1.29,1.29,0,0,0,.21.19l.34.22c.48.27,1,.52,1.47.74.22.09.44.16.66.23l.62.11h0c.29,0,.57.05.86.06s.43,0,.65,0,.66-.12,1-.2h0l.62-.15h.07c.41-.11.82-.22,1.22-.37l.48-.23a11.08,11.08,0,0,0,1-.66l.22-.19q.18-.18.33-.36a.67.67,0,0,1,1,.9,5.89,5.89,0,0,1-.42.45,3.9,3.9,0,0,1-.51.4,8.93,8.93,0,0,1-1.06.66,10.1,10.1,0,0,1-2.47.82h0c-.33.09-.66.16-1,.23a6.44,6.44,0,0,1-1.07.09h-.06A8,8,0,0,1,30,25.24Z"/><path class="cls-1" d="M33.25,30.42a17.68,17.68,0,0,1-2.18-.21c-.71-.1-1.41-.22-2.1-.37a7.57,7.57,0,0,1-2.08-.73,9.94,9.94,0,0,1-1.71-1.24A9.79,9.79,0,0,1,24,26.78a6.28,6.28,0,0,1-.87-1.3,4.55,4.55,0,0,1-.3-.72A3,3,0,0,1,22.7,24a1.47,1.47,0,0,1,.16-.9.77.77,0,0,1,.67-.32A.67.67,0,0,1,24,23.89a2.38,2.38,0,0,0,.05.26c0,.14.09.28.14.42s.15.34.23.5.23.37.35.55.32.37.49.55c.41.4.84.77,1.29,1.13.27.2.54.39.83.57s.49.25.74.36l0,0,.53.18a24.52,24.52,0,0,0,2.69.51h-.09l1.17.14c.39,0,.79,0,1.19.06s.54,0,.82,0c.61-.08,1.22-.2,1.83-.34l1.9-.43.52-.16.59-.28-.08,0,.41-.27.57-.48a3.88,3.88,0,0,1,1.07-.55l.21-.08.14-.07,0,0,0,0a.67.67,0,0,1,1,.91,3.18,3.18,0,0,1-1.25.68l-.24.11-.09.06,0,0-.06.05h0c-.28.21-.53.44-.81.65a5.75,5.75,0,0,1-.91.51,10.28,10.28,0,0,1-2,.55c-.66.14-1.31.3-2,.42-.35.06-.7.11-1,.14l-.74,0Z"/><path class="cls-1" d="M31.52,37.29a13.18,13.18,0,0,1-2.07-.36,11.15,11.15,0,0,1-1.92-.73,19.88,19.88,0,0,1-1.77-.93c-.31-.18-.62-.35-.92-.54a8.83,8.83,0,0,1-.87-.64,7.6,7.6,0,0,1-.69-.7c-.22-.25-.43-.52-.65-.77-.44-.49-.91-1-1.33-1.47a17.45,17.45,0,0,1-1.22-1.7,5.14,5.14,0,0,1-.77-1.62h0a.71.71,0,0,1,.1-.51.67.67,0,0,1,.93-.18.71.71,0,0,1,.3.49l0,.09c.08.18.17.36.26.53A16.54,16.54,0,0,0,22,29.92L22,29.85a18.78,18.78,0,0,0,1.3,1.51c.46.49.87,1,1.33,1.5a4.4,4.4,0,0,0,.39.35,9.24,9.24,0,0,0,1,.65l0,0c.44.24.87.5,1.32.74s.89.44,1.35.64h0l.05,0,0,0a12.12,12.12,0,0,0,1.15.41c.46.11.93.2,1.4.28h-.08a12.81,12.81,0,0,0,1.38.1c.33,0,.66,0,1,0a12.84,12.84,0,0,0,1.35-.26c.53-.14,1-.3,1.57-.47s1-.33,1.55-.52l1.56-.59c.49-.19,1-.33,1.5-.51q.28-.12.57-.27a2.46,2.46,0,0,0,.34-.22l-.07,0a7.91,7.91,0,0,1,.81-.58c.24-.14.49-.26.74-.39s.44-.28.65-.43A.68.68,0,0,1,45,32a.67.67,0,0,1-.2.92c-.19.14-.38.26-.57.38s-.56.3-.84.45h0l-.06,0,.06,0-.25.16.07-.05a7.08,7.08,0,0,1-.83.61,7.22,7.22,0,0,1-1,.45l-.93.3-.92.35c-.63.24-1.27.49-1.91.69s-1.28.43-1.93.62a12.67,12.67,0,0,1-2.12.44c-.36,0-.73.05-1.1.05S31.83,37.32,31.52,37.29Z"/><text class="cls-2" transform="translate(19.48 41.75)">G<tspan class="cls-3" x="4.4" y="0">L</tspan><tspan class="cls-4" x="7.97" y="0">O</tspan><tspan class="cls-5" x="12.29" y="0">B</tspan><tspan class="cls-6" x="16.34" y="0">A</tspan><tspan class="cls-7" x="20.71" y="0">L</tspan></text></svg>