<svg id="Layer_1" data-name="Layer 1" xmlns="http://www.w3.org/2000/svg" viewBox="0 0 65 66"><defs><style>.cls-1{fill:#f0f1ec;}.cls-2{font-size:6px;fill:#3b0d17;font-family:TranscriptPro-Medium, Transcript Pro;font-weight:500;letter-spacing:0.11em;}.cls-3{letter-spacing:0.12em;}.cls-4{letter-spacing:0.12em;}.cls-5{letter-spacing:0.12em;}.cls-6{letter-spacing:0.12em;}.cls-7{letter-spacing:0.13em;}.cls-8{letter-spacing:0.13em;}.cls-9{letter-spacing:0.1em;}</style></defs><path class="cls-1" d="M60.2,30.67q-.36,0-.72-.09l.1,0a6.33,6.33,0,0,0-.86-.06c-.58,0-1.16,0-1.73,0s-1.31-.07-2-.07h.09c-1.15,0-2.3,0-3.45,0-.6,0-1.19,0-1.78-.07s-1.2-.08-1.8-.09h-2c-1.51,0-3,0-4.52,0-.73,0-1.46,0-2.19,0s-1.42.07-2.13.09l-2.22,0c-.74,0-1.48,0-2.22,0-.38,0-.76,0-1.14,0H26.39c-.61,0-1.23-.05-1.84-.05h.09c-2.94,0-5.88,0-8.82.08-.74,0-1.47.05-2.2.06s-1.5,0-2.25,0-1.37,0-2-.08c-.34,0-.67-.05-1-.08l-1.1-.05H5.9c-.18,0-.37,0-.55,0a.65.65,0,0,1-.2,0,.74.74,0,0,1-.78-.7.8.8,0,0,1,.13-.47.83.83,0,0,1,.61-.34c.23,0,.47,0,.7,0,.71,0,1.42,0,2.12,0S9.28,29,10,29l2.08.07h.3c.74,0,1.48,0,2.21,0S16,29,16.75,29c1.47,0,2.94-.05,4.41-.05H24.1c1,0,2,0,3.07.06h-.09c1.51,0,3,0,4.54,0,.74,0,1.47-.05,2.21-.05l2.25,0c.72,0,1.45,0,2.17-.06s1.47-.06,2.2-.06h6.88c.76,0,1.51,0,2.27.06s1.46.09,2.19.1H54.7l1.57,0q.73,0,1.47.06H59a8.59,8.59,0,0,1,1,.1l.28,0a.74.74,0,0,1-.07,1.48Z"/><path class="cls-1" d="M5,39.35a.74.74,0,1,1,.78.7A.75.75,0,0,1,5,39.35Z"/><path class="cls-1" d="M4.9,39.84a.75.75,0,0,1,0-1.42,2.88,2.88,0,0,1,.88-.06h1c.7,0,1.4,0,2.11-.09s1.4-.07,2.1-.08c2.21,0,4.42,0,6.63,0h2.09l2.35,0h4.26l4.4,0h8.67c1.38,0,2.77,0,4.15,0,.7,0,1.41,0,2.11-.07s1.41-.05,2.12-.05H50l2.17,0c.72,0,1.44,0,2.15-.07s1.36-.07,2-.14a12.72,12.72,0,0,1,1.85-.07l1.29,0h-.09c.34,0,.67,0,1,.06a.74.74,0,0,1-.11,1.48c-.28,0-.57-.06-.85-.06h.09l-1.74-.06h.09c-.71,0-1.41.09-2.11.14s-1.41.1-2.12.12-1.44,0-2.15,0H47.14c-.7,0-1.4,0-2.09.07s-1.39,0-2.07,0-1.43,0-2.14,0c-2.81,0-5.62,0-8.43,0H25.74l-2.24,0c-.95,0-1.9,0-2.86,0h.1l-4.35,0H12.12c-.71,0-1.41,0-2.11,0s-1.41.09-2.12.12c-.48,0-1,0-1.44,0H5.69a.7.7,0,0,1-.25,0H5.23A.77.77,0,0,1,4.9,39.84Z"/><path class="cls-1" d="M59.63,38.18c0-.19,0-.37,0-.55s0-.51,0-.77,0-.43-.06-.64,0-.45,0-.68c0-.6,0-1.2-.07-1.8s0-1.3,0-2,0-1.29,0-1.94a.74.74,0,0,1,1.48-.08c0,1.1,0,2.2,0,3.3,0,.33,0,.66,0,1s0,.63,0,1,0,.93,0,1.39.06.64.08.95,0,.51,0,.77a.75.75,0,0,1-.7.78h0A.74.74,0,0,1,59.63,38.18Z"/><path class="cls-1" d="M4.58,38.68c0-1,0-1.9-.06-2.85,0-.64-.09-1.29-.13-1.93s0-1.36-.06-2c0-.38,0-.76,0-1.15s0-.54,0-.81a.77.77,0,0,1,0-.54v0l0,0v0h0a.25.25,0,0,1,0-.07l0,.05h0l0-.06a.79.79,0,0,1,.34-.31.76.76,0,0,1,.94.27,1.71,1.71,0,0,1,.16.87c0,.33,0,.65,0,1s0,.65.05,1,0,.65,0,1,0,.69,0,1c0,.65.11,1.31.13,2,0,.87,0,1.73,0,2.6a.75.75,0,0,1-.7.78h0A.74.74,0,0,1,4.58,38.68Z"/><path class="cls-1" d="M7.38,41.69c-.33-.24-.64-.5-1-.75L6.5,41c-.24-.18-.48-.36-.73-.53l-.37-.25L5.15,40a.73.73,0,0,1-.37-.59.75.75,0,0,1,.7-.78,1,1,0,0,1,.5.13,2.2,2.2,0,0,1,.23.2c.27.21.57.39.84.59l.82.64.34.26a.75.75,0,0,1,.2,1,.74.74,0,0,1-.62.32A.75.75,0,0,1,7.38,41.69Z"/><path class="cls-1" d="M7.88,47.89a3.55,3.55,0,0,1-.06-.8c0-.29,0-.58,0-.87a26.76,26.76,0,0,0-.1-2.69v0c-.07-.62-.14-1.24-.16-1.86,0-.35,0-.71,0-1.06a.61.61,0,0,1,0-.14c0-.18,0-.36,0-.55a.38.38,0,0,0,0,.1,2.62,2.62,0,0,1,0-.28.73.73,0,0,1,.69-.68.75.75,0,0,1,.78.7c0,.57,0,1.14,0,1.72a17.58,17.58,0,0,0,.14,1.77v0c.1.93.11,1.86.12,2.79,0,.3,0,.59,0,.88s0,.45,0,.67a.28.28,0,0,1,0-.09v0a.75.75,0,0,1-.49.9.54.54,0,0,1-.22,0A.73.73,0,0,1,7.88,47.89Z"/><path class="cls-1" d="M7.33,28.85c0-.12,0-.24,0-.36s0-.45,0-.68v.1c0-.42,0-.83,0-1.25v0c0-.58,0-1.17,0-1.75s-.08-1.14-.1-1.71c0-.84,0-1.67,0-2.51A.73.73,0,0,1,8,20.05a.74.74,0,0,1,.68.79V21h0c0,.38,0,.77,0,1.15s0,1,.06,1.53c0,.32.05.64.07,1s0,.64,0,1c0,.63,0,1.26,0,1.89v-.1c0,.29,0,.57,0,.86s0,.4,0,.61v-.07a.76.76,0,0,1-.7.78h0A.74.74,0,0,1,7.33,28.85Z"/><path class="cls-1" d="M7.86,21.32a.75.75,0,0,1-.69-.8A.82.82,0,0,1,7.45,20a1.3,1.3,0,0,1,.37-.19c.58-.24,1.13-.55,1.7-.83s1.18-.58,1.75-.9l-.06,0c.6-.34,1.18-.71,1.76-1.06s1.25-.7,1.87-1.06l.86-.52a2.57,2.57,0,0,1,.33-.18l.2-.11.39-.22c.61-.34,1.21-.72,1.82-1.07l1.75-1c1.23-.72,2.46-1.44,3.7-2.13.57-.3,1.15-.57,1.71-.88s1.21-.65,1.83-.95,1.19-.57,1.78-.89,1.12-.55,1.67-.85L31,7.09c.38-.23.78-.45,1.17-.65a.74.74,0,1,1,.63,1.34l-.64.35.08-.05-.6.35-.08,0,0,0c-.27.15-.55.28-.82.42-.61.3-1.2.63-1.81.93s-1.21.57-1.8.89-1.14.63-1.73.92c-.33.16-.66.33-1,.51l.08-.05c-1.21.68-2.42,1.39-3.62,2.08l-1.78,1c-.62.36-1.23.75-1.86,1.09a4.91,4.91,0,0,1-.5.28l0,0,0,0h0l0,0h0c-.57.32-1.12.67-1.69,1s-1.23.68-1.82,1-1.21.74-1.84,1.07l-1.84.93c-.39.19-.78.39-1.18.55h0a.75.75,0,0,1-.39.12Z"/><path class="cls-1" d="M32.31,62.44a13.39,13.39,0,0,1-1.23-.69c-.23-.13-.47-.23-.7-.34a3.61,3.61,0,0,1-.39-.22l-.06,0-.07,0h0l-.1-.06-.42-.26h0l-1.06-.6-1.09-.67-1.49-.86h0c-1-.59-2.08-1.13-3.1-1.72-.53-.31-1-.67-1.52-1s-.9-.61-1.37-.88l.09.05-1.06-.61c-.38-.21-.74-.45-1.11-.67-.6-.34-1.23-.63-1.85-.93L14,52c-.57-.29-1.14-.58-1.69-.92s-1.06-.73-1.62-1.05A20.34,20.34,0,0,0,8.49,48.9h0l-.14-.07h0a.68.68,0,0,1-.4-.3.76.76,0,0,1,.22-1,.83.83,0,0,1,.56-.1h0l.19.07.13.05H9c.73.31,1.43.67,2.13,1.05s1.51,1,2.29,1.45h0l0,0,.05,0-.05,0c.43.25.87.47,1.31.69l1.53.77c.52.25,1.05.5,1.57.77s1,.56,1.46.85c.69.4,1.39.77,2.05,1.22s1.3.92,2,1.34h0l1.87,1c.65.35,1.28.72,1.91,1.1L27,57.72c.37.22.75.42,1.11.64l1.11.68-.09,0c.5.29,1,.57,1.48.87h0l-.05,0,.07,0,.05,0,.07,0c.29.16.59.27.88.43s.57.34.86.51l.46.24a.74.74,0,0,1-.34,1.4A.72.72,0,0,1,32.31,62.44Z"/><path class="cls-1" d="M32.55,62.54h0a.64.64,0,0,1-.29-.25h0a.76.76,0,0,1-.05-.73.74.74,0,0,1,.61-.4l.32-.16a9.13,9.13,0,0,0,.91-.62c.58-.43,1.12-.92,1.72-1.33.31-.2.64-.38,1-.56l.91-.52c.63-.37,1.22-.79,1.85-1.16a21.63,21.63,0,0,1,2-1l.94-.48h0l0,0,0,0h0c.53-.3,1-.61,1.55-.93s1.14-.67,1.72-1l1.59-.86c.51-.27,1-.53,1.53-.81h0c.45-.25.91-.5,1.36-.73s1-.5,1.47-.76h0l1.11-.61h0l.07,0h0c.57-.32,1.12-.67,1.68-1a10.1,10.1,0,0,1,.92-.49c.26-.11.52-.23.77-.36s.39-.24.59-.34a.74.74,0,1,1,.63,1.34l0,0c-.27.15-.54.32-.82.46s-.68.3-1,.48h0l0,0,0,0h0c-.4.22-.78.47-1.17.7s-.87.5-1.31.74l.09-.05c-.55.31-1.09.62-1.65.9s-1.09.55-1.63.84h0c-1.35.75-2.73,1.46-4.09,2.2-.88.49-1.72,1.06-2.59,1.55s-1.74.84-2.59,1.3-1.42.9-2.14,1.34S37,60,36.31,60.48l-.79.64-1,.71a6.51,6.51,0,0,1-1,.62,1.65,1.65,0,0,1-.61.18h0A.79.79,0,0,1,32.55,62.54Z"/><path class="cls-1" d="M57.15,47.5c0-.5,0-1,0-1.5S57,44.82,57,44.24s0-1.32,0-2,0-1.35-.08-2v0a8.27,8.27,0,0,0-.12-.85.73.73,0,0,1-.07-.3.81.81,0,0,1,.19-.54.73.73,0,0,1,.89-.17c.4.2.43.64.49,1a10.3,10.3,0,0,1,.13,1.1c0,.35,0,.7,0,1,0,.69,0,1.37,0,2.05,0,.35,0,.69,0,1s0,.59.07.88c0,.62,0,1.25,0,1.87a.75.75,0,0,1-.7.78h0A.75.75,0,0,1,57.15,47.5Z"/><path class="cls-1" d="M57,29.19c0-.35-.06-.69-.06-1,0-.58-.07-1.16-.09-1.74s0-1.41,0-2.11,0-1.48,0-2.21c0-.44,0-.88,0-1.32h0v-.05a.74.74,0,0,1,.7-.77.73.73,0,0,1,.78.7c0,.25,0,.52,0,.78s0,.73,0,1.09c0,.73,0,1.45,0,2.17s0,1.42,0,2.12c0,.31,0,.62.06.92s0,.41,0,.61,0,.51.05.77a.76.76,0,0,1-.7.78h0A.74.74,0,0,1,57,29.19Z"/><path class="cls-1" d="M56.67,20.86l-.16-.1h0c-.42-.24-.86-.46-1.29-.7s-.56-.3-.86-.43-.57-.28-.85-.43-.57-.28-.86-.42l-.89-.44c-.61-.31-1.21-.69-1.8-1.06l-.66-.41h0l0,0,0,0,0,0c-.56-.32-1.12-.63-1.7-.92-.31-.16-.62-.31-.92-.48s-.64-.38-1-.57l.09,0L45,14.5c-.28-.16-.56-.34-.83-.51-.48-.28-1-.52-1.46-.79s-1-.63-1.49-.94a17.1,17.1,0,0,0-1.72-.84c-.56-.25-1.13-.49-1.67-.79-.27-.15-.54-.32-.82-.47l-.81-.43c-.53-.29-1-.62-1.56-.94h0l0,0-.06,0,0,0c-.27-.16-.55-.3-.82-.45s-.55-.3-.84-.43l.05,0-.05,0,0,0,0,0-.06,0h0a.76.76,0,0,1-.78-.7.75.75,0,0,1,.7-.78,1.69,1.69,0,0,1,.55.06,7.17,7.17,0,0,1,1,.51c.38.2.76.4,1.13.62l1,.62c.53.3,1.08.57,1.61.88.29.17.58.34.88.48s.56.26.85.38c.6.28,1.22.53,1.81.85s1.09.7,1.64,1l1.13.61c.39.21.75.44,1.13.67h0l.06,0,0,0c.24.14.49.27.74.4s.6.35.9.53.8.42,1.21.63.85.46,1.27.69.9.53,1.34.81.74.46,1.12.68,1,.52,1.51.74,1,.52,1.46.74.89.46,1.34.69l.56.3a5.33,5.33,0,0,1,.51.31A.74.74,0,0,1,57.07,21,.66.66,0,0,1,56.67,20.86Z"/><path class="cls-1" d="M58.22,41.34a.78.78,0,0,1-.47-.47,1.16,1.16,0,0,1,0-.18.77.77,0,0,1,0-.68,3.28,3.28,0,0,1,.58-.71c.18-.2.35-.39.52-.6h0l0,0,0,0a.89.89,0,0,1,.16-.34.78.78,0,0,1,.91-.18l.13,0a.74.74,0,0,1,.81.41h0a.76.76,0,0,1-.06.74,2.4,2.4,0,0,1-.45.45L60,40a2,2,0,0,1-.1.21c-.09.12-.21.23-.31.34a3.64,3.64,0,0,1-.85.77.67.67,0,0,1-.31.07A.69.69,0,0,1,58.22,41.34Z"/><path class="cls-1" d="M28.28,38.88c-.81,0-1.6-.08-2.41-.09H26c-1.6,0-3.2,0-4.8.05-.76,0-1.51,0-2.27,0s-1.53,0-2.29,0c-1.51,0-3-.1-4.51-.12h.09l-3,0H7.07a.86.86,0,0,1-.63.1.84.84,0,0,1-.76-.66.72.72,0,0,1,.23-.67l0-.15c0-.3-.07-.61-.09-.91,0-.62-.09-1.24-.16-1.86v.1c-.08-.68-.18-1.36-.31-2a4,4,0,0,1-.13-1.19,2.31,2.31,0,0,1,.6-1.63.81.81,0,0,1,.49-.19.94.94,0,0,1,.47.09,2,2,0,0,1,.55.5l0,.05A36.32,36.32,0,0,0,11.1,30h0c1.55-.18,3.11-.42,4.67-.5.79,0,1.58,0,2.37,0s1.64.05,2.46.09c1.51.07,3,.18,4.53.34l2.37.25.72.06c.48,0,.95,0,1.43.05a.46.46,0,0,1,.23.06l1.06,0h-.1c1.57,0,3.13,0,4.69-.11s3.07-.2,4.61-.23l2.31,0c.76,0,1.53,0,2.29,0h4.65l3.26-.05c1.1,0,2.2,0,3.29,0h-.09l1.44,0h0l1,0a3.62,3.62,0,0,1,.87.09,1,1,0,0,1,.67.76,2.75,2.75,0,0,1,0,.41c0,.31,0,.63,0,.94,0,.52,0,1,.07,1.55s.22,1,.26,1.58A7.08,7.08,0,0,1,60.12,37c-.08.57-.2,1.33-.82,1.54a1.18,1.18,0,0,1-.59,0l-.61-.08.1,0a5.93,5.93,0,0,0-.84-.06h.09c-1.43,0-2.85.27-4.28.31-.75,0-1.5,0-2.25,0H44.39c-1,0-2.07,0-3.1-.05l-.35,0c-.45,0-.9,0-1.35.06-.81,0-1.62,0-2.43,0l-1.25,0-.57,0c-.76,0-1.51.1-2.27.13s-1.54.06-2.31.06Z"/><path class="cls-1" d="M10.93,46.14a19.3,19.3,0,0,1-.08-2c0-1.4-.08-2.8-.08-4.2,0-1.13,0-2.26,0-3.4v.1c0-1.45,0-2.91,0-4.36,0-.72,0-1.45-.06-2.17,0-.36-.06-.71-.08-1.07s0-.74-.05-1.1-.07-1-.09-1.46,0-.93,0-1.39,0-.87,0-1.31,0-.71,0-1.06a1.55,1.55,0,0,1,0-.21.76.76,0,0,1,.7-.79.8.8,0,0,1,.55.2.9.9,0,0,1,.27.68c0,.31,0,.62,0,.93,0,.69,0,1.37,0,2.05s.07,1.52.11,2.28.09,1.45.13,2.17c0,.34,0,.69,0,1s0,.7,0,1.05c0,.72,0,1.43,0,2.15,0,1.35,0,2.7,0,4.06v0c0,1.3,0,2.61,0,3.91,0,.67,0,1.34,0,2,0,.37,0,.73,0,1.1s0,.51.06.77a.75.75,0,0,1-.7.78h0A.75.75,0,0,1,10.93,46.14Z"/><path class="cls-1" d="M27.93,56.29c-.42-.19-.82-.41-1.23-.62l-1.22-.61c-.73-.37-1.44-.77-2.15-1.18h0c-.41-.24-.84-.41-1.27-.61s-.91-.47-1.36-.7L19.47,52c-.39-.2-.75-.45-1.13-.67l.09.05c-.46-.27-.93-.52-1.38-.81s-.91-.54-1.36-.84-.89-.64-1.34-1-.91-.65-1.4-.94c-.26-.15-.53-.27-.81-.4l-.49-.24a.75.75,0,0,1-.66-.43.74.74,0,0,1,.35-1,1,1,0,0,1,.83,0l.66.33c.3.14.6.27.89.44s.64.41,1,.63c.59.41,1.16.86,1.76,1.27s1.13.7,1.7,1.06l.23.14c.27.15.54.29.81.45l.75.46c.35.19.72.36,1.07.54l1.19.62c.39.2.79.37,1.19.55s.74.4,1.1.61l-.08-.05c.63.37,1.28.71,1.93,1l1.12.56c.38.19.75.39,1.14.57a.73.73,0,0,1,.33,1,.72.72,0,0,1-.66.41A1,1,0,0,1,27.93,56.29Z"/><path class="cls-1" d="M30.86,58c-.51-.28-1-.6-1.49-.93a.74.74,0,0,1-.2-1,.75.75,0,0,1,1-.2l1.15.73.17.09a.74.74,0,0,1-.34,1.41A.72.72,0,0,1,30.86,58Z"/><path class="cls-1" d="M31.88,58.43a.8.8,0,0,1,.39-.7l.47-.34a14.24,14.24,0,0,1,1.36-.8,20.47,20.47,0,0,1,2.49-1.1,13.36,13.36,0,0,0,1.34-.6h0c.58-.32,1.16-.66,1.75-1s1.12-.56,1.68-.86h0c.52-.29,1-.61,1.52-.91l1.54-.95c.47-.29.94-.58,1.42-.86s.93-.51,1.4-.77l0,0c.43-.25.85-.52,1.27-.79s.82-.55,1.25-.8c.78-.46,1.53-.94,2.32-1.38l-.08,0c.3-.17.57-.38.87-.57l.69-.41a.74.74,0,0,1,1,.22.75.75,0,0,1-.22,1c-.27.17-.56.32-.82.49s-.34.25-.52.36-.36.2-.54.3h0l-.08,0,0,0c-.39.22-.78.47-1.16.71s-.95.55-1.41.86-.9.59-1.36.87-1,.54-1.46.8l.09,0c-1.2.66-2.34,1.42-3.52,2.13-.6.36-1.19.75-1.82,1.07s-1.21.61-1.8.93h0l0,0-.05,0h0c-.53.3-1,.62-1.59.89s-1.09.47-1.65.68a18.34,18.34,0,0,0-2.11,1l.09,0c-.33.18-.66.37-1,.57s-.39.27-.58.41a.74.74,0,0,1-.42.16h0A.74.74,0,0,1,31.88,58.43Z"/><path class="cls-1" d="M53.54,44.3a1.41,1.41,0,0,1,0-.21v0a1.61,1.61,0,0,0,0-.22c0-.64,0-1.28,0-1.92s-.07-1.17-.1-1.76,0-1.27,0-1.9a18,18,0,0,0-.14-2.07l-.12-.78a.74.74,0,1,1,1.45-.27,23.31,23.31,0,0,1,.28,2.5c0,.7,0,1.42,0,2.12S55,41.08,55,41.7s0,1.39,0,2.08c0,.17,0,.33,0,.49h0v0a.75.75,0,0,1-.7.71h0A.75.75,0,0,1,53.54,44.3Z"/><path class="cls-1" d="M54,33.47c0-.78-.08-1.56-.11-2.34s-.06-1.41-.09-2.12-.07-1.45-.1-2.18,0-1.38,0-2.07c0-.4,0-.8,0-1.19a3,3,0,0,1,0-.73.74.74,0,0,1,.87-.58.75.75,0,0,1,.58.87v.25c0,1.43,0,2.86.05,4.29,0,.68.07,1.37.11,2s0,1.47.09,2.2c0,.49.05,1,.07,1.48a.77.77,0,0,1-.71.78h0A.74.74,0,0,1,54,33.47Z"/><path class="cls-1" d="M53.25,22.42h0l-.07,0h0c-.28-.16-.58-.28-.86-.43s-.79-.43-1.19-.63c-.77-.39-1.51-.84-2.26-1.28-1.22-.71-2.48-1.36-3.7-2.05-.66-.37-1.29-.76-2-1.1S42,16.31,41.42,16s-1.21-.62-1.79-1l-1.94-1.19c-.65-.39-1.29-.78-1.91-1.21-.29-.19-.56-.4-.85-.6s-.64-.42-1-.63-.66-.42-1-.62l.05,0-.08,0h-.13a.75.75,0,0,1-.68-.8.59.59,0,0,1,0-.13h0v0a.76.76,0,0,1,.18-.37.8.8,0,0,1,.83-.21,2,2,0,0,1,.36.18l.53.32c.64.39,1.27.78,1.87,1.22s1.18.82,1.8,1.2l2,1.19,1,.62c.56.32,1.14.61,1.71.89s1.22.59,1.82.91l1.94,1.1c.63.36,1.27.71,1.91,1.05l1.39.77,1.33.79c.55.32,1.11.59,1.66.89.31.16.6.33.91.48s.46.22.68.35a.74.74,0,0,1,.2,1,.72.72,0,0,1-.6.32A.78.78,0,0,1,53.25,22.42Z"/><path class="cls-1" d="M10.81,22.4a.73.73,0,0,1-.1-.81,2.41,2.41,0,0,1,1-.75l1-.58c.6-.38,1.22-.72,1.84-1.08s1.28-.8,1.94-1.17,1.29-.75,1.94-1.11l.37-.21,0,0c.6-.34,1.2-.69,1.78-1.05.32-.2.64-.41,1-.6s.7-.39,1.05-.58l2-1,1.85-1,1.05-.55,1.31-.76,1.17-.63c.64-.36,1.21-.82,1.85-1.19a.74.74,0,1,1,.79,1.25c-.52.3-1,.67-1.5,1s-.93.51-1.4.77h0l0,0,0,0h0c-.55.31-1.1.64-1.66.95l-1.65.86c-1.23.66-2.49,1.28-3.72,2-.56.31-1.09.66-1.64,1s-1.14.67-1.71,1l.08-.05-1.91,1.09c-.64.36-1.25.76-1.89,1.14s-1.21.68-1.8,1.05l-1,.59c-.26.15-.54.28-.79.44a.85.85,0,0,1-.17.16.79.79,0,0,1-.42.12A.73.73,0,0,1,10.81,22.4Z"/><path class="cls-1" d="M23.4,19.9a.8.8,0,0,1,.57-.77c.27-.11.53-.25.8-.36.43-.19.85-.38,1.25-.6s1.06-.6,1.6-.86,1-.45,1.43-.71h0l1.32-.75-.08,0c.25-.14.49-.31.75-.43l.55-.28,0,0a.74.74,0,0,1,1,.22.76.76,0,0,1-.22,1,7,7,0,0,1-.82.41l-.34.21c-.19.12-.39.22-.59.33l0,0-.05,0,0,0h0c-.53.3-1,.62-1.59.88s-1,.48-1.53.75l.08,0c-.63.35-1.25.71-1.91,1l-.92.4a1.56,1.56,0,0,1-.58.21A.76.76,0,0,1,23.4,19.9Z"/><path class="cls-1" d="M38.89,20.17l-.09-.05c-.19-.11-.39-.21-.59-.31s-.65-.36-1-.55l.09,0c-.42-.24-.87-.42-1.29-.64a8.65,8.65,0,0,1-1.16-.82c-.36-.27-.75-.5-1.13-.73s-.78-.49-1.17-.72a.74.74,0,0,1-.62-.69.77.77,0,0,1,.52-.77,1,1,0,0,1,.79.15c.42.24.82.5,1.23.75s.73.44,1.07.68.69.55,1.07.79.63.3.94.45.59.33.88.5.85.43,1.26.69a.74.74,0,0,1-.42,1.35A.71.71,0,0,1,38.89,20.17Z"/><path class="cls-1" d="M26.46,49.73c0-.17,0-.34-.06-.51-.06-.5-.15-1-.25-1.51,0-.3-.07-.6-.11-.9s-.07-.7-.11-1.05v0c-.05-.43-.11-.87-.17-1.3s-.11-.95-.16-1.42a.43.43,0,0,1,0,0c-.13-1-.27-2.1-.32-3.16s-.16-2.21-.28-3.31v0c-.07-.61-.16-1.23-.22-1.85s-.14-1.21-.2-1.82v0c-.11-.88-.18-1.75-.28-2.62h0c-.07-.62-.16-1.22-.24-1.84s-.16-1.38-.23-2.07-.11-1.42-.14-2.13c0-.35-.05-.69-.08-1.05s0-.69-.07-1-.07-.79-.12-1.19c0-.17-.05-.34-.08-.51a1.15,1.15,0,0,1,0-.26.74.74,0,0,1,1.48-.08v0c0,.19.07.39.1.59s.07.68.1,1c.07.66.11,1.33.16,2s.05,1.3.11,2,.12,1.31.2,2h0v0c.08.71.18,1.42.28,2.13s.15,1.51.23,2.26v0c.13,1.06.24,2.12.36,3.18v.07h0c.14,1.15.29,2.31.38,3.47.05.54.05,1.08.1,1.62s.1,1.16.17,1.74h0c.07.53.12,1,.18,1.58h0v.09h0c.07.59.16,1.17.23,1.75s.1,1,.16,1.48.16.87.23,1.31.08.65.11,1v-.1s0,.08,0,.11a.74.74,0,0,1-.6.86l-.13,0A.76.76,0,0,1,26.46,49.73Z"/><path class="cls-1" d="M38.56,50.3a.76.76,0,0,1-.69-.8,7,7,0,0,0,.06-.79V47c0-.37,0-.73,0-1.09s0-.63.06-1c.06-.7.09-1.41.14-2.11,0-.36.06-.73.09-1.09s0-.69,0-1c0-.92.08-1.85.1-2.77V34.94c0-1.08,0-2.15,0-3.22v-.06c0-.26,0-.51,0-.77,0-.51,0-1,0-1.53s0-1,0-1.5v.06c0-.77,0-1.55,0-2.32s.11-1.53.16-2.29.06-1.54.11-2.31c0-.36.06-.72.12-1.08a2.34,2.34,0,0,1,.1-.4.94.94,0,0,1,.28-.4.72.72,0,0,1,.48-.2.74.74,0,0,1,.61,1.2c0,.11,0,.23-.05.34s0-.07,0-.1c-.12,1-.13,2-.18,3s-.16,2-.17,3v-.09c0,.59,0,1.19,0,1.78s0,1.11,0,1.66v1.7a3.23,3.23,0,0,1,0,.44v.1l0,1.57v-.1c0,1.41,0,2.82,0,4.23,0,.72,0,1.45-.07,2.17s0,1.4-.07,2.09c0,.41-.07.82-.1,1.22s0,.86-.08,1.29c0,.76-.12,1.51-.13,2.28v1.72a9.87,9.87,0,0,1-.06,1.22.75.75,0,0,1-.74.69Z"/><path class="cls-1" d="M32.51,57.66c0-.64,0-1.28,0-1.91s-.06-1.06-.06-1.59,0-1.18,0-1.77c0-.25-.06-.5-.07-.75s-.05-.59-.08-.89c-.07-.6-.11-1.22-.17-1.82-.1-.91-.13-1.82-.22-2.72-.06-.7-.06-1.4-.07-2.11s0-1.39,0-2.09c0-1.41,0-2.81,0-4.22s0-2.87,0-4.3v-.11c0-2.91,0-5.83,0-8.75,0-1.68,0-3.36,0-5a.09.09,0,0,1,0,.05c0-.69,0-1.38-.05-2.07,0-.35,0-.7,0-1.05a1.31,1.31,0,0,1,.16-.75.76.76,0,0,1,1-.2.75.75,0,0,1,.3.79c0,.12,0,.24,0,.36s0,.46,0,.69v-.1c0,.48,0,1,.05,1.43s0,1,0,1.51v-.1c0,2.91,0,5.82,0,8.72,0,1.73,0,3.45,0,5.18V34c0,1.41,0,2.81,0,4.21v2.12c0,.71,0,1.41,0,2.12s0,1.4,0,2.1c0,.36,0,.71,0,1.06s0,.6.07.9.07.91.09,1.36.08.85.12,1.28c0,.6.11,1.21.17,1.82,0,.26.05.52.07.79s.06.51.07.77c0,.58,0,1.17,0,1.74s0,1,.06,1.51,0,1.23,0,1.84a.77.77,0,0,1-.7.79h0A.74.74,0,0,1,32.51,57.66Z"/><path class="cls-1" d="M38.08,56.15a.74.74,0,0,1-.58-.81h0v0h0c0-.29,0-.58,0-.88,0-.46.06-.93.1-1.39.07-.94.16-1.87.17-2.81v.09c0-.35,0-.71,0-1.07v0c0-1,0-2,0-3a.76.76,0,0,1,.7-.78.75.75,0,0,1,.78.7c0,1.26,0,2.52,0,3.78v0c0,1-.08,2-.16,3,0,.49-.07,1-.11,1.48s0,.72-.07,1.06a.74.74,0,0,1-.74.6Z"/><path class="cls-1" d="M27.1,54.94v0h0v0c0-.29-.08-.59-.13-.88s-.1-.56-.15-.84-.08-.63-.11-.94c-.11-1.08-.22-2.16-.34-3.25v.1a14.28,14.28,0,0,0-.22-1.46,1.51,1.51,0,0,1-.06-.37.74.74,0,0,1,1.48-.08v0c.1.4.15.81.21,1.22s.1.93.16,1.39c.1.91.17,1.82.27,2.72v.06c.06.47.16.93.23,1.4.05.28.09.57.12.86a.75.75,0,0,1-.7.78h0A.76.76,0,0,1,27.1,54.94Z"/><path class="cls-1" d="M25.78,21.74a.76.76,0,0,1-.65-.51.73.73,0,0,1,.31-.85,1,1,0,0,1,.25-.12l.56-.28.62-.3a6.56,6.56,0,0,1,.69-.37,3.85,3.85,0,0,1,.79-.26.74.74,0,1,1,.27,1.46h0l-.42.14-.32.16,0,0-.89.47-.51.25-.05,0a.69.69,0,0,1-.3.14.91.91,0,0,1-.32.06Z"/><path class="cls-1" d="M39.21,46.84a.75.75,0,0,1-.2-1,1.17,1.17,0,0,1,.68-.38c.25-.07.49-.14.75-.19L41.67,45h.06l.34-.08h.07l1-.24h0l.64-.16h-.05l.12,0a.75.75,0,0,1,.93.48.74.74,0,0,1-.48.93,3.25,3.25,0,0,1-.42.11l.1,0-1.17.29-.39.09h0l-.09,0h0l-1,.24c-.33.07-.67.13-1,.22h0l-.54.16.09,0h0l.08,0h0l0,0a.8.8,0,0,1-.46.16A.79.79,0,0,1,39.21,46.84Z"/><path class="cls-1" d="M44.06,45.77a.76.76,0,0,1-.58-.88c0-.24.11-.48.16-.73s.07-.69.12-1,.11-.75.17-1.12a1.1,1.1,0,0,1,0-.18.09.09,0,0,1,0,0,.73.73,0,0,1,.12-.56h0a.58.58,0,0,1,.1-.12l0,0A.44.44,0,0,1,44.3,41h0l.07,0a.71.71,0,0,1,.74.05.94.94,0,0,1,.32.95c-.05.52-.14,1-.22,1.55a.28.28,0,0,0,0-.09c0,.32-.06.65-.11,1s-.12.52-.17.78a.75.75,0,0,1-.73.59Z"/><path class="cls-1" d="M44.64,41.82a.74.74,0,0,1-.34-1,.81.81,0,0,1,.54-.4,1.52,1.52,0,0,1,.21,0l.6,0h-.1l1-.14c.32,0,.65,0,1-.08h0A14.68,14.68,0,0,1,49.7,40a.74.74,0,1,1-.11,1.48h.07a16.18,16.18,0,0,0-1.84.08h0l-.57.06c-.15,0-.31,0-.46,0l-.77.11-.92.1H45A.61.61,0,0,1,44.64,41.82Z"/><path class="cls-1" d="M43.86,52.38a.74.74,0,0,1-.68-.79c0-.52.08-1,.1-1.54A7.87,7.87,0,0,1,43.37,49c.06-.38.13-.75.18-1.13h0c.07-.53.07-1.06.1-1.59s.1-1.09.12-1.63,0-1,0-1.48,0-.82,0-1.23a.69.69,0,0,1-.11-.35.75.75,0,0,1,.7-.78.84.84,0,0,1,.49.13.9.9,0,0,1,.37.6,7.24,7.24,0,0,1,0,1c0,.73,0,1.47,0,2.2s-.11,1.34-.14,2c0,.35,0,.7-.06,1s-.11.73-.17,1.09c0,.14-.05.29-.07.43-.05.46,0,.91-.08,1.37s-.06.65-.08,1a.73.73,0,0,1-.74.68Z"/><path class="cls-1" d="M49.14,48.08a12.08,12.08,0,0,1-.09-1.35c0-.39,0-.79,0-1.19s0-.89,0-1.35,0-.83,0-1.25h0c0-.4,0-.8,0-1.21s-.07-.6-.07-.9a.74.74,0,0,1,.7-.77.73.73,0,0,1,.78.69c0,.23,0,.45.05.67s0,.73,0,1.09c0,.68,0,1.36,0,2,0,.5,0,1,0,1.51s0,1,0,1.5v0l0,.26a.75.75,0,0,1-.59.86l-.13,0A.75.75,0,0,1,49.14,48.08Z"/><path class="cls-1" d="M43.8,44.83l0,0,.06,0-.35-.17c-.27-.11-.56-.19-.85-.29s-.77-.24-1.16-.35h0c-.27-.07-.54-.13-.82-.18l-.4,0a2,2,0,0,1-.69,0l-.28-.11-.07,0a.74.74,0,0,1,.18-1.47,1.76,1.76,0,0,1,.59.18,7.26,7.26,0,0,1,1.31.12c.43.1.87.21,1.29.35l1.14.37a4.41,4.41,0,0,1,.91.42.75.75,0,0,1,.2,1,.73.73,0,0,1-.6.32A.82.82,0,0,1,43.8,44.83Z"/><path class="cls-1" d="M43.41,41.64h.1c-.54,0-1.08,0-1.62,0s-1.12-.1-1.69-.11h-.52a.75.75,0,0,1-.78-.7.73.73,0,0,1,.69-.78c.4,0,.8,0,1.19,0l.85.08,1,0H43.8a13.71,13.71,0,0,0,1.69-.06,14,14,0,0,1,1.45-.16l1.5,0c.43,0,.87,0,1.3,0l.59.07a5.25,5.25,0,0,0,.56,0h.18c.32,0,.64,0,1,0h-.1c.5-.06,1-.17,1.49-.19a.74.74,0,0,1,.08,1.48l-.26,0h0l-.83.12a5.14,5.14,0,0,1-.88.06h-.91c-.39,0-.78-.1-1.17-.11H48c-.48,0-1,0-1.45,0h0c-.59.07-1.18.17-1.78.19H43.41Z"/><path class="cls-1" d="M25.64,41.59H25.1c-.25,0-.49,0-.74-.06a14,14,0,0,0-1.59-.14h.1c-1.37,0-2.73,0-4.09,0-.67,0-1.33,0-2,0s-1.41,0-2.11,0c-.54,0-1.07,0-1.61,0l-.88,0-.36,0a.79.79,0,0,1-.66-.18.75.75,0,0,1-.06-1,.87.87,0,0,1,.78-.26l.72.06c.68,0,1.36.07,2.05.08h-.09c.7,0,1.41,0,2.11,0s1.32,0,2,0c1.36,0,2.72,0,4.08,0a12.34,12.34,0,0,1,1.72.14c.25,0,.49.05.74.06a5.37,5.37,0,0,1,.7,0,.74.74,0,0,1,.58.87.75.75,0,0,1-.75.59Z"/><path class="cls-1" d="M20.17,51.35a4.22,4.22,0,0,1-.07-.61c0-.25,0-.51,0-.77,0-.57,0-1.14,0-1.7s0-1.12,0-1.68c0-.29,0-.58,0-.88a1.85,1.85,0,0,1,.14-1,.75.75,0,0,1,1.32.19l0,.15,0,0a.74.74,0,0,1,0,.68c0,.88.05,1.75.05,2.63,0,.49,0,1,0,1.46s0,.8.07,1.2V51l0,.13a.75.75,0,0,1-.6.86l-.14,0A.75.75,0,0,1,20.17,51.35Z"/><path class="cls-1" d="M25.6,46.65l0,0a3.59,3.59,0,0,0-.43-.14l.1,0c-.58-.15-1.16-.27-1.74-.41s-1.41-.36-2.12-.53-1.44-.38-2.17-.54l-1.13-.24c-.37-.08-.72-.18-1.09-.27L14.89,44c-.76-.18-1.52-.38-2.27-.59h0l-.46-.12a1,1,0,0,1-.69-.32.72.72,0,0,1-.14-.72.79.79,0,0,1,.57-.49,1.07,1.07,0,0,1,.47,0l1.08.29-.09,0c.7.19,1.4.37,2.11.53s1.42.34,2.12.52c.37.09.73.19,1.1.27l1.11.23c.74.17,1.46.37,2.19.55s1.65.43,2.48.62l1,.22a4,4,0,0,1,.77.24.74.74,0,0,1,.33,1,.72.72,0,0,1-.66.41A.85.85,0,0,1,25.6,46.65Z"/><path class="cls-1" d="M20.62,44.82a.74.74,0,0,1,.22-1c.14-.09.3-.16.44-.24a5.79,5.79,0,0,0,.58-.38c.27-.19.55-.38.83-.55.53-.34,1.09-.64,1.6-1a8,8,0,0,0,.63-.53l0,0L25,41l0,0a.74.74,0,0,1,1.16.91.86.86,0,0,1-.18.2,7.15,7.15,0,0,1-.89.76c-.42.3-.87.55-1.3.81s-.85.54-1.26.83a8.93,8.93,0,0,1-.88.53l-.05,0a.69.69,0,0,1-.39.12A.75.75,0,0,1,20.62,44.82Z"/><path class="cls-1" d="M30.48,56.07a7.38,7.38,0,0,1,0-.82V53.37c0-.36,0-.72-.05-1.08,0-.66-.09-1.33-.11-2,0-.34,0-.68,0-1s0-.65-.05-1c0-.7-.05-1.4-.07-2.1,0-.39,0-.77,0-1.15s0-.77-.07-1.15c-.09-1.41-.07-2.83-.07-4.24,0-.7,0-1.4,0-2.1,0-.35,0-.71,0-1.07s0-.69,0-1c0-.74,0-1.48,0-2.22,0-.38,0-.75,0-1.12s0-.67-.05-1,0-.68,0-1,0-.7,0-1.05c0-.17,0-.35,0-.53s0-.37,0-.55V26.86c0-.68,0-1.36,0-2l0-.53v-1.6c0-1,0-1.92,0-2.88,0-.44,0-.89,0-1.34,0-.2,0-.41,0-.62a.18.18,0,0,1,.18-.19.18.18,0,0,1,.19.17v.34c0,.27,0,.54,0,.8,0,.67,0,1.35,0,2v2c0,.37,0,.73,0,1.09s0,.73,0,1.09,0,.64,0,1,0,.71,0,1.06v1.13c0,.33,0,.67,0,1s0,.72,0,1.08,0,.68,0,1l.06,1c0,.37,0,.74,0,1.12,0,.73,0,1.46,0,2.2,0,.35,0,.69,0,1s0,.72,0,1.09V40c0,.73,0,1.45,0,2.17,0,.34,0,.68,0,1s0,.73.07,1.09,0,.74,0,1.11,0,.77,0,1.16,0,.69,0,1l.06,1c0,.33,0,.66,0,1s0,.66,0,1c.05,1,.13,2,.15,2.93,0,.45,0,.91,0,1.37a11.43,11.43,0,0,0,0,1.17.2.2,0,0,1-.18.2h0A.18.18,0,0,1,30.48,56.07Z"/><path class="cls-1" d="M29.42,55.48c-.05-.32-.12-.64-.17-1s-.09-.6-.13-.9q-.15-1-.24-2c0-.36-.06-.72-.07-1.08s0-.68-.06-1,0-.7-.06-1,0-.73-.06-1.1,0-.56-.05-.83,0-.5,0-.74c0-.57-.08-1.14-.11-1.71,0-.28,0-.57,0-.85s0-.59-.06-.87c0-.59-.09-1.18-.15-1.76v0c-.05-.39-.1-.77-.16-1.16s-.11-.85-.16-1.28h0v0h0c0-.34-.09-.68-.13-1s-.08-.73-.11-1.09c-.06-.7-.15-1.4-.21-2.1,0-.35-.05-.71-.08-1.06s-.07-.7-.09-1.06c-.06-.7-.11-1.4-.17-2.1S27,28.32,27,27.6c0-.36,0-.71,0-1.06s0-.73,0-1.09c0-.7,0-1.39-.05-2.09l0-1.05c0-.39,0-.79,0-1.18l0-.7-.06-.72c0-.26,0-.51,0-.77a.18.18,0,0,1,.18-.19.18.18,0,0,1,.19.17c0,.5.05,1,.09,1.49s0,.75,0,1.13,0,.74,0,1.11c0,.71,0,1.41.06,2.12s0,1.41,0,2.12.05,1.41.1,2.11c0,.4.06.8.09,1.19s.05.69.08,1c.05.68.12,1.35.17,2,0,.35.05.7.08,1.06s.08.69.11,1c.07.61.11,1.22.19,1.82h0c.05.46.11.93.17,1.39h0c0,.35.08.69.13,1s.1.67.14,1,.06.69.09,1l.09,1.07c0,.37.05.75.06,1.12s0,.68.05,1,.05.7.08,1,0,.65,0,1,.06.93.08,1.4l0,.7c0,.22,0,.45,0,.67,0,.46.05.92.08,1.38s.06.89.12,1.33h0q.09.78.21,1.56c0,.25.07.5.11.76s.09.48.13.73a.18.18,0,0,1-.15.21h0A.18.18,0,0,1,29.42,55.48Z"/><path class="cls-1" d="M36.57,55.87c0-.28,0-.55-.06-.83s0-.67-.06-1,0-.64,0-1,0-.69,0-1V49.79c0-.71,0-1.42,0-2.13,0-.36,0-.73,0-1.09s0-.7,0-1c0-.17,0-.35,0-.52V44.5c0-.76,0-1.52,0-2.28s0-1.37,0-2.06q0-.57.06-1.14c0-.19,0-.38,0-.57s0-.42,0-.62v0c0-.57,0-1.14,0-1.72,0-.3,0-.61,0-.92s0-.62,0-.94v0c0-1.35,0-2.71,0-4.06,0-.34,0-.68,0-1s0-.69.07-1,.06-.73.08-1.09,0-.74,0-1.11v0c0-.26,0-.52,0-.78,0,0,0,0,0,0a.75.75,0,0,1,0-.15v0h0c0-.44,0-.88,0-1.32s0-1,.06-1.57c0-.9.11-1.8.13-2.7v-.21a.57.57,0,0,1,0-.13.2.2,0,0,1,.18-.14.19.19,0,0,1,.2.18.29.29,0,0,1,0,.09v.13c0,.61,0,1.22-.08,1.83s-.07,1.29-.09,1.95c0,.36,0,.73,0,1.09,0,.15,0,.3,0,.44v.49a.41.41,0,0,1,0,.11v0c0,.45,0,.91,0,1.37s0,1-.09,1.47S37,29,37,29.47s0,1,0,1.44v3.36c0,.23,0,.47,0,.7,0,.48,0,1,0,1.44v1c0,.36,0,.71,0,1.06s0,.72-.07,1.08,0,.74,0,1.11v0c0,1.21,0,2.41,0,3.62v.83c0,.3,0,.59,0,.88,0,.6,0,1.2,0,1.79v0c0,1.43,0,2.86,0,4.29,0,.34,0,.68,0,1s0,.65,0,1,0,.68.06,1,0,.55.06.83a.19.19,0,0,1-.17.2h0A.19.19,0,0,1,36.57,55.87Z"/><path class="cls-1" d="M35.34,56.11c-.05-.47-.06-.94-.08-1.42,0-.22,0-.44,0-.67s0-.46-.07-.7h0c-.06-.51-.13-1-.16-1.55,0-.28,0-.57,0-.85v-.81c0-.57,0-1.15,0-1.73l0-1.78v0c0-.47,0-.93,0-1.39s0-.66,0-1c0-.16,0-.32,0-.49s0-.33,0-.5c0-.7,0-1.41,0-2.11s0-1.4,0-2.1c0-.37,0-.75,0-1.12V34.72c0-.76,0-1.52,0-2.27s-.05-1.46-.06-2.18,0-1.53,0-2.3c0-.5,0-1,0-1.52s0-1,0-1.53,0-1,0-1.52c0-.29,0-.57,0-.86s0-.56,0-.83v0c0-.53,0-1.07,0-1.6,0-.26,0-.51,0-.77s0-.55,0-.82v0c0-.35,0-.69,0-1v0a.68.68,0,0,1,0-.14v-.09a.2.2,0,0,1,.2-.18.19.19,0,0,1,.17.2v.05h0a1.79,1.79,0,0,1,0,.23c0,.17,0,.33,0,.5,0,.37,0,.74,0,1.11s0,.72-.06,1.09,0,.78,0,1.17v0c0,.51,0,1,0,1.52s0,1,0,1.55v0c0,.71,0,1.41,0,2.12s0,1.52,0,2.27c0,.38,0,.76,0,1.13s0,.77,0,1.15q0,1,0,2.1c0,.77,0,1.55,0,2.32s0,1.42,0,2.13c0,.35,0,.71,0,1.06s0,.73,0,1.09V42c0,.65,0,1.3,0,1.94s0,1.28,0,1.91v0c0,.46,0,.92,0,1.38s0,1,0,1.53v0c0,.7,0,1.4,0,2.1,0,.36,0,.73,0,1.09s.07.71.11,1.07h0c0,.24.06.48.08.72l.06.77c0,.3,0,.6,0,.89s0,.5.05.74a.19.19,0,0,1-.17.2h0A.19.19,0,0,1,35.34,56.11Z"/><path class="cls-1" d="M39.18,48.66a.18.18,0,0,1,.12-.21h0a.2.2,0,0,1,.11,0l.11,0c.51-.13,1-.3,1.52-.46s1.17-.32,1.75-.49l.79-.23.82-.24.86-.26c.28-.08.56-.18.84-.28l.85-.35.81-.32,1.54-.58c.26-.1.52-.19.79-.27l.9-.25.77-.23c.3-.1.59-.21.88-.33h0l.67-.28.46-.24a.2.2,0,0,1,.25.09.2.2,0,0,1-.09.25,6.19,6.19,0,0,1-.58.28l-.83.34-.87.31-.89.24c-.31.09-.62.18-.93.29l-.8.29c-.58.22-1.16.43-1.73.66h0l-1,.43c-.32.12-.65.23-1,.33l-1,.31-1.09.32-1,.28c-.37.09-.74.19-1.11.31l-1,.31-.47.13-.18,0h-.09A.17.17,0,0,1,39.18,48.66Z"/><path class="cls-1" d="M39.12,51.16a.18.18,0,0,1,.09-.24h0l0,0a.57.57,0,0,1,.13-.08l.11,0,.24-.08,1-.33c.73-.22,1.46-.44,2.19-.68L44,49.36c.37-.12.74-.22,1.1-.32s.71-.19,1.06-.3l1.08-.35,2.71-.87c.43-.14.86-.28,1.28-.44l.59-.22.45-.16a.18.18,0,0,1,.23.12.18.18,0,0,1-.12.23l-.77.28q-.49.2-1,.36l-2.11.68-1.11.36-1.09.35-1,.3-1.13.33-1.19.38-1.21.38-1.2.37-.59.19-.44.15-.05,0h0l-.06,0-.08,0A.18.18,0,0,1,39.12,51.16Z"/><path class="cls-1" d="M38.7,53.19a.18.18,0,0,1,.17-.2H39l.11,0L40,52.7c.31-.1.63-.2.94-.32s.61-.23.93-.33.64-.2,1-.29l1-.29,1-.3c.28-.08.57-.17.85-.27s.47-.17.71-.23a.2.2,0,0,1,.22.15.19.19,0,0,1-.15.22l-.08,0h0c-.27.07-.52.17-.78.26l-.93.29-1,.3-1.1.32c-.34.1-.67.21-1,.33l-.43.16-.52.18-1,.31a3.66,3.66,0,0,1-.44.13,1,1,0,0,1-.24,0A.19.19,0,0,1,38.7,53.19Z"/><path class="cls-1" d="M42.35,45.59a.2.2,0,0,1,.15-.22h0l.25-.08.36-.1a.28.28,0,0,1,.13,0l.65-.19L45,44.7l2.24-.64c.75-.22,1.51-.45,2.26-.69s1.4-.46,2.1-.67,1.26-.36,1.89-.5c.25-.06.5-.09.75-.13l.31,0,.23,0a.19.19,0,1,1,0,.37l-.27,0h0l-.73.1c-.16,0-.32.07-.48.1l-.55.14h0c-.66.16-1.31.37-2,.58l-1.11.37L48.66,44l-2.23.66-1.2.34-1.07.29-.89.27-.43.1-.27.06h0A.19.19,0,0,1,42.35,45.59Z"/><path class="cls-1" d="M44.73,42.8a.2.2,0,0,1,.14-.19h0l.18,0a3.43,3.43,0,0,1,.44-.09c.34-.06.68-.1,1-.15l1-.13.82-.09h0L49,42a5.05,5.05,0,0,1,.68-.06.19.19,0,0,1,.19.18.17.17,0,0,1-.17.19,5.09,5.09,0,0,0-.56,0l-.69.11c-.22,0-.44,0-.66.08h0q-.68.07-1.35.18c-.43.06-.86.11-1.29.21h0L45,43h0a.29.29,0,0,1-.1,0A.19.19,0,0,1,44.73,42.8Z"/><path class="cls-1" d="M26.56,49h0l-.5-.13-.58-.23A13.79,13.79,0,0,0,24,48.08h0c-.37-.1-.75-.18-1.12-.26s-.76-.18-1.14-.29l-.54-.17-.56-.17-1.13-.32h0l-1.68-.46c-.62-.18-1.22-.42-1.82-.63l-.84-.3c-.28-.09-.55-.19-.83-.27L13.48,45l-.9-.28h0l-.86-.2a.19.19,0,0,1-.18.06.27.27,0,0,1-.21-.27.19.19,0,0,1,.15-.18.59.59,0,0,1,.19,0l.23,0a17.83,17.83,0,0,1,2,.57l1,.31c.35.11.69.24,1,.36s.7.25,1.05.38l.52.18.52.16h0l2.08.56c.69.2,1.37.43,2.06.62h0l1.16.28a5.63,5.63,0,0,1,.59.14c.18,0,.36.1.54.15.35.11.7.24,1,.37s.53.22.81.3h0l.4.1a.2.2,0,0,1,.11.24.18.18,0,0,1-.18.12Z"/><path class="cls-1" d="M27.51,52.26l-.24-.11h0L26.83,52l-.57-.27c-.43-.22-.87-.42-1.31-.62l-1.2-.56c-.46-.22-.93-.44-1.4-.64h0l-1.11-.46L20.14,49c-.37-.16-.73-.35-1.09-.53l-.5-.24L18,48h0c-.52-.22-1-.42-1.57-.62l-1.56-.6-.78-.31-.78-.27c-.52-.18-1.05-.36-1.58-.51l-.27,0-.26,0a.22.22,0,0,1-.18-.13.19.19,0,0,1,.12-.23h.29a1.86,1.86,0,0,1,.41.08l1.05.33,1,.35,1.05.41,1,.38,1.15.45c.33.12.67.26,1,.4l.46.19.55.27c.32.15.63.31.95.45s.66.3,1,.44h0l1.58.65c.52.22,1,.47,1.53.71l.66.31.78.35c.25.12.49.23.73.36s.45.22.68.31h0a5.11,5.11,0,0,1,.64.27.19.19,0,0,1,.08.25.19.19,0,0,1-.17.1A.12.12,0,0,1,27.51,52.26Z"/><path class="cls-1" d="M12.85,41.24c.06.37,0,.26,0,.14a.78.78,0,0,1,0-.14.15.15,0,0,1,0-.09c0-.08,0-.16.06-.22a.19.19,0,0,1,.3.08c0,.09,0,.18,0,.27l.06.38a.2.2,0,0,1-.15.22h0a.18.18,0,0,1-.18-.15Z"/><path class="cls-1" d="M14.06,42.19A9.5,9.5,0,0,1,14,40.88a.19.19,0,1,1,.37,0,11.38,11.38,0,0,0,.08,1.31.18.18,0,0,1-.17.2h0A.18.18,0,0,1,14.06,42.19Z"/><path class="cls-1" d="M15.17,42.75c0-.33-.05-.66-.08-1l0-.46a1.36,1.36,0,0,1,0-.2A.57.57,0,0,1,15,41a.19.19,0,0,1,.19-.15h0a.2.2,0,0,1,.16.13s0,0,0,.06v0c0,.11,0,.22,0,.33s0,.29,0,.43c0,.31,0,.61.07.92a.2.2,0,0,1-.18.2h0A.19.19,0,0,1,15.17,42.75Z"/><path class="cls-1" d="M16.31,42.88c-.06-.41-.1-.83-.15-1.24,0-.13,0-.25-.05-.37a.24.24,0,0,1,0-.08l0,0a.18.18,0,0,1,.05-.26h0a.2.2,0,0,1,.22,0,.39.39,0,0,1,.11.15c0,.12.05.23.07.34s.05.42.08.62l.06.61h0v0h0a1.23,1.23,0,0,0,0,.19.18.18,0,0,1-.15.22h0A.17.17,0,0,1,16.31,42.88Z"/><path class="cls-1" d="M17.52,43.07c-.07-.33-.13-.67-.18-1s-.09-.66-.15-1a.18.18,0,0,1,0-.1.38.38,0,0,1,0-.1.2.2,0,0,1,.17-.12h0a.17.17,0,0,1,.18.11,1.17,1.17,0,0,1,.06.2l0,.22.09.62c0,.37.11.74.19,1.1a.19.19,0,0,1-.15.22h0A.17.17,0,0,1,17.52,43.07Z"/><path class="cls-1" d="M19,43.43c0-.07,0-.14,0-.21h0v0h0c-.05-.39-.12-.77-.17-1.16,0-.18-.06-.36-.08-.54s0-.38,0-.57a.14.14,0,0,1,0-.09.2.2,0,0,1,.06-.11.19.19,0,0,1,.31.1s0,.08,0,.12,0,.11,0,.17l0,.37h0v0h0c.08.63.2,1.26.27,1.9a.2.2,0,0,1-.17.2h0A.19.19,0,0,1,19,43.43Z"/><path class="cls-1" d="M20.27,43.47c0-.47-.05-.94-.07-1.4l0-.67c0-.12,0-.24,0-.36a2.44,2.44,0,0,1,0-.27.19.19,0,0,1,.17-.15.21.21,0,0,1,.19.13.34.34,0,0,1,0,.1.17.17,0,0,1,0,.07V41c0,.37,0,.75,0,1.13s0,.88.07,1.32a.2.2,0,0,1-.18.2h0A.18.18,0,0,1,20.27,43.47Z"/><path class="cls-1" d="M21.64,43.63c-.05-.41-.1-.81-.11-1.22,0-.21,0-.41,0-.62s0-.33,0-.5a.17.17,0,0,1,0-.14s0-.06,0-.08a.17.17,0,0,1,.14-.08.19.19,0,0,1,.17.08.47.47,0,0,1,0,.17v.32c0,.21,0,.42,0,.63,0,.43.05.85.1,1.27h0v0h0s0,.06,0,.08a.19.19,0,0,1-.15.22h0A.17.17,0,0,1,21.64,43.63Z"/><path class="cls-1" d="M23.29,41c0,.89,0,.58,0,.27,0-.06,0-.12,0-.18a.28.28,0,0,1,0-.13.18.18,0,0,1,.16-.1.19.19,0,0,1,.2.17.29.29,0,0,1,0,.09,2.44,2.44,0,0,0,0,.27c0,.14,0,.27,0,.41v.38a.18.18,0,0,1-.17.19h0a.19.19,0,0,1-.19-.17Z"/><path class="cls-1" d="M23.83,45l-.06-.77c0-.12,0-.23,0-.35V43.7a.45.45,0,0,1,0-.2.19.19,0,0,1,.12-.14.19.19,0,0,1,.18,0,.21.21,0,0,1,.07.12l0,.07a.2.2,0,0,1,0,.15c0,.41,0,.82.09,1.22a.2.2,0,0,1-.18.2h0A.2.2,0,0,1,23.83,45Z"/><path class="cls-1" d="M24.91,45.29c-.07-.3-.14-.6-.18-.9s0-.3-.05-.45l-.06-.44a.17.17,0,0,1-.05-.2.18.18,0,0,1,.06-.09.21.21,0,0,1,.19,0,.24.24,0,0,1,.13.15,1.69,1.69,0,0,1,.07.38l.09.73c0,.27.1.53.16.79a.18.18,0,0,1-.15.22h0A.18.18,0,0,1,24.91,45.29Z"/><path class="cls-1" d="M40,45.45c0-.45-.06-.9-.1-1.35h0a2.36,2.36,0,0,0,0-.28c0-.13,0-.26-.07-.4h0s0,0,0-.06a.18.18,0,0,1-.1-.15.25.25,0,0,1,0-.12.24.24,0,0,1,.15-.11.22.22,0,0,1,.2.08.37.37,0,0,1,.07.14,1,1,0,0,1,0,.18c0,.05,0,.1,0,.15s0,.32.06.47,0,.31,0,.46c0,.32,0,.64.07,1a.2.2,0,0,1-.18.2h0A.19.19,0,0,1,40,45.45Z"/><path class="cls-1" d="M41.13,43.82c.1.92.09.64.06.36h0a1.57,1.57,0,0,0,0-.3h0a.18.18,0,0,1,.05-.18.2.2,0,0,1,.27,0,.43.43,0,0,1,.05.16,2.23,2.23,0,0,1,0,.36,6.52,6.52,0,0,1,0,.77.17.17,0,0,1-.17.19h0a.2.2,0,0,1-.2-.17Z"/><path class="cls-1" d="M42.34,44.15c.14.53.11.39.07.24h0s0-.11,0-.17a.35.35,0,0,1,0-.11.18.18,0,0,1,.18-.19.19.19,0,0,1,.2.17h0v0h0c.06.22.11.43.15.65a.18.18,0,0,1-.14.22h0a.18.18,0,0,1-.18-.15Z"/><path class="cls-1" d="M43.91,42.57l-1.15,0-1.3,0-.57,0c-.21,0-.41,0-.62,0l-.62,0-.32,0a.65.65,0,0,1-.2,0,.2.2,0,0,1-.12-.22.21.21,0,0,1,.12-.14h0a.19.19,0,0,1,.18,0,.21.21,0,0,1,.08.06h.41l.55,0,.62,0,.59,0,1.23,0,1.15,0a.19.19,0,0,1,.17.2.2.2,0,0,1-.2.17Z"/><path class="cls-1" d="M40,41.25c0,.73,0,.36,0,0a.19.19,0,0,1,.17-.18.2.2,0,0,1,.2.18v0h0c0,.08,0,.15,0,.22v.81a.18.18,0,0,1-.18.19h0a.18.18,0,0,1-.18-.17Z"/><path class="cls-1" d="M40.82,42.63c0-.18,0-.38,0-.57a3.35,3.35,0,0,1,0-.63.22.22,0,0,1,.06-.15.19.19,0,0,1,.3.23c0,.1,0,.21,0,.31a7,7,0,0,0,0,.79.19.19,0,0,1-.17.2h0A.19.19,0,0,1,40.82,42.63Z"/><path class="cls-1" d="M41.61,43a4.8,4.8,0,0,1,0-.66c0-.12,0-.24,0-.36s0-.2,0-.3a.64.64,0,0,1,0-.07.18.18,0,0,1,.08-.15h0a.19.19,0,0,1,.13,0,.17.17,0,0,1,.14.12,1.32,1.32,0,0,1,0,.28c0,.12,0,.25,0,.38s0,.48,0,.72h0v0a.19.19,0,0,1-.15.21h0A.18.18,0,0,1,41.61,43Z"/><path class="cls-1" d="M42.49,43.37c0-.2,0-.41,0-.62a8.64,8.64,0,0,0,0-.88,2,2,0,0,0,0-.24h0a.2.2,0,0,1,.09-.25.19.19,0,0,1,.23.07.3.3,0,0,1,0,.1,1.77,1.77,0,0,1,0,.2,4.93,4.93,0,0,1,0,.54c0,.35,0,.7,0,1v0a.18.18,0,0,1-.17.2h0A.19.19,0,0,1,42.49,43.37Z"/><path class="cls-1" d="M43.25,43.44c0-.34,0-.68,0-1v-.76a.32.32,0,0,1,0-.19.2.2,0,0,1,.28,0l.05.08a.18.18,0,0,1,0,.16,2.26,2.26,0,0,1,0,.26v0c0,.5,0,1,0,1.5a.2.2,0,0,1-.18.2h0A.18.18,0,0,1,43.25,43.44Z"/><path class="cls-1" d="M43.27,43.73a.21.21,0,0,1-.17-.12.17.17,0,0,1,0-.14.71.71,0,0,1,.13-.22c.06-.07.14-.13.2-.2l.24-.24.45-.42a.18.18,0,1,1,.24.28l-.48.45,0,0c-.14.14-.28.28-.41.43v0a.19.19,0,0,1-.19.17Z"/><path class="cls-1" d="M42.44,43.38h0a.26.26,0,0,1,0-.15.39.39,0,0,1,.1-.16.58.58,0,0,1,.12-.1l.16-.11c.29-.18.57-.35.85-.55h0L44,42a.18.18,0,0,1,.26,0,.19.19,0,0,1,0,.26,5.16,5.16,0,0,1-.64.49c-.25.18-.52.33-.77.5h0l-.06,0a.18.18,0,0,1-.18.19h0A.18.18,0,0,1,42.44,43.38Z"/><path class="cls-1" d="M41.76,43.2a.19.19,0,0,1,0-.26,2.22,2.22,0,0,1,.48-.39c.29-.2.58-.39.86-.6h0c.23-.19.46-.37.68-.58a.19.19,0,0,1,.26,0,.19.19,0,0,1,0,.27,7.27,7.27,0,0,1-.74.61l-1,.67h0a2.54,2.54,0,0,0-.24.2l0,0a.15.15,0,0,1-.13.07A.21.21,0,0,1,41.76,43.2Z"/><path class="cls-1" d="M41.2,42.58a.22.22,0,0,1,0-.14l0,0a1.92,1.92,0,0,1,.16-.21c.1-.1.22-.2.33-.29a7.14,7.14,0,0,1,.77-.55.19.19,0,0,1,.26,0,.19.19,0,0,1-.06.26l-.45.3h0a5.17,5.17,0,0,0-.57.48l-.1.12h0v0a.56.56,0,0,0-.05.08.2.2,0,0,1-.12.08h0A.19.19,0,0,1,41.2,42.58Z"/><path class="cls-1" d="M40,42.6a.21.21,0,0,1,0-.19l.1-.14a.91.91,0,0,1,.21-.18,6.55,6.55,0,0,1,.53-.39c.2-.15.41-.29.61-.42a.19.19,0,0,1,.26,0,.19.19,0,0,1-.06.26c-.31.21-.62.42-.93.65h0l-.15.11-.17.15s0,0,0,0a.19.19,0,0,1-.18.19A.25.25,0,0,1,40,42.6Z"/><path class="cls-1" d="M39.08,42.52a.19.19,0,0,1,0-.13.39.39,0,0,1,.1-.19l.11-.1.12-.11.28-.23c.19-.14.37-.29.55-.44a.19.19,0,0,1,.26,0,.18.18,0,0,1,0,.26L40,42l-.5.41h0l0,.05a.24.24,0,0,1-.06.11.19.19,0,0,1-.12,0A.18.18,0,0,1,39.08,42.52Z"/><path class="cls-1" d="M39,42.21a.31.31,0,0,1,.07-.12s0,0,0,0l.13-.13.15-.12.3-.21a.17.17,0,0,1,.25.06.18.18,0,0,1-.05.25l-.3.22h0l-.17.14a.3.3,0,0,1-.15.12h0a.18.18,0,0,1-.18-.13Z"/><path class="cls-1" d="M24.42,41.91l-.86-.08H22.1l-.93,0c-.38,0-.75,0-1.12,0h-1.2l-1.06,0c-.76,0-1.51-.1-2.27-.12h-1.8c-.56,0-1.12,0-1.68,0l-.15,0a.17.17,0,0,1-.14.09.32.32,0,0,1-.14,0,.2.2,0,0,1-.13-.2.2.2,0,0,1,.16-.18,1.94,1.94,0,0,1,.48-.09c.3,0,.61,0,.92,0h2l1.06,0,2,.11.71,0h1.35c.46,0,.9,0,1.36,0h.82l.88,0a6.79,6.79,0,0,1,.78,0l.42,0a.18.18,0,0,1,.17.2.18.18,0,0,1-.18.17Z"/><path class="cls-1" d="M18.66,42.55c-.35,0-.7,0-1.06,0l-2.09-.09-.78,0c-.27,0-.53,0-.8-.06s-.57-.06-.85-.09l-.58-.06a.22.22,0,0,1-.17,0,.47.47,0,0,1-.2-.1.17.17,0,0,1-.06-.15.18.18,0,0,1,.08-.14.19.19,0,0,1,.1,0,.67.67,0,0,1,.2,0l.44,0,.94.1c.31,0,.62.06.93.07l.94,0,1.73.07.86.05.9,0,1.19,0h2.89a.55.55,0,0,1,.18,0,.19.19,0,0,1,.12.24.2.2,0,0,1-.24.11H21.82l-2.11,0H18.66Z"/><path class="cls-1" d="M15.28,43.44l-.16-.08h0L15,43.31a.29.29,0,0,1-.08-.14A.18.18,0,0,1,15,43a.59.59,0,0,1,.16-.07l.3,0,.53,0c.37,0,.74,0,1.11,0,.72,0,1.44,0,2.17,0s1.4,0,2.1,0l.88,0h.28a.23.23,0,0,1,.2.15.18.18,0,0,1-.12.24.17.17,0,0,1-.14,0l-1.39.06c-.62,0-1.24,0-1.86,0s-1.25,0-1.88,0-1.22,0-1.82.09a.28.28,0,0,1,0,.09.2.2,0,0,1-.18.13Z"/><path class="cls-1" d="M18.62,44c-.08,0-.16,0-.21-.07a.19.19,0,0,1,.06-.29,1.11,1.11,0,0,1,.26-.07l.31-.05.62-.07L21,43.29l1.25-.11.53,0H23a.58.58,0,0,1,.19,0,.19.19,0,1,1-.12.35H23l-.66,0-.93.08-1.87.16h0l-.61.08a.16.16,0,0,1-.14.08Z"/><path class="cls-1" d="M11.82,42.46a.19.19,0,0,1,0-.27c.13-.12.28-.22.42-.33l.44-.38,0,0,.17-.16c.07-.07.13-.15.2-.23h0l0,0,0,0a.2.2,0,0,1,0-.26l.11-.09.08,0h.12a.18.18,0,0,1,.14.15.19.19,0,0,1,0,.08.5.5,0,0,1,0,.13.39.39,0,0,1-.06.11l-.11.16-.21.24-.1.1-.08.08-.39.33c-.16.13-.32.24-.47.38a.17.17,0,0,1-.12,0A.18.18,0,0,1,11.82,42.46Z"/><path class="cls-1" d="M12.47,42.72a.18.18,0,0,1,0-.26c.24-.2.49-.38.75-.56l.88-.61h0l.4-.31.18-.12a.72.72,0,0,1,.27-.15.19.19,0,0,1,.2.1.23.23,0,0,1,0,.11l0,.09a.18.18,0,0,1-.22.12l-.21.15h0l-.88.64-.91.64h0l-.25.19a.21.21,0,0,1-.12,0A.16.16,0,0,1,12.47,42.72Z"/><path class="cls-1" d="M13.69,42.77a.18.18,0,0,1,0-.26c.19-.15.4-.28.6-.41l.71-.44.69-.44.38-.27c.14-.09.27-.2.41-.28a.2.2,0,0,1,.27.08h0a.18.18,0,0,1,0,.2l-.1.09a.15.15,0,0,1-.11,0l-.19.14L16,41.5l-.68.44c-.43.27-.86.51-1.27.8l-.06,0a.19.19,0,0,1-.12,0A.18.18,0,0,1,13.69,42.77Z"/><path class="cls-1" d="M15,43a.18.18,0,0,1-.12-.12.19.19,0,0,1,0-.16l0-.06.1-.08.2-.13.45-.29.84-.52.92-.57.38-.23.24-.15a1.56,1.56,0,0,1,.28-.16.18.18,0,0,1,.23.07.19.19,0,0,1,0,.24,1,1,0,0,1-.17.12l-.09,0-.61.38-.86.53c-.43.26-.87.53-1.29.81h0a.18.18,0,0,1-.12.23l-.18.07h-.14Z"/><path class="cls-1" d="M15.49,43.35a.19.19,0,0,1,0-.26.35.35,0,0,1,.11-.1.46.46,0,0,1,.13-.08l.21-.12.47-.26,1.1-.54c.34-.17.68-.34,1-.52.16-.09.32-.18.49-.26a.61.61,0,0,1,.45-.11.16.16,0,0,1,.12.12.23.23,0,0,1,0,.16.2.2,0,0,1-.17.08h0l-.06,0a3.37,3.37,0,0,0-.38.19l-.45.25-.75.38-.78.38-.81.42h0l-.31.18,0,0,0,0a.15.15,0,0,1-.13.07A.19.19,0,0,1,15.49,43.35Z"/><path class="cls-1" d="M16.42,43.7a.18.18,0,0,1,0-.2s0,0,.06-.07l.09-.06.24-.15.52-.3,1.09-.66,1-.61.57-.32.26-.14.25-.13a.19.19,0,0,1,.23.06.19.19,0,0,1-.05.26l-.17.11-.09,0h0l-.24.13h0l-.91.51-.73.45s0,0,0,0a.2.2,0,0,1-.09.25l-.88.48-.47.23-.31.13-.14.05h-.1A.19.19,0,0,1,16.42,43.7Z"/><path class="cls-1" d="M17.81,43.88a.19.19,0,0,1-.17-.13.2.2,0,0,1,0-.15.39.39,0,0,1,.08-.1l.14-.1c.17-.12.34-.22.5-.34.39-.25.78-.5,1.18-.74s.82-.48,1.23-.72l.59-.34.05,0a.11.11,0,0,1,.07-.06l.23-.12.07,0a.46.46,0,0,1,.14-.07.17.17,0,0,1,.22.1.18.18,0,0,1-.06.23l-.21.11-.87.51L20,42.51c-.34.2-.67.4-1,.61l-.48.32h0a.2.2,0,0,1-.09.25l-.26.11-.24.07h-.09Z"/><path class="cls-1" d="M18.88,44a.18.18,0,0,1-.05-.26.67.67,0,0,1,.2-.17,2.2,2.2,0,0,1,.25-.17l.59-.38,1.3-.8,1.21-.75L23,41.1l.28-.17a.27.27,0,0,1,.21-.07.19.19,0,0,1,.12.29l0,.06a.27.27,0,0,1-.12.06c-.13.07-.25.15-.37.23l-.54.34-1.1.68-1.2.73c-.33.21-.66.42-1,.64l-.07,0A.21.21,0,0,1,19,44Z"/><path class="cls-1" d="M20.25,43.83a.18.18,0,0,1,.06-.25c.47-.3,1-.58,1.43-.87s1-.62,1.43-1h0l.64-.55.12-.13h0v0a.17.17,0,0,1,.14-.08.18.18,0,0,1,.2.17.3.3,0,0,1-.14.24l-.19.19-.25.22a9.15,9.15,0,0,1-1,.73c-.34.23-.69.46-1.05.67s-.77.45-1.14.69a.19.19,0,0,1-.26-.06Z"/><path class="cls-1" d="M21.87,44.62a.19.19,0,0,1-.12-.14.18.18,0,0,1,.06-.17.42.42,0,0,1,.14-.09.19.19,0,0,1-.13-.1.19.19,0,0,1,.09-.25c.35-.14.71-.29,1.05-.45l.51-.24.49-.26,0,0,.93-.54a2.33,2.33,0,0,1,1-.41.37.37,0,0,1,.27.07.21.21,0,0,1,0,.24.44.44,0,0,1-.16.14l-.19.12-.69.4-.85.48c-.62.33-1.25.62-1.86,1h0l-.19.1-.12.08a.17.17,0,0,1-.12.05Z"/><text class="cls-2" transform="translate(14.17 36.35)">E<tspan class="cls-3" x="3.76" y="0">NT</tspan><tspan x="11.82" y="0">E</tspan><tspan class="cls-4" x="15.58" y="0">R</tspan><tspan class="cls-5" x="19.71" y="0">P</tspan><tspan class="cls-6" x="23.74" y="0">R</tspan><tspan class="cls-7" x="27.88" y="0">I</tspan><tspan class="cls-8" x="30.18" y="0">S</tspan><tspan class="cls-9" x="34.06" y="0">E</tspan></text></svg>